<?xml version="1.0" standalone="no"?>
<!DOCTYPE svg PUBLIC "-//W3C//DTD SVG 20010904//EN"
 "http://www.w3.org/TR/2001/REC-SVG-20010904/DTD/svg10.dtd">
<svg version="1.0" xmlns="http://www.w3.org/2000/svg"
 width="1000.000000pt" height="1000.000000pt" viewBox="0 0 1000.000000 1000.000000"
 preserveAspectRatio="xMidYMid meet">

<g transform="translate(0.000000,1000.000000) scale(0.100000,-0.100000)"
fill="#000000" stroke="none">
<path d="M1 7678 c1 -2018 3 -2307 15 -2198 26 244 62 464 100 615 9 33 22 87
30 120 8 33 21 81 29 106 8 26 15 54 15 63 0 9 8 31 17 49 9 18 20 48 24 67 6
31 30 97 94 269 9 25 27 68 41 96 13 29 24 55 24 59 0 10 118 256 159 331 65
119 95 170 103 173 4 2 8 8 8 13 0 9 99 180 109 189 10 8 51 69 51 75 0 3 4
11 10 18 46 57 60 76 60 85 0 5 7 12 15 16 8 3 15 12 15 21 0 8 4 15 9 15 5 0
12 8 15 18 4 9 22 35 41 57 19 22 38 45 43 50 70 92 102 131 169 204 55 59 63
78 38 87 -9 4 -15 19 -15 39 0 27 5 35 30 45 17 7 44 10 65 6 34 -7 39 -3 153
106 160 153 254 238 263 238 4 0 9 7 13 15 3 8 11 15 17 15 7 0 17 6 23 14 6
7 56 48 111 90 55 42 105 81 112 86 7 6 17 10 23 10 5 0 10 4 10 8 0 12 256
182 350 232 25 14 53 31 62 38 35 29 389 206 533 267 184 78 309 126 380 144
17 5 41 13 55 18 23 9 94 31 220 68 25 7 79 21 120 30 41 9 107 25 145 36 39
10 81 19 94 19 13 0 53 6 90 14 90 20 264 43 451 61 389 37 1069 7 1357 -61
34 -7 74 -14 90 -14 15 0 60 -9 98 -19 39 -11 106 -27 150 -36 44 -10 96 -23
115 -30 19 -7 53 -17 75 -23 22 -5 55 -15 73 -21 70 -24 98 -33 127 -41 76
-21 199 -68 380 -145 144 -61 498 -238 533 -267 9 -7 37 -24 62 -38 25 -13 47
-26 50 -29 3 -3 25 -17 50 -31 25 -13 50 -28 55 -32 6 -5 48 -34 95 -65 110
-73 360 -263 360 -275 0 -4 6 -8 13 -8 7 0 20 -8 28 -17 9 -10 29 -29 45 -42
77 -64 217 -195 292 -273 66 -69 91 -88 112 -88 34 0 54 -22 47 -52 -5 -18 6
-36 46 -79 68 -74 100 -113 169 -204 5 -5 24 -28 43 -50 19 -22 37 -48 41 -57
3 -10 10 -18 15 -18 5 0 9 -7 9 -15 0 -9 7 -18 15 -21 8 -4 15 -11 15 -16 0
-9 14 -28 60 -85 6 -7 10 -15 10 -18 0 -6 41 -67 51 -75 10 -9 109 -180 109
-189 0 -5 4 -11 8 -13 8 -3 38 -54 103 -173 41 -75 159 -321 159 -331 0 -4 11
-30 24 -59 14 -28 32 -71 41 -96 64 -172 88 -238 94 -269 4 -19 15 -49 24 -67
9 -18 17 -40 17 -49 0 -9 7 -37 15 -63 8 -25 21 -73 29 -106 8 -33 21 -87 30
-120 41 -164 77 -389 101 -640 9 -88 17 -169 19 -180 2 -11 4 1048 5 2353 l1
2372 -5000 0 -5000 0 1 -2322z"/>
<path d="M4660 9799 c-91 -4 -203 -15 -250 -23 -47 -9 -103 -16 -125 -16 -22
0 -56 -5 -75 -10 -19 -6 -66 -15 -105 -20 -111 -15 -325 -65 -495 -115 -25 -8
-61 -17 -80 -21 -19 -3 -41 -10 -50 -14 -18 -9 -53 -21 -175 -61 -49 -17 -94
-34 -100 -40 -5 -5 -15 -9 -23 -9 -8 0 -33 -9 -56 -19 -23 -11 -66 -29 -96
-41 -109 -44 -326 -149 -425 -206 -22 -12 -62 -35 -90 -49 -101 -53 -110 -59
-122 -71 -7 -7 -22 -16 -33 -19 -11 -3 -20 -11 -20 -16 0 -5 -4 -9 -9 -9 -6 0
-53 -29 -106 -65 -53 -36 -101 -65 -105 -65 -4 0 -10 -7 -14 -15 -3 -8 -10
-15 -16 -15 -11 0 -188 -134 -206 -156 -6 -8 -16 -14 -23 -14 -6 0 -14 -7 -17
-15 -4 -8 -12 -15 -19 -15 -7 0 -15 -4 -17 -9 -1 -5 -35 -35 -73 -67 -39 -33
-93 -81 -122 -109 -28 -27 -73 -70 -100 -95 l-48 -45 30 -3 c16 -2 46 1 67 7
29 9 42 9 59 -1 27 -16 59 -45 59 -54 0 -17 72 -75 99 -80 35 -7 83 -62 127
-142 25 -46 76 -92 104 -92 5 0 53 -21 107 -46 54 -25 116 -54 138 -64 26 -12
83 -22 167 -29 70 -5 136 -15 147 -20 11 -6 29 -11 41 -11 12 0 34 -6 48 -14
15 -8 47 -22 72 -31 58 -23 196 -91 235 -115 17 -11 37 -23 45 -27 8 -3 17 -9
20 -12 3 -4 23 -19 45 -35 22 -16 45 -34 50 -40 13 -16 72 -43 110 -51 17 -4
50 -13 75 -20 25 -7 72 -21 105 -30 75 -21 138 -47 240 -98 l80 -40 220 -2
c196 -1 226 -4 277 -23 31 -11 72 -22 90 -24 29 -3 33 0 36 22 2 21 -3 27 -30
35 -31 9 -33 13 -36 60 -2 27 -8 53 -15 57 -8 5 -8 13 1 33 17 37 16 42 -18
62 -18 10 -34 30 -38 48 -10 36 1 105 18 115 8 5 10 20 7 41 -4 19 -9 51 -13
73 -10 57 12 114 46 121 26 6 28 9 23 45 -9 65 59 154 113 148 27 -3 29 -1 32
38 3 39 7 43 55 69 29 15 70 42 92 60 22 17 65 42 95 54 30 13 60 28 67 33 7
5 64 8 130 7 65 -2 161 -2 213 -1 77 3 102 0 130 -15 61 -32 94 -56 144 -105
28 -27 54 -48 58 -48 4 0 8 -6 8 -14 0 -8 6 -16 14 -19 7 -3 16 -24 20 -46 l6
-41 54 0 c58 0 80 -13 97 -57 16 -42 10 -63 -22 -82 l-31 -19 30 -7 c41 -9 56
-29 47 -62 -19 -78 -18 -87 14 -105 41 -23 39 -38 -4 -38 -24 0 -35 -5 -35
-15 0 -23 77 -21 83 3 3 9 5 2 6 -16 1 -45 -24 -90 -56 -98 l-26 -7 26 -19
c15 -11 27 -25 27 -33 0 -7 -18 -32 -40 -55 -22 -23 -40 -46 -40 -49 0 -4 -9
-17 -20 -29 -18 -19 -19 -27 -11 -58 13 -47 0 -80 -35 -88 -15 -4 -48 -27 -73
-51 l-46 -45 38 0 c21 0 59 9 85 19 26 11 69 22 96 25 28 3 52 9 55 14 16 20
122 71 176 84 115 28 235 20 312 -20 32 -16 33 -16 120 29 49 25 115 53 148
63 33 10 76 25 95 33 42 16 187 53 213 53 24 0 65 27 105 68 43 44 129 102
153 102 10 0 79 29 154 65 74 36 143 65 153 65 10 0 22 4 28 9 9 10 113 33
201 45 24 4 58 15 75 26 18 11 43 20 55 20 12 0 43 11 70 24 52 26 108 48 188
72 49 15 56 20 85 65 19 29 85 99 93 99 3 0 29 14 57 30 28 17 56 30 62 30 11
0 87 48 98 61 19 24 88 59 115 59 18 0 53 3 78 6 l46 7 -32 26 c-18 14 -67 59
-109 101 -115 111 -135 129 -212 194 -39 32 -72 63 -74 67 -2 5 -10 9 -18 9
-8 0 -17 7 -20 15 -4 8 -12 15 -20 15 -8 0 -14 4 -14 9 0 5 -22 24 -50 42 -27
18 -50 36 -50 41 0 4 -6 8 -14 8 -8 0 -16 3 -18 8 -4 9 -102 82 -153 112 -22
13 -44 28 -50 33 -18 15 -159 103 -205 128 -25 13 -47 27 -50 31 -3 4 -17 12
-30 18 -14 6 -56 28 -95 50 -38 21 -80 44 -92 49 -13 6 -67 31 -120 57 -188
88 -223 104 -233 104 -5 0 -29 9 -52 19 -72 32 -110 48 -168 66 -30 10 -66 22
-80 27 -117 46 -459 138 -635 171 -44 9 -107 21 -140 27 -33 7 -98 16 -145 20
-47 5 -110 14 -140 20 -127 25 -570 35 -900 19z"/>
<path d="M5140 8339 c1 -21 36 -59 55 -59 9 0 31 -15 47 -32 17 -18 51 -44 77
-58 35 -19 52 -37 71 -75 24 -48 76 -95 105 -95 7 0 19 -16 25 -35 12 -37 34
-46 44 -19 8 22 -20 60 -58 78 -40 19 -61 43 -70 79 -3 15 -11 27 -16 27 -6 0
-10 4 -10 9 0 16 -75 89 -120 116 -25 16 -47 31 -50 35 -3 4 -18 12 -35 17
-16 6 -38 14 -47 18 -12 5 -18 3 -18 -6z"/>
<path d="M4800 8326 c-73 -15 -145 -46 -160 -69 -12 -19 -5 -39 8 -22 16 23
162 75 210 75 12 0 39 -9 60 -20 l37 -20 5 22 c5 19 0 25 -30 35 -41 15 -55
15 -130 -1z"/>
<path d="M5006 8322 c-2 -4 -1 -14 4 -22 7 -12 12 -12 22 -2 6 6 21 12 33 12
16 0 17 2 5 10 -18 12 -57 13 -64 2z"/>
<path d="M1290 8305 c12 -15 30 -12 30 6 0 5 -10 9 -21 9 -18 0 -19 -2 -9 -15z"/>
<path d="M1496 8311 c-27 -3 -51 -12 -54 -18 -3 -10 18 -13 84 -13 67 0 92 -4
105 -16 18 -16 17 -17 -2 -33 -19 -16 -19 -16 3 -48 20 -28 29 -33 64 -33 50
0 91 -28 81 -54 -6 -14 -14 -16 -39 -10 -18 4 -46 6 -63 6 -16 -1 -39 5 -50
12 -30 19 -104 40 -112 32 -4 -3 20 -34 53 -67 51 -52 63 -59 86 -53 23 5 28
2 28 -15 0 -11 -4 -23 -10 -26 -16 -10 -12 -21 21 -53 20 -19 44 -31 71 -35
48 -6 66 -26 41 -44 -23 -18 -44 -16 -103 7 -58 23 -60 23 -60 10 0 -5 16 -17
35 -26 19 -9 35 -21 35 -28 0 -25 21 -39 69 -47 28 -4 56 -12 63 -18 53 -44
177 -113 228 -126 20 -5 15 4 -27 43 -29 27 -53 52 -53 55 0 28 95 -21 165
-86 50 -47 215 -165 285 -206 73 -42 180 -89 215 -95 22 -4 81 -27 130 -50 58
-28 122 -50 180 -61 50 -10 104 -23 120 -31 17 -7 59 -25 95 -39 36 -15 69
-31 74 -36 6 -5 16 -9 24 -9 8 0 28 -6 45 -14 18 -7 50 -18 72 -25 41 -11 112
-53 151 -89 37 -35 60 -43 88 -30 66 29 9 75 -154 123 -87 26 -148 61 -260
150 -78 62 -172 163 -167 178 9 27 35 12 131 -80 56 -54 115 -108 131 -121 28
-23 106 -62 124 -62 10 0 49 -16 131 -53 25 -11 63 -33 84 -49 45 -32 45 -32
83 -16 15 6 48 19 73 28 25 9 46 24 48 33 5 23 -92 157 -113 157 -3 0 -27 15
-53 33 -59 41 -160 88 -232 109 -231 68 -297 81 -331 67 -32 -13 -111 -8 -116
7 -2 7 17 20 42 30 24 11 45 21 45 24 0 11 -58 59 -105 85 -192 108 -451 205
-547 205 -50 0 -180 31 -222 53 -64 32 -72 36 -163 72 -47 19 -94 35 -105 35
-24 0 -78 54 -101 102 -51 109 -49 106 -94 119 -33 9 -53 24 -80 58 -77 97
-75 95 -187 82z m481 -473 c114 -51 153 -72 153 -80 0 -5 4 -7 9 -4 5 3 20 -3
32 -15 l24 -20 -25 7 c-14 4 -34 13 -45 20 -11 8 -26 14 -33 14 -8 0 -30 7
-50 16 -21 9 -52 22 -70 30 -18 8 -39 14 -46 14 -7 0 -21 9 -31 20 -18 20 -17
20 8 20 15 0 48 -10 74 -22z m457 -157 c3 -4 37 -30 75 -55 69 -47 98 -73 90
-81 -3 -2 -36 5 -74 16 -39 10 -82 22 -97 25 -34 8 -36 20 -6 27 l22 6 -22 24
c-12 13 -22 29 -22 35 0 14 26 16 34 3z"/>
<path d="M1362 8274 c-9 -17 -7 -22 19 -31 16 -6 29 -7 29 -2 0 5 -5 9 -10 9
-6 0 -14 10 -19 22 -8 22 -8 22 -19 2z"/>
<path d="M5060 8260 c-24 -9 -46 -22 -48 -29 -5 -14 0 -14 34 4 16 8 37 15 47
15 27 0 21 -37 -10 -54 -17 -9 -22 -15 -12 -16 9 0 26 9 39 20 26 22 51 25 81
10 15 -9 19 -22 19 -65 0 -34 5 -55 13 -58 7 -2 12 -23 12 -57 0 -48 3 -55 34
-79 32 -24 33 -24 20 -4 -12 20 -11 26 4 52 23 40 21 51 -8 51 -31 0 -45 31
-45 98 0 61 -9 72 -59 79 -25 3 -41 11 -41 19 0 27 -33 33 -80 14z"/>
<path d="M4805 8255 c-68 -17 -114 -39 -150 -70 l-30 -27 30 19 c83 52 129 55
190 13 53 -36 70 -37 90 -6 21 32 7 60 -36 75 -18 6 -35 11 -38 10 -3 -1 -28
-7 -56 -14z"/>
<path d="M8486 8253 c-66 -4 -72 -6 -118 -48 -27 -24 -68 -53 -91 -64 -23 -11
-63 -29 -89 -41 -53 -24 -108 -71 -108 -92 0 -20 -69 -88 -89 -88 -6 0 -25 -6
-43 -14 -18 -8 -53 -22 -78 -31 -25 -9 -58 -23 -75 -31 -58 -26 -141 -52 -225
-69 -102 -21 -265 -74 -317 -103 -12 -7 -27 -12 -34 -12 -7 0 -72 -30 -146
-66 -89 -43 -149 -80 -178 -109 -55 -53 -113 -84 -179 -95 -117 -20 -208 -45
-281 -75 -60 -25 -81 -35 -140 -69 -33 -20 -75 -43 -92 -52 -18 -9 -33 -20
-33 -25 0 -5 -5 -9 -10 -9 -6 0 -36 -19 -67 -42 l-57 -41 134 -44 c114 -37
135 -41 142 -29 5 9 15 13 24 9 9 -3 19 0 23 6 6 9 17 8 45 -5 30 -15 43 -16
78 -7 55 15 75 7 52 -18 -9 -11 -25 -19 -35 -19 -10 0 -34 -9 -54 -20 -45 -25
-98 -25 -161 -1 -135 51 -269 80 -287 62 -15 -15 -24 -275 -10 -270 5 2 52 25
104 50 52 26 162 68 244 95 83 26 155 51 160 55 6 4 37 22 70 40 33 18 62 35
65 38 6 8 225 115 265 129 29 11 147 37 230 52 69 12 162 45 270 97 39 18 73
33 76 33 4 0 57 29 118 65 62 36 114 65 117 65 4 0 38 20 130 77 10 7 42 24
71 38 28 14 55 29 58 35 3 5 21 17 40 26 21 10 35 24 35 35 0 25 60 93 72 81
16 -16 0 -46 -33 -66 -17 -10 -28 -20 -26 -22 3 -3 25 9 51 26 40 28 46 36 46
67 0 25 -7 43 -26 59 -19 18 -24 30 -18 47 4 12 10 24 13 27 4 3 14 16 23 28
l16 24 17 -26 c20 -31 67 -35 104 -10 l23 16 -16 -30 c-9 -17 -13 -37 -10 -45
7 -19 -54 -57 -90 -57 l-27 0 31 -30 c35 -35 53 -36 128 -13 61 19 72 36 72
108 0 51 13 64 34 34 l15 -22 5 24 c3 13 7 40 11 60 7 44 18 54 66 63 21 4 67
29 104 56 l68 50 -36 0 c-46 0 -117 -28 -117 -45 0 -20 -63 -55 -98 -55 -31 0
-42 -14 -42 -55 0 -24 -58 -95 -78 -95 -14 0 -16 32 -3 46 5 5 7 21 4 36 -4
23 -8 25 -34 18 -39 -11 -38 5 3 42 28 25 82 48 115 48 25 0 94 33 84 39 -12
8 -136 -9 -219 -30 -39 -9 -55 -10 -64 -1 -9 9 -1 16 33 31 24 12 49 21 55 21
7 0 15 7 18 16 4 11 13 14 30 10 36 -9 55 2 77 45 19 39 33 48 44 29 10 -15
35 -11 95 15 46 20 50 24 25 23 -16 -1 -61 -4 -99 -5z m-436 -453 c0 -20 -27
-40 -54 -40 -19 0 -21 31 -4 48 20 20 58 15 58 -8z m-317 -24 c8 -21 -16 -39
-31 -24 -7 7 -12 18 -12 25 0 18 36 17 43 -1z m327 -25 c0 -11 -61 -71 -72
-71 -23 0 -17 27 11 52 31 28 61 37 61 19z m-410 -44 c0 -24 -161 -110 -177
-94 -10 11 33 46 92 76 66 33 85 37 85 18z m-30 -85 c0 -10 -12 -16 -119 -61
-73 -31 -111 -39 -111 -23 0 10 57 39 135 68 64 24 95 29 95 16z m-660 -172
c-13 -24 -70 -29 -70 -6 0 15 18 23 58 25 20 1 21 -2 12 -19z m-100 -145 c0
-34 -61 -92 -104 -101 -19 -3 -55 -21 -82 -40 -26 -19 -51 -34 -55 -34 -4 0
-46 -22 -94 -50 -82 -47 -115 -60 -115 -42 1 21 46 52 160 108 47 24 114 67
157 104 7 5 17 10 23 10 5 0 10 4 10 9 0 5 16 16 35 25 19 9 37 21 40 26 11
19 25 10 25 -15z"/>
<path d="M1473 8215 c-7 -19 12 -35 40 -35 13 0 18 6 15 23 -4 27 -45 37 -55
12z"/>
<path d="M8643 8188 c-48 -29 -40 -38 16 -20 37 13 47 20 39 30 -13 15 -16 15
-55 -10z"/>
<path d="M8518 8183 c-14 -2 -32 -11 -38 -19 -10 -11 -8 -14 13 -14 14 0 32 6
39 14 8 8 23 16 34 19 18 4 18 5 -1 4 -11 0 -32 -2 -47 -4z"/>
<path d="M1285 8170 c-13 -20 25 -47 81 -59 55 -10 74 -8 74 8 0 8 -11 13 -85
38 -16 6 -37 14 -46 17 -10 4 -20 2 -24 -4z"/>
<path d="M4725 8155 c-14 -13 -25 -34 -25 -46 l0 -23 22 25 c12 13 30 34 41
47 18 20 19 22 3 22 -9 0 -28 -11 -41 -25z"/>
<path d="M5132 8150 c-15 -34 -35 -37 -105 -18 -39 10 -48 9 -78 -9 -34 -21
-34 -21 -69 -3 -70 38 -105 16 -125 -78 l-13 -63 147 6 c80 4 160 10 178 15
17 4 34 6 37 3 8 -9 -36 -39 -67 -47 -25 -6 -28 -11 -25 -39 3 -31 5 -32 43
-30 94 5 186 5 191 0 19 -19 -77 -132 -122 -143 -25 -6 -26 -8 -10 -20 12 -8
14 -14 6 -19 -13 -8 -59 22 -71 46 -4 7 -17 35 -29 61 -13 28 -30 50 -43 54
-22 7 -46 32 -47 48 0 4 11 6 24 4 18 -4 26 0 29 13 3 11 -1 19 -12 21 -29 6
-61 -4 -61 -19 0 -12 -6 -13 -22 -7 -13 4 -54 6 -93 5 -65 -2 -73 -4 -104 -36
-28 -27 -36 -45 -42 -92 -11 -77 -5 -104 31 -128 32 -22 41 -62 15 -71 -11 -5
-15 -23 -15 -73 0 -74 16 -109 44 -98 14 6 16 16 11 59 -4 29 -12 64 -18 77
-10 21 -8 26 23 54 28 25 35 28 38 15 2 -11 15 -18 35 -20 38 -4 38 -19 0 -32
-33 -11 -43 -23 -43 -55 0 -20 3 -22 12 -13 19 19 28 14 28 -13 l0 -25 43 23
c31 16 64 23 125 26 88 3 112 -5 112 -41 0 -17 -4 -19 -22 -13 -45 14 -88 17
-88 6 0 -6 5 -11 11 -11 22 0 79 -33 79 -45 0 -28 -25 -35 -55 -14 -23 15 -45
19 -97 18 -60 -2 -68 -4 -68 -21 0 -11 8 -33 18 -50 15 -26 21 -29 47 -22 36
8 61 8 96 -1 21 -5 33 1 72 40 26 26 53 45 60 42 16 -5 36 22 37 51 0 18 6 22
32 22 l31 0 -23 25 c-23 24 -23 25 -5 45 18 20 18 20 -8 20 -14 0 -29 -5 -33
-12 -11 -18 -34 21 -34 59 0 34 13 44 24 18 7 -18 54 -38 73 -31 11 4 11 9 1
25 -9 15 -8 24 6 47 17 24 17 33 6 81 -13 50 -12 55 8 76 12 13 22 30 22 38 0
18 -42 56 -76 69 -28 11 -30 29 -8 72 15 29 15 31 -11 58 -17 18 -23 30 -16
34 6 4 11 20 11 37 0 40 -31 39 -48 -1z m45 -213 c-2 -7 -22 -13 -45 -15 -33
-2 -41 0 -36 11 13 34 93 38 81 4z m-322 -38 c65 -8 91 -29 79 -64 -4 -11 -8
-48 -10 -82 -1 -34 -8 -71 -14 -83 -6 -11 -8 -25 -5 -30 8 -13 72 -13 81 1 3
6 17 8 29 5 18 -5 25 -1 30 14 9 28 23 25 31 -7 4 -15 18 -36 31 -46 13 -10
23 -25 23 -33 0 -19 -46 -18 -54 1 -8 21 -96 21 -96 1 0 -24 -19 -29 -45 -12
-13 9 -34 15 -46 13 -19 -2 -24 5 -31 37 -6 30 -5 43 7 56 9 10 15 36 15 69
l0 52 -37 -30 c-21 -17 -47 -31 -58 -31 -26 0 -85 53 -85 77 0 11 -6 25 -12
32 -11 10 -8 16 12 31 14 11 30 20 36 20 7 0 15 7 18 16 4 11 12 14 24 9 9 -5
44 -11 77 -16z m145 -107 c0 -33 -16 -18 -26 23 -7 27 -6 29 9 16 10 -7 17
-25 17 -39z m10 -102 c0 -16 -5 -30 -10 -30 -14 0 -24 26 -16 45 10 26 26 16
26 -15z"/>
<path d="M4786 7831 c-7 -11 22 -23 35 -15 5 3 7 10 4 15 -8 12 -32 12 -39 0z"/>
<path d="M5290 8125 c0 -14 4 -25 9 -25 5 0 16 -3 25 -6 19 -7 22 26 4 44 -20
20 -38 14 -38 -13z"/>
<path d="M4543 8123 c-7 -2 -13 -12 -13 -20 0 -11 6 -13 23 -8 12 4 37 9 55
12 51 8 48 23 -5 22 -26 0 -54 -3 -60 -6z"/>
<path d="M1240 8114 c0 -5 -20 -31 -45 -57 -25 -27 -45 -52 -45 -57 0 -4 -7
-10 -15 -14 -8 -3 -15 -10 -15 -16 0 -5 -8 -18 -17 -28 -33 -35 -53 -62 -53
-72 0 -6 -5 -10 -10 -10 -6 0 -14 -8 -17 -17 -4 -9 -15 -26 -25 -37 -38 -44
-48 -56 -48 -60 0 -5 -68 -106 -84 -126 -7 -8 -22 -31 -32 -50 -10 -19 -22
-39 -27 -45 -21 -29 -58 -88 -97 -160 -25 -44 -52 -93 -62 -110 -19 -34 -153
-305 -172 -350 -7 -16 -22 -50 -33 -75 -12 -25 -28 -65 -38 -90 -9 -25 -22
-56 -27 -70 -5 -14 -22 -63 -38 -110 -15 -47 -32 -96 -37 -110 -13 -32 -41
-131 -92 -320 -33 -125 -65 -304 -102 -558 -39 -276 -36 -897 6 -1172 41 -270
60 -372 97 -510 55 -208 74 -277 98 -345 10 -27 27 -77 38 -110 11 -33 30 -85
42 -115 12 -30 25 -66 29 -80 5 -14 23 -56 41 -95 18 -38 39 -86 48 -105 8
-19 20 -44 25 -55 6 -11 29 -56 50 -100 22 -44 48 -92 58 -107 11 -14 19 -31
19 -38 0 -7 14 -32 30 -57 17 -24 30 -46 30 -49 0 -3 16 -30 35 -60 19 -30 35
-56 35 -58 0 -4 33 -54 120 -180 22 -32 40 -60 40 -62 0 -5 202 -267 215 -279
6 -5 31 -35 56 -65 24 -30 63 -74 86 -97 24 -23 43 -44 43 -47 0 -7 270 -276
277 -276 4 0 18 -13 32 -29 14 -15 55 -52 91 -82 59 -49 62 -50 36 -17 -26 35
-27 38 -11 62 22 34 45 33 158 -4 139 -45 145 -47 242 -70 54 -13 139 -24 211
-27 l121 -6 53 64 c29 35 56 66 60 69 12 8 80 146 80 162 0 8 7 23 15 34 8 10
15 26 15 35 0 8 9 34 20 57 11 22 20 48 20 56 0 9 6 30 14 48 7 18 21 60 31
93 9 33 25 83 36 110 10 28 19 56 19 63 0 7 4 20 9 30 5 9 31 61 57 115 69
139 76 152 86 155 4 2 8 8 8 14 0 9 42 69 68 96 6 8 17 23 23 35 12 21 127
176 158 212 41 48 179 233 197 264 10 19 26 42 34 50 31 32 108 137 124 170
10 18 21 72 26 120 8 87 35 201 71 301 11 30 24 69 29 85 4 17 13 44 18 60 22
65 36 111 43 145 15 68 100 276 119 290 4 3 17 25 31 50 13 25 29 51 36 57 6
7 21 29 33 49 13 19 36 50 52 67 16 18 31 43 34 57 3 14 9 41 14 61 6 20 10
44 10 54 0 9 8 29 19 43 10 15 21 53 25 85 12 109 40 197 77 242 12 15 18 49
22 125 5 102 14 156 43 271 15 61 19 140 6 155 -16 19 -80 200 -105 299 -21
81 -47 207 -47 223 0 12 -31 86 -52 126 -27 50 -79 156 -87 179 -7 17 -30 34
-73 55 -60 28 -71 29 -238 35 -100 3 -205 12 -245 21 -201 44 -491 61 -560 32
-27 -12 -84 -14 -277 -12 -238 3 -367 14 -478 43 -142 37 -173 42 -296 52
-113 9 -140 8 -185 -5 -71 -21 -151 -19 -224 6 -86 30 -134 39 -268 49 -120 9
-140 17 -134 51 1 8 13 20 27 27 24 12 22 13 -23 13 -49 0 -94 17 -116 44 -10
12 -8 19 9 36 l22 22 -21 14 c-30 22 -29 81 2 93 114 43 132 45 251 29 10 -2
21 2 23 9 3 7 -10 14 -34 18 -53 8 -107 36 -111 58 -2 10 5 28 15 39 17 19 27
20 128 15 78 -3 127 -11 170 -26 33 -12 79 -26 103 -31 54 -12 128 -37 161
-55 81 -43 272 -60 661 -56 372 4 506 -7 576 -44 25 -13 65 -27 89 -31 54 -8
196 11 288 38 46 14 86 19 122 16 39 -3 52 -1 48 8 -5 13 -105 54 -134 54 -10
0 -40 10 -66 22 -27 11 -63 27 -80 35 -73 31 -109 46 -126 55 -10 5 -48 12
-85 15 -51 5 -87 16 -152 50 -47 23 -105 47 -130 52 -67 13 -135 41 -225 90
-70 39 -101 59 -152 101 -7 6 -15 10 -18 10 -7 0 -76 50 -85 61 -3 4 -39 14
-80 24 -88 21 -173 58 -250 110 -32 22 -74 40 -100 44 -25 4 -60 15 -78 24
-17 9 -45 24 -62 33 -16 8 -30 20 -30 25 0 5 -7 9 -15 9 -8 0 -15 4 -15 10 0
12 -82 60 -103 60 -27 0 -139 71 -184 118 -46 47 -52 66 -28 92 14 15 13 19
-5 35 -11 10 -20 14 -20 9z"/>
<path d="M8703 8070 c-35 -16 -63 -34 -63 -41 0 -8 6 -6 18 4 10 10 24 17 32
17 18 0 39 -31 40 -59 0 -39 -103 -130 -207 -182 -48 -24 -104 -60 -123 -80
-33 -35 -41 -38 -139 -52 -72 -11 -107 -21 -113 -31 -5 -9 -16 -16 -23 -16 -8
0 -15 -4 -15 -8 0 -5 -17 -14 -38 -20 -21 -7 -58 -23 -83 -36 -24 -14 -59 -33
-76 -42 -18 -9 -33 -20 -33 -25 0 -5 -11 -9 -25 -9 -13 0 -28 -6 -32 -12 -4
-7 -24 -21 -43 -32 -19 -10 -57 -33 -85 -50 -27 -18 -66 -39 -85 -48 -19 -9
-114 -54 -210 -100 -210 -102 -256 -118 -336 -118 -69 0 -149 -23 -239 -68
-33 -17 -84 -41 -112 -54 -29 -12 -53 -26 -53 -30 0 -5 -6 -8 -14 -8 -7 0 -18
-6 -24 -12 -8 -10 4 -13 56 -14 75 0 195 -17 259 -36 36 -10 50 -9 90 4 83 28
355 42 528 28 83 -7 260 -14 395 -14 239 -1 246 0 277 22 17 12 36 22 41 22 6
0 12 4 14 8 2 4 23 18 48 31 39 20 69 25 228 34 220 13 332 2 370 -36 19 -20
21 -28 13 -50 -10 -26 -9 -27 23 -27 18 0 39 -7 46 -15 18 -22 3 -74 -26 -87
-13 -6 -24 -19 -24 -28 0 -36 -56 -61 -200 -89 -43 -8 -42 -9 31 -10 75 -1 99
-11 99 -39 0 -21 -39 -52 -65 -52 -12 0 -42 -7 -66 -16 -34 -12 -130 -19 -434
-29 -517 -18 -518 -18 -705 -72 -68 -20 -225 -42 -302 -43 -76 0 -206 19 -240
36 -59 30 -168 44 -341 44 -184 0 -279 -10 -340 -37 -34 -15 -50 -15 -160 -4
-212 23 -226 24 -249 18 -32 -9 -118 -94 -118 -117 0 -6 -4 -10 -8 -10 -10 0
-72 -161 -92 -235 -4 -16 -12 -41 -18 -55 -5 -14 -20 -59 -32 -100 -12 -41
-26 -88 -32 -105 -5 -16 -14 -46 -18 -65 -22 -90 -34 -128 -53 -169 -18 -40
-19 -56 -13 -174 7 -118 10 -133 33 -163 22 -29 24 -41 20 -96 -2 -35 -12 -90
-21 -123 -24 -80 -11 -206 23 -235 34 -28 88 -219 106 -370 4 -30 21 -86 39
-125 18 -38 43 -91 55 -117 12 -27 27 -48 32 -48 5 0 9 -7 9 -15 0 -8 4 -15 8
-15 5 0 20 -24 35 -52 51 -104 87 -185 87 -196 0 -7 4 -12 9 -12 14 0 24 -30
31 -100 7 -58 22 -112 49 -175 50 -115 54 -132 62 -280 5 -82 13 -166 18 -185
21 -76 40 -127 65 -170 52 -92 96 -223 96 -288 0 -13 13 -49 29 -80 16 -31 34
-76 40 -100 7 -23 16 -42 21 -42 6 0 10 -6 10 -13 0 -8 9 -22 20 -32 11 -10
20 -21 20 -26 0 -7 56 -93 87 -133 29 -37 143 -275 143 -299 0 -7 4 -17 9 -22
6 -6 14 -28 20 -50 10 -42 22 -78 52 -159 11 -27 19 -56 19 -65 0 -10 5 -22
11 -28 6 -6 15 -29 20 -50 20 -92 36 -136 97 -263 119 -245 158 -272 361 -251
132 13 208 30 336 73 132 43 160 49 189 38 14 -5 28 -20 32 -34 5 -21 -4 -34
-53 -82 -32 -32 -47 -50 -33 -40 14 9 33 19 43 23 9 3 17 9 17 13 0 4 15 17
34 28 18 11 96 68 172 128 128 99 164 128 215 176 11 10 21 18 23 18 3 0 27
21 54 47 235 228 238 231 407 417 19 20 84 100 110 134 6 7 17 21 26 30 34 37
109 141 109 151 0 6 4 11 9 11 5 0 18 15 29 33 11 17 39 58 61 90 23 31 41 62
41 67 0 6 4 10 8 10 5 0 14 10 21 23 14 25 26 46 62 102 23 36 80 137 127 227
9 18 19 35 22 38 7 6 79 153 115 235 15 33 35 78 45 100 17 37 41 96 76 185
21 55 75 212 84 245 5 17 13 44 19 60 5 17 17 59 27 95 9 36 25 94 35 130 33
120 70 321 98 525 54 395 54 853 1 1210 -11 72 -20 141 -20 154 0 13 -7 55
-15 95 -9 39 -23 105 -31 146 -9 41 -24 107 -34 145 -10 39 -26 99 -35 135
-10 36 -22 77 -27 92 -5 14 -13 41 -18 60 -4 18 -20 65 -34 103 -15 39 -36 97
-47 130 -23 67 -23 68 -99 240 -48 110 -218 444 -231 455 -3 3 -13 19 -22 35
-8 17 -23 45 -32 63 -10 17 -21 32 -26 32 -5 0 -9 5 -9 11 0 6 -13 31 -30 56
-16 24 -30 47 -30 50 0 4 -18 28 -60 80 -6 7 -10 17 -10 23 0 5 -3 10 -8 10
-4 0 -16 16 -26 35 -11 19 -23 35 -28 35 -4 0 -8 6 -8 14 0 8 -7 16 -15 20 -8
3 -15 12 -15 21 0 8 -4 15 -9 15 -4 0 -21 19 -36 43 -16 23 -34 46 -42 50 -7
4 -13 12 -13 17 0 4 -15 26 -34 47 -19 21 -43 48 -53 60 l-18 22 -62 -29z"/>
<path d="M4584 8060 l-39 -18 30 -1 c37 -1 75 9 75 19 0 17 -29 17 -66 0z"/>
<path d="M4371 8034 c-22 -37 -28 -74 -11 -74 5 0 16 13 25 30 8 16 27 33 40
36 30 7 31 12 8 30 -28 21 -39 17 -62 -22z"/>
<path d="M1438 8044 c12 -8 27 -12 33 -8 14 8 -8 24 -36 24 -18 0 -18 -1 3
-16z"/>
<path d="M5352 8015 c-19 -41 -14 -53 28 -75 32 -17 40 -26 40 -49 0 -15 5
-43 11 -60 10 -27 15 -31 33 -26 11 4 45 9 74 12 35 4 52 10 52 19 0 10 -13
14 -44 14 -64 0 -76 7 -76 45 0 19 5 37 10 40 15 9 12 20 -11 46 l-21 24 6
-24 c3 -14 0 -31 -6 -38 -16 -19 -38 2 -38 37 0 23 -26 60 -42 60 -2 0 -10
-11 -16 -25z"/>
<path d="M1330 8012 c0 -11 50 -56 70 -64 8 -3 32 -13 53 -22 32 -14 37 -14
37 -2 0 21 -38 54 -71 61 -15 4 -33 13 -40 21 -12 15 -49 19 -49 6z"/>
<path d="M8567 7992 c-26 -14 -45 -27 -44 -29 6 -5 95 36 102 47 9 15 -5 10
-58 -18z"/>
<path d="M4570 8000 c-11 -7 -7 -10 18 -10 17 0 32 5 32 10 0 13 -30 13 -50 0z"/>
<path d="M8641 7966 c-6 -7 -24 -16 -39 -19 -51 -11 -92 -44 -92 -74 l1 -28
22 28 c13 15 30 27 40 27 9 0 36 18 58 40 23 22 37 40 31 40 -5 0 -15 -6 -21
-14z"/>
<path d="M1550 7927 c0 -21 8 -41 20 -52 19 -18 20 -17 20 1 0 11 5 25 11 31
18 18 1 53 -27 53 -21 0 -24 -5 -24 -33z"/>
<path d="M4457 7923 c-4 -3 -7 -13 -7 -22 1 -13 3 -13 11 2 11 19 8 33 -4 20z"/>
<path d="M4549 7919 c16 -6 28 -6 35 1 7 7 -1 10 -24 9 -33 0 -34 -1 -11 -10z"/>
<path d="M5310 7911 c0 -5 7 -12 16 -15 24 -9 28 -7 14 9 -14 17 -30 20 -30 6z"/>
<path d="M5510 7905 c0 -10 10 -15 33 -15 l32 0 -29 15 c-35 18 -36 18 -36 0z"/>
<path d="M4387 7903 c-4 -3 -7 -11 -7 -17 0 -6 5 -5 12 2 6 6 9 14 7 17 -3 3
-9 2 -12 -2z"/>
<path d="M4286 7868 c-12 -47 -6 -52 24 -23 36 35 38 45 6 45 -16 0 -26 -7
-30 -22z"/>
<path d="M4474 7842 c-9 -14 -17 -15 -50 -7 -41 11 -74 9 -74 -5 0 -4 8 -6 18
-3 11 2 36 -3 57 -11 47 -20 44 -21 56 10 11 32 8 40 -7 16z"/>
<path d="M5370 7810 c0 -50 13 -70 45 -70 35 0 37 12 5 31 -17 11 -30 27 -30
36 0 10 -5 25 -10 33 -7 11 -10 3 -10 -30z"/>
<path d="M4505 7770 c-3 -5 -1 -10 4 -10 6 0 11 5 11 10 0 6 -2 10 -4 10 -3 0
-8 -4 -11 -10z"/>
<path d="M5493 7763 c-16 -6 -17 -33 -2 -33 17 0 49 20 49 30 0 10 -26 12 -47
3z"/>
<path d="M4399 7740 c-18 -15 -20 -19 -8 -20 9 0 24 9 34 20 23 26 4 26 -26 0z"/>
<path d="M4480 7704 c0 -14 3 -14 15 -4 8 7 15 14 15 16 0 2 -7 4 -15 4 -8 0
-15 -7 -15 -16z"/>
<path d="M5303 7673 c-35 -40 -38 -48 -24 -58 13 -8 63 60 59 80 -2 12 -11 6
-35 -22z"/>
<path d="M5377 7703 c-7 -6 37 -33 54 -33 5 0 9 9 9 20 0 15 -7 20 -28 20 -16
0 -32 -3 -35 -7z"/>
<path d="M5562 7680 c10 -16 10 -26 -1 -52 -22 -55 -25 -78 -10 -78 8 0 25 -9
39 -20 31 -24 53 -25 48 -2 -2 9 -18 22 -35 27 -46 15 -49 22 -25 55 27 36 28
66 3 80 -28 15 -33 12 -19 -10z"/>
<path d="M5483 7629 c-1 -56 0 -60 15 -46 21 21 22 100 2 104 -12 3 -16 -9
-17 -58z"/>
<path d="M4400 7645 c-10 -26 -4 -55 11 -55 5 0 9 18 9 40 0 46 -6 51 -20 15z"/>
<path d="M4523 7625 c0 -22 2 -30 4 -17 2 12 2 30 0 40 -3 9 -5 -1 -4 -23z"/>
<path d="M4570 7637 c0 -14 5 -29 10 -32 7 -4 8 3 4 22 -9 38 -14 42 -14 10z"/>
<path d="M5370 7638 c0 -7 8 -26 19 -41 15 -24 19 -26 25 -12 9 25 8 32 -10
49 -19 19 -34 21 -34 4z"/>
<path d="M4350 7588 c1 -33 27 -65 41 -51 9 9 6 20 -10 42 -27 37 -31 38 -31
9z"/>
<path d="M5323 7590 c-6 -15 -7 -26 -1 -29 15 -5 20 5 16 31 l-5 23 -10 -25z"/>
<path d="M4486 7546 c7 -18 52 -41 61 -32 9 8 -36 45 -54 46 -7 0 -10 -6 -7
-14z"/>
<path d="M4586 7533 c-4 -16 -9 -37 -13 -48 -3 -13 5 -7 21 14 29 39 33 61 12
61 -8 0 -17 -12 -20 -27z"/>
<path d="M5426 7528 c-19 -26 -5 -48 17 -29 16 13 56 1 89 -27 17 -15 48 -10
48 6 0 5 -14 12 -32 16 -17 3 -46 17 -64 31 -40 30 -39 30 -58 3z"/>
<path d="M4458 7464 c-10 -21 -9 -27 3 -35 8 -5 17 -9 20 -9 7 0 19 36 19 58
0 22 -30 13 -42 -14z"/>
<path d="M4890 7475 c-11 -13 -9 -15 13 -15 13 0 30 7 37 15 11 13 9 15 -13
15 -13 0 -30 -7 -37 -15z"/>
<path d="M5340 7476 c0 -9 4 -16 10 -16 15 0 25 -51 10 -60 -6 -4 -10 -18 -8
-31 4 -23 5 -23 13 -4 5 11 20 35 33 53 22 28 23 35 11 47 -8 7 -26 17 -41 20
-22 6 -28 4 -28 -9z"/>
<path d="M5457 7425 c-8 -46 -6 -49 28 -41 31 8 31 17 2 52 l-24 27 -6 -38z"/>
<path d="M4585 7400 c-4 -12 -5 -24 -2 -27 3 -2 8 5 12 17 4 12 5 24 2 27 -3
2 -8 -5 -12 -17z"/>
<path d="M4772 7404 c1 -9 9 -19 16 -22 9 -3 13 2 10 14 -1 9 -9 19 -16 22 -9
3 -13 -2 -10 -14z"/>
<path d="M4707 7383 c-13 -12 -7 -23 13 -23 11 0 20 7 20 15 0 15 -21 21 -33
8z"/>
<path d="M5503 7363 c-15 -5 -17 -23 -4 -23 5 0 11 7 15 15 3 8 4 15 3 14 -1
0 -8 -3 -14 -6z"/>
<path d="M5380 7304 c-44 -31 -49 -44 -17 -44 29 0 82 43 73 59 -10 15 -15 13
-56 -15z"/>
<path d="M4557 7294 c-4 -4 -7 -19 -6 -33 l0 -26 10 24 c10 26 8 47 -4 35z"/>
<path d="M4616 7268 c-5 -25 -2 -37 14 -53 l21 -20 -3 49 c-3 57 -22 72 -32
24z"/>
<path d="M4719 7293 c-5 -36 23 -105 58 -141 20 -21 15 -29 -16 -24 -16 2 -31
-1 -35 -6 -9 -15 28 -105 45 -111 12 -3 12 -2 1 11 -7 9 -17 30 -22 47 -7 27
-6 31 11 31 10 0 19 -4 19 -8 0 -18 72 -82 92 -82 19 0 20 4 14 42 -4 23 -10
45 -14 48 -21 15 -40 58 -31 71 16 25 10 37 -38 84 -43 40 -81 58 -84 38z"/>
<path d="M5495 7290 l-20 -9 20 0 c11 0 27 4 35 9 13 9 13 10 0 9 -8 0 -24 -4
-35 -9z"/>
<path d="M4420 7258 c0 -20 5 -40 10 -43 13 -8 13 45 0 65 -7 11 -10 6 -10
-22z"/>
<path d="M5227 7268 c-10 -5 -24 -7 -32 -4 -14 5 -25 -13 -25 -42 -1 -17 -33
-62 -44 -62 -3 0 -3 26 0 58 l6 57 -26 -30 c-14 -16 -25 -33 -26 -37 0 -14
-39 -18 -64 -7 -20 9 -29 9 -40 0 -9 -7 -24 -10 -36 -6 -19 6 -21 3 -18 -21 2
-23 9 -30 38 -35 19 -4 36 -13 38 -19 3 -7 10 -5 23 6 18 16 19 15 29 -10 5
-15 10 -42 10 -61 0 -21 6 -35 16 -39 32 -12 216 -6 269 9 54 16 92 46 81 64
-3 5 -35 26 -71 46 -63 35 -115 75 -115 89 0 4 9 10 21 14 19 8 19 8 2 24 -13
12 -23 14 -36 6z m-1 -93 c10 -25 22 -45 26 -45 4 0 14 -13 23 -30 13 -25 13
-30 1 -30 -7 0 -19 7 -26 15 -24 29 -42 18 -34 -20 8 -45 -9 -46 -47 -4 l-28
31 20 36 c10 20 19 46 19 58 0 21 8 34 20 34 4 0 15 -20 26 -45z"/>
<path d="M5897 7260 c-27 -5 -55 -14 -63 -21 -13 -11 -11 -14 13 -24 l28 -12
-35 -11 c-19 -6 -64 -16 -100 -22 -132 -22 -213 -45 -224 -63 -9 -14 -7 -20 7
-28 37 -21 9 -55 -37 -43 -22 5 -56 -20 -43 -32 7 -8 99 22 150 48 34 18 55
19 200 16 l162 -3 55 45 c31 25 69 54 84 65 55 38 81 63 74 70 -22 22 -177 30
-271 15z"/>
<path d="M3877 7249 c-27 -4 -52 -10 -55 -14 -3 -3 27 -37 66 -77 40 -39 72
-74 72 -79 0 -16 73 -22 119 -9 54 15 105 17 181 6 53 -7 57 -6 95 27 l39 34
-43 27 c-58 37 -153 66 -215 66 -29 0 -79 5 -112 10 -32 6 -68 12 -79 14 -11
2 -42 0 -68 -5z"/>
<path d="M5413 7245 c-3 -9 -3 -18 0 -21 9 -9 27 6 27 22 0 19 -19 18 -27 -1z"/>
<path d="M4480 7198 c0 -18 28 -58 41 -58 6 0 9 15 7 33 -2 24 -8 33 -25 35
-14 2 -23 -2 -23 -10z"/>
<path d="M4423 7164 c-8 -22 17 -64 38 -64 17 0 17 2 1 40 -18 43 -29 49 -39
24z"/>
<path d="M1190 7110 c-38 -6 -40 -7 -13 -8 18 -1 44 -7 58 -14 20 -9 34 -9 61
1 33 12 37 11 58 -12 27 -29 85 -44 111 -29 15 8 10 12 -26 30 -81 39 -149 48
-249 32z"/>
<path d="M4520 7070 c-19 -17 -38 -30 -43 -30 -4 0 -24 12 -42 26 -38 29 -55
25 -55 -12 0 -23 2 -24 73 -24 62 0 78 4 100 23 28 24 35 47 15 47 -7 -1 -29
-14 -48 -30z"/>
<path d="M4937 7083 c-4 -3 -7 -19 -7 -34 0 -22 6 -30 26 -35 28 -7 38 0 49
34 5 18 3 22 -17 22 -13 0 -29 5 -34 10 -6 6 -13 7 -17 3z"/>
<path d="M4623 7055 c-3 -9 -20 -22 -37 -30 -30 -13 -28 -13 47 -14 42 -1 77
1 77 3 0 3 -11 16 -24 30 -26 29 -54 34 -63 11z"/>
<path d="M1562 7015 c-10 -11 -37 -15 -111 -15 -76 0 -101 -3 -111 -15 -12
-14 -15 -14 -32 2 -14 13 -21 14 -30 5 -22 -22 7 -35 73 -33 39 1 70 -4 84
-13 12 -8 41 -20 66 -27 45 -13 69 -26 69 -39 0 -10 -48 -30 -73 -30 -19 0
-19 -2 8 -16 97 -53 127 -64 179 -64 61 0 66 6 66 97 0 77 -11 95 -79 131 -67
35 -90 39 -109 17z"/>
<path d="M4075 7009 c-27 -11 -58 -22 -67 -26 -10 -3 -18 -15 -18 -29 0 -29
55 -138 98 -191 17 -22 32 -45 32 -51 0 -5 6 -12 14 -15 8 -3 33 -45 57 -94
46 -95 59 -113 83 -113 9 0 27 -18 41 -40 14 -23 48 -64 75 -92 81 -84 63
-104 -34 -38 -33 22 -62 37 -65 34 -3 -3 18 -28 47 -54 146 -131 427 -114 572
35 30 31 36 44 40 98 4 54 8 62 25 62 11 1 25 4 31 8 18 11 65 -59 78 -116 7
-29 18 -62 25 -75 16 -29 101 -72 144 -72 19 0 58 -5 88 -10 85 -16 149 3 215
63 30 27 54 55 54 63 0 8 7 17 15 20 8 4 15 11 15 16 0 6 14 30 30 55 17 24
30 48 30 54 0 5 5 9 10 9 6 0 10 -33 10 -78 0 -75 9 -102 35 -102 5 0 19 37
29 83 11 45 26 92 34 105 16 25 6 28 -22 7 -21 -16 -56 -20 -56 -7 0 12 41 46
123 101 l77 53 0 100 c0 100 0 101 -20 83 -11 -10 -20 -22 -20 -28 0 -5 -13
-29 -30 -54 -16 -24 -30 -47 -30 -52 0 -14 -68 -81 -83 -81 -9 0 -26 -22 -39
-50 -27 -57 -48 -65 -48 -18 0 36 40 93 72 104 30 9 46 27 65 71 8 21 26 50
38 65 28 33 95 169 95 192 0 13 -14 16 -77 16 -125 0 -256 -19 -273 -39 -20
-23 -44 -134 -36 -166 4 -15 25 -46 48 -71 39 -43 40 -44 16 -44 -14 0 -37 9
-51 20 -14 11 -29 20 -34 20 -6 0 -23 13 -39 30 -16 16 -38 30 -49 30 -12 0
-26 5 -32 11 -8 8 -13 8 -17 0 -9 -13 -46 -15 -46 -2 0 12 29 41 41 41 5 0 15
11 21 25 14 32 26 32 34 -1 7 -29 21 -21 26 16 2 14 10 25 18 25 15 0 30 13
30 28 0 4 -55 7 -122 7 -68 0 -165 5 -217 10 -52 6 -96 8 -98 6 -3 -2 -5 -26
-6 -52 -2 -44 0 -49 23 -55 53 -13 70 -22 85 -46 19 -29 14 -39 -12 -25 -39
21 -135 25 -187 7 l-48 -17 -32 31 c-38 37 -75 40 -166 14 -43 -12 -64 -13
-71 -6 -8 8 2 17 36 32 26 12 53 21 60 21 36 0 62 81 29 94 -9 3 -79 6 -157 6
-126 0 -145 -3 -167 -20 -34 -27 -48 -25 -52 6 -3 31 -11 36 -89 58 -76 22
-191 19 -254 -5z m297 -74 c48 -19 68 -54 68 -114 l0 -50 25 25 c26 26 27 51
2 82 -5 7 -7 16 -3 19 20 20 78 -61 90 -127 7 -33 6 -34 -9 -15 -9 11 -20 26
-24 34 -5 8 -14 11 -20 7 -9 -6 -9 -11 -1 -21 17 -20 6 -31 -35 -33 -21 -2
-44 -10 -53 -18 -21 -22 -57 -34 -97 -34 -54 0 -51 19 8 45 30 13 62 34 71 47
37 52 6 113 -63 124 -22 4 -41 12 -41 19 0 29 29 33 82 10z m608 -256 c0 -57
-14 -84 -31 -58 -10 16 -12 123 -2 132 17 17 33 -19 33 -74z m-500 -26 c0 -16
-56 -18 -65 -3 -4 6 -1 17 5 25 9 11 17 11 36 3 13 -6 24 -17 24 -25z m-63
-76 c-7 -21 -32 -13 -35 11 -3 21 -1 22 18 12 12 -6 19 -17 17 -23z m725 -208
c4 -11 115 -59 139 -59 15 0 39 -18 39 -30 0 -9 -140 -5 -161 4 -18 8 -49 58
-49 80 0 18 26 22 32 5z m-617 -39 c-5 -25 -4 -29 9 -24 9 3 16 15 16 25 0 23
25 25 34 3 15 -38 -9 -84 -43 -84 -21 1 -61 34 -61 51 0 11 38 56 48 58 2 1 1
-12 -3 -29z m850 7 c-5 -19 0 -25 28 -35 18 -7 42 -12 53 -12 27 -1 -42 -30
-70 -30 -12 0 -27 5 -34 12 -18 18 -15 59 6 74 23 18 23 18 17 -9z"/>
<path d="M3808 6987 c-27 -12 -48 -27 -48 -34 0 -9 79 -67 113 -81 4 -2 7 28
7 67 0 81 -1 82 -72 48z"/>
<path d="M8680 6979 c126 -33 190 -32 190 1 0 22 -53 30 -199 29 l-106 0 115
-30z"/>
<path d="M8398 6980 c-26 -11 -67 -32 -90 -47 -24 -15 -52 -32 -63 -38 -27
-14 -31 -42 -7 -49 10 -4 25 -19 32 -34 26 -51 41 -62 84 -62 23 0 63 12 91
25 28 14 56 25 63 25 7 0 10 5 7 10 -9 15 -65 12 -81 -5 -24 -23 -54 -2 -54
38 l0 32 142 -3 143 -4 -21 24 c-12 13 -24 31 -27 40 -5 13 -21 18 -72 20 -74
3 -86 15 -35 34 l35 12 -50 1 c-27 0 -71 -9 -97 -19z"/>
<path d="M1091 6978 c-48 -13 -84 -39 -72 -51 14 -14 61 0 61 18 0 19 14 19
30 0 9 -11 29 -15 67 -14 29 1 53 5 53 8 -1 15 -18 29 -49 39 -39 14 -44 14
-90 0z"/>
<path d="M4860 6928 c1 -27 8 -38 41 -60 21 -16 47 -28 57 -28 31 0 62 29 61
58 0 15 -3 21 -6 15 -9 -25 -63 -15 -93 17 -38 40 -60 40 -60 -2z"/>
<path d="M1810 6819 l0 -131 27 7 c15 3 32 14 39 23 11 15 9 17 -12 20 -27 4
-32 27 -8 36 9 3 32 6 51 6 20 0 33 3 29 7 -3 4 -24 6 -45 5 -41 -3 -63 14
-40 29 8 5 30 8 49 7 34 -3 36 -1 52 46 10 27 16 51 14 53 -4 5 -115 23 -138
23 -16 0 -18 -13 -18 -131z"/>
<path d="M2004 6903 c3 -16 10 -66 16 -113 14 -101 23 -120 56 -120 14 0 55
-7 92 -15 289 -66 333 -72 438 -57 74 11 97 11 167 -4 137 -27 164 -2 152 146
-10 134 -18 155 -65 174 -35 14 -97 16 -451 16 l-411 0 6 -27z"/>
<path d="M3920 6865 c0 -52 4 -69 20 -85 11 -11 20 -24 20 -29 0 -5 7 -11 15
-15 8 -3 15 -10 15 -16 0 -6 23 -32 52 -58 28 -26 60 -56 72 -67 12 -11 29
-26 38 -34 16 -12 16 -11 2 15 -8 16 -24 43 -35 59 -10 17 -22 38 -25 48 -4 9
-9 17 -13 17 -4 0 -15 15 -26 33 -10 17 -21 34 -24 37 -3 3 -17 25 -30 50 -14
25 -27 47 -30 50 -4 3 -12 17 -18 33 -21 46 -33 31 -33 -38z"/>
<path d="M3670 6912 c0 -8 86 -42 108 -42 26 0 10 18 -31 34 -46 17 -77 21
-77 8z"/>
<path d="M3285 6903 c-50 -6 -245 -59 -290 -78 -11 -5 -23 -13 -27 -19 -11
-17 3 -128 20 -157 15 -26 15 -26 176 -33 346 -14 391 -15 341 -7 -169 25
-217 36 -278 58 -37 14 -78 34 -90 44 -12 11 -42 30 -67 42 -54 28 -60 53 -13
50 28 -3 131 -55 173 -89 17 -13 106 -29 220 -40 41 -4 104 -18 140 -31 132
-49 221 -74 252 -71 l33 3 0 110 0 109 -55 12 c-61 13 -113 32 -180 64 -66 33
-235 49 -355 33z"/>
<path d="M8789 6888 c-5 -9 -9 -19 -9 -21 0 -10 190 -6 196 4 12 20 -11 27
-94 31 -71 3 -85 1 -93 -14z"/>
<path d="M6595 6895 c-5 -1 -37 -8 -70 -15 -133 -28 -265 -83 -459 -189 -89
-49 -101 -67 -72 -106 11 -16 32 -20 122 -26 l109 -6 75 35 c168 78 205 88
217 56 8 -21 -13 -34 -54 -34 -40 0 -42 -11 -6 -27 19 -9 88 -13 226 -13 l200
0 32 34 c36 39 45 70 45 165 0 79 -8 86 -115 113 -60 15 -217 24 -250 13z"/>
<path d="M7155 6895 c-5 -1 -36 -9 -68 -16 -35 -7 -62 -19 -68 -30 -5 -10 -9
-76 -9 -147 0 -128 0 -129 26 -140 55 -26 183 -46 294 -46 108 -1 147 5 280
39 149 39 247 54 385 60 155 8 185 14 185 42 0 13 -8 15 -50 10 -52 -6 -79 8
-35 19 48 12 19 14 -69 4 -126 -15 -149 -4 -55 26 41 13 84 24 97 24 58 0 92
37 92 103 l0 27 -212 0 c-117 0 -274 7 -348 15 -116 13 -415 20 -445 10z m439
-137 c-6 -16 -108 -80 -140 -90 -21 -5 -22 -4 -14 12 15 28 14 29 -52 32 -69
3 -84 19 -41 42 37 20 255 23 247 4z m-333 -34 c10 -13 10 -17 -2 -25 -33 -21
-119 -2 -119 26 0 22 102 21 121 -1z"/>
<path d="M1068 6848 c-27 -6 -48 -14 -48 -19 0 -13 44 -11 75 3 19 9 28 9 37
0 13 -13 51 -16 61 -5 4 3 2 12 -4 20 -13 15 -52 15 -121 1z"/>
<path d="M8584 6810 c-15 -6 -23 -20 -27 -49 -3 -23 -15 -59 -26 -81 -36 -70
-23 -95 20 -39 13 17 31 59 40 92 18 67 42 87 53 43 5 -21 13 -26 36 -26 59 0
186 23 210 39 l24 16 -44 7 c-64 9 -261 8 -286 -2z"/>
<path d="M1379 6773 c-1 -16 -1 -32 0 -38 1 -5 -7 0 -18 13 -22 25 -31 26
-118 11 -72 -13 -75 -29 -5 -29 47 0 182 -22 257 -42 22 -6 70 -13 106 -15 54
-4 75 -1 108 16 22 12 41 25 41 29 0 4 -28 7 -63 7 -50 0 -75 7 -125 31 -51
26 -63 29 -73 18 -15 -19 -28 -18 -72 6 l-37 20 -1 -27z"/>
<path d="M8450 6720 c-24 -13 -55 -19 -101 -20 -59 0 -68 -3 -94 -30 -28 -29
-28 -30 -9 -45 12 -9 44 -14 91 -15 l72 0 51 50 c71 72 66 102 -10 60z"/>
<path d="M3937 6673 c-11 -11 -8 -76 6 -103 7 -14 20 -26 30 -28 24 -5 22 33
-3 92 -22 49 -23 50 -33 39z"/>
<path d="M8628 6659 c-10 -5 -18 -17 -18 -25 0 -12 8 -14 38 -9 222 35 241 44
102 44 -58 0 -113 -4 -122 -10z"/>
<path d="M4020 6610 c0 -18 35 -79 49 -85 29 -12 34 13 7 38 -14 13 -26 29
-26 35 0 5 -7 12 -15 16 -8 3 -15 1 -15 -4z"/>
<path d="M4125 6460 c20 -22 31 -20 22 5 -4 8 -14 15 -23 15 -16 0 -16 -2 1
-20z"/>
<path d="M4104 6420 c4 -14 10 -37 13 -52 3 -16 9 -28 13 -28 5 0 12 -9 15
-20 10 -33 25 -23 25 18 0 30 -7 44 -37 72 -34 33 -36 33 -29 10z"/>
<path d="M5000 6411 c0 -33 -49 -119 -71 -126 -11 -4 -19 -10 -19 -15 0 -18
-114 -78 -210 -110 -74 -25 -124 -23 -228 10 -88 28 -90 27 -98 -27 -9 -64
-12 -68 -36 -38 -15 19 -19 37 -17 77 3 43 0 54 -14 56 -13 3 -17 -4 -17 -27
0 -32 -23 -47 -54 -35 -9 3 -16 3 -16 -1 0 -12 31 -138 51 -206 10 -36 19 -73
19 -82 0 -9 6 -31 14 -49 7 -18 19 -51 26 -73 18 -58 51 -125 78 -159 20 -25
23 -36 17 -75 -3 -25 -15 -71 -25 -101 -27 -81 -50 -199 -50 -251 0 -47 20
-84 74 -134 14 -13 26 -29 26 -35 0 -15 -46 -12 -62 4 -8 7 -23 16 -35 20 -27
9 -51 -25 -82 -117 -22 -63 -23 -79 -17 -180 7 -110 6 -111 -13 -93 -51 46
-64 -16 -36 -174 12 -67 15 -179 15 -527 0 -267 4 -452 10 -468 9 -24 12 -25
34 -13 28 15 128 100 160 137 12 13 37 40 57 60 63 65 224 284 275 376 40 72
104 200 104 207 0 4 -20 13 -44 19 -46 11 -106 53 -106 74 0 7 -9 22 -20 35
-24 28 -25 34 -4 51 11 9 15 26 12 62 -3 54 9 69 36 42 15 -15 16 -13 16 23 0
24 7 49 19 63 l19 24 11 -28 c6 -16 11 -43 11 -62 0 -18 8 -43 19 -56 l18 -23
30 33 30 33 22 -28 c11 -14 21 -31 21 -35 0 -17 18 -9 23 11 3 12 22 27 44 35
21 9 49 22 63 29 22 12 29 11 55 -3 66 -36 89 -65 98 -121 3 -18 5 -14 6 12 1
41 18 53 42 31 15 -13 15 -20 4 -63 -7 -27 -28 -71 -46 -97 -32 -45 -34 -53
-32 -120 2 -72 29 -170 57 -203 19 -22 79 -150 74 -156 -7 -6 -58 61 -58 75 0
6 -4 11 -9 11 -5 0 -16 15 -26 33 -9 17 -24 46 -33 62 -9 17 -21 46 -28 65
l-13 35 -1 -54 c0 -30 -5 -69 -11 -86 -12 -33 -7 -54 51 -205 12 -30 26 -68
32 -83 12 -34 78 -160 87 -167 3 -3 13 -18 21 -33 8 -16 25 -40 37 -53 13 -14
23 -27 23 -30 0 -9 149 -159 153 -154 3 3 13 57 22 120 18 115 33 536 21 583
-3 13 -33 61 -66 107 -33 46 -60 87 -60 92 0 17 18 7 56 -32 53 -54 66 -52 59
8 -14 125 -25 371 -27 605 -1 141 -5 257 -9 257 -5 0 -13 -9 -19 -20 -19 -35
-33 -24 -27 21 5 40 5 41 -13 21 -10 -10 -28 -44 -40 -73 -46 -114 -80 -173
-138 -238 -48 -52 -55 -33 -17 44 18 39 43 91 54 118 46 103 63 137 72 137 5
0 9 6 9 13 0 7 9 21 21 30 14 13 18 22 11 30 -18 21 -1 61 35 90 20 15 43 27
52 27 14 -1 14 -2 -1 -14 -10 -7 -18 -18 -18 -25 0 -6 -4 -11 -9 -11 -7 0 -31
-51 -31 -65 0 -1 15 5 34 14 27 13 36 25 46 66 7 27 13 61 12 76 -1 28 -24
104 -41 136 -40 75 -54 191 -28 222 28 33 47 102 45 160 -3 53 -1 60 29 90 34
33 44 61 93 256 12 50 22 97 20 105 -1 8 -2 34 -3 57 -1 36 -4 40 -19 32 -10
-5 -18 -13 -18 -17 0 -4 -9 -13 -20 -20 -19 -12 -20 -11 -14 15 7 24 2 22 -44
-24 -41 -41 -59 -52 -95 -57 -54 -8 -138 1 -190 20 -20 8 -68 14 -106 14 -51
0 -73 4 -87 18 -27 24 -61 84 -73 130 -6 21 -17 46 -25 57 -15 20 -15 19 -16
-4z m50 -293 c18 -21 30 -41 28 -43 -2 -2 -17 3 -33 11 -26 13 -30 13 -38 -3
-6 -9 -21 -27 -34 -39 -27 -25 -29 -34 -8 -34 8 0 15 -4 15 -10 0 -19 28 -10
56 18 16 16 41 36 56 45 39 25 138 22 138 -4 0 -5 -22 -9 -49 -9 -43 0 -56 -5
-95 -37 -24 -21 -45 -42 -45 -46 -1 -5 -7 -23 -15 -40 -7 -18 -19 -47 -26 -64
-7 -18 -17 -33 -22 -33 -5 0 -6 -9 -3 -20 3 -11 2 -20 -3 -20 -6 0 -8 31 -5
80 l6 79 -35 33 c-20 18 -43 39 -53 47 -15 12 -13 15 22 31 58 26 79 86 48
140 -19 33 -18 39 3 33 10 -2 25 3 33 13 13 15 15 12 21 -35 4 -38 15 -64 38
-93z m111 32 c21 -12 26 -50 6 -50 -24 0 -51 26 -44 44 7 19 12 20 38 6z m233
-16 c9 -8 16 -25 16 -36 0 -16 4 -19 23 -14 61 19 132 24 146 11 11 -11 4 -16
-45 -30 -33 -10 -82 -28 -109 -41 -28 -13 -56 -24 -63 -24 -15 0 -16 25 0 50
10 15 9 22 -5 38 -24 26 -22 62 2 62 11 0 27 -7 35 -16z m-1076 -116 c7 -25 5
-34 -6 -36 -18 -5 -21 -1 -28 36 -9 45 22 45 34 0z m67 1 c8 -23 -7 -45 -24
-35 -6 4 -11 18 -11 32 0 30 26 32 35 3z m889 -25 c9 -8 14 -20 11 -24 -7 -12
-52 9 -59 26 -7 20 29 18 48 -2z m346 -77 c-23 -38 -48 -53 -63 -38 -7 7 4 23
34 50 50 44 60 40 29 -12z m-280 -17 c0 -38 4 -50 15 -50 11 0 15 -12 15 -50
0 -27 -4 -50 -8 -50 -5 0 -28 18 -51 39 -41 38 -47 61 -15 61 12 0 13 8 8 35
-7 42 0 65 21 65 11 0 15 -12 15 -50z m124 -6 c9 -26 13 -51 10 -56 -10 -17
-54 42 -54 73 0 45 26 35 44 -17z m-1106 4 c13 -13 17 -48 5 -48 -12 0 -43 33
-43 47 0 16 22 17 38 1z m260 -36 c25 -16 2 -42 -37 -42 -44 0 -66 13 -58 34
7 17 71 22 95 8z m880 -131 c5 -65 -47 -111 -126 -111 -39 0 -82 26 -82 49 0
14 37 15 45 1 8 -13 54 -13 94 1 28 10 31 15 31 53 0 24 3 46 7 50 15 15 28
-3 31 -43z m-600 -34 c11 -13 -5 -46 -39 -80 -27 -26 -42 -1 -22 37 29 58 42
67 61 43z m-252 -42 c-45 -40 -85 -45 -103 -15 -16 24 -7 30 61 40 81 12 83
11 42 -25z m134 -7 c-1 -32 -90 -82 -105 -59 -3 6 5 20 17 31 37 36 88 51 88
28z m724 -37 c3 -4 -3 -16 -14 -26 -19 -18 -20 -17 -20 8 0 26 22 38 34 18z
m-144 -86 c-12 -22 -11 -30 2 -58 17 -35 14 -79 -7 -110 -10 -14 -12 -8 -14
40 -2 70 -12 82 -42 54 -57 -53 -52 -8 7 64 33 40 50 53 57 46 7 -7 7 -18 -3
-36z m-350 10 c6 -17 20 -27 40 -32 38 -7 45 -18 25 -35 -9 -7 -30 -27 -47
-44 l-32 -32 -43 47 c-23 25 -42 50 -43 54 0 4 14 13 30 19 17 5 35 19 41 29
13 25 18 24 29 -6z m-337 -17 c-6 -27 -6 -40 3 -90 7 -40 -10 -54 -21 -18 -3
11 -16 25 -28 31 -12 6 -32 21 -45 32 l-23 21 58 22 c32 12 59 22 60 23 1 0
-1 -9 -4 -21z m328 -213 c6 -24 17 -50 25 -56 8 -6 14 -15 14 -20 0 -15 -37
-10 -54 6 -18 19 -26 19 -40 1 -17 -22 -56 -30 -56 -13 0 13 86 127 96 127 2
0 9 -20 15 -45z m359 -62 c0 -30 -7 -60 -20 -80 -11 -19 -19 -49 -19 -70 2
-54 -10 -93 -39 -130 -44 -59 -58 -33 -21 39 16 31 20 52 16 83 -5 36 -2 48
28 90 23 32 35 60 35 82 0 18 5 33 10 33 6 0 10 -21 10 -47z m-720 -45 c0 -35
5 -81 11 -103 6 -22 14 -69 19 -105 4 -36 11 -74 15 -85 6 -16 3 -15 -20 7
-23 22 -30 39 -37 94 -4 37 -12 72 -18 78 -20 20 -2 176 21 176 5 0 9 -28 9
-62z m370 -93 c0 -49 4 -66 16 -73 10 -5 14 -14 9 -21 -5 -9 -12 -8 -27 5 -16
15 -22 16 -39 6 -29 -19 -41 -5 -22 24 15 24 15 28 -1 55 -19 32 -15 46 18 59
42 17 46 13 46 -55z m-480 -64 c14 -15 29 -56 61 -166 6 -22 15 -44 20 -49 5
-6 9 -17 9 -25 0 -9 16 -41 35 -71 40 -62 44 -80 16 -73 -28 7 -83 71 -103
118 -35 85 -48 126 -48 151 0 31 -40 104 -57 104 -7 0 -13 2 -13 4 0 2 -3 11
-6 19 -12 33 53 24 86 -12z m775 -156 c0 -13 -8 -21 -24 -23 -31 -5 -45 18
-23 35 23 18 47 12 47 -12z m-65 -271 c0 -10 -14 -14 -48 -14 -27 0 -57 -6
-68 -15 -27 -20 -117 -19 -157 3 l-32 17 80 3 c44 1 89 6 100 11 46 22 125 18
125 -5z m75 -24 c3 -5 18 -10 33 -10 l27 0 -32 -21 c-18 -12 -33 -27 -33 -35
0 -23 -29 -28 -50 -9 -20 18 -25 41 -14 69 7 18 59 22 69 6z m-642 -45 c7 -18
-9 -29 -30 -21 -12 5 -13 9 -3 21 16 19 26 19 33 0z m833 -121 c10 -56 -10
-64 -36 -14 -25 49 -21 77 9 60 12 -6 23 -26 27 -46z m-870 -428 c-14 -30 -29
-56 -33 -58 -5 -1 -21 -22 -36 -44 -46 -67 -292 -334 -308 -334 -15 0 -10 19
11 40 11 11 20 22 20 24 0 5 45 57 103 118 77 81 227 275 227 294 0 3 8 16 18
29 16 21 17 22 20 4 2 -10 -8 -43 -22 -73z m-316 -434 c0 -19 -27 -62 -38 -62
-4 0 -14 4 -22 10 -12 7 -9 14 15 39 35 35 45 38 45 13z"/>
<path d="M9981 4658 c-8 -79 -17 -177 -21 -218 -8 -90 -26 -202 -46 -290 -8
-36 -14 -74 -14 -85 0 -11 -8 -51 -19 -90 -19 -69 -35 -135 -52 -205 -9 -42
-42 -151 -59 -200 -28 -77 -38 -107 -55 -160 -10 -30 -25 -73 -35 -95 -9 -22
-24 -60 -34 -85 -10 -25 -24 -60 -32 -77 -31 -73 -47 -109 -57 -128 -6 -11
-13 -27 -17 -35 -5 -8 -22 -43 -39 -78 -17 -34 -31 -69 -31 -77 0 -8 -4 -15
-8 -15 -5 0 -22 -26 -38 -57 -30 -62 -68 -128 -96 -171 -10 -15 -22 -36 -27
-47 -5 -11 -21 -37 -35 -58 -14 -21 -26 -40 -26 -42 0 -9 -190 -280 -217 -310
-10 -11 -40 -49 -67 -85 -27 -36 -56 -72 -65 -81 -9 -10 -32 -36 -51 -60 -95
-116 -354 -380 -480 -489 -41 -36 -84 -74 -95 -86 -11 -11 -28 -23 -38 -27 -9
-3 -17 -11 -17 -17 0 -5 -7 -10 -15 -10 -8 0 -15 -4 -15 -9 0 -9 -110 -95
-183 -144 -23 -15 -43 -32 -45 -37 -2 -6 -10 -10 -18 -10 -8 0 -14 -3 -14 -8
0 -4 -16 -16 -35 -26 -19 -11 -35 -23 -35 -28 0 -4 -4 -8 -10 -8 -5 0 -42 -22
-82 -48 -79 -53 -176 -112 -183 -112 -2 0 -24 -13 -48 -30 -24 -16 -55 -34
-68 -40 -13 -6 -51 -25 -84 -43 -33 -18 -69 -37 -80 -43 -21 -12 -109 -53
-215 -102 -66 -30 -144 -62 -215 -89 -22 -8 -56 -22 -75 -30 -70 -30 -311
-106 -537 -169 -58 -16 -61 -18 -52 -40 5 -15 5 -33 -2 -48 -20 -43 -68 -54
-294 -66 -185 -9 -218 -9 -280 6 -83 19 -61 19 -315 5 -113 -6 -257 -11 -320
-11 -80 -1 -123 -5 -140 -15 -34 -20 -73 -18 -123 4 -23 11 -77 22 -122 25
-328 24 -685 87 -995 176 -117 33 -364 113 -405 131 -22 9 -60 25 -85 34 -46
17 -86 34 -143 59 -17 8 -54 24 -82 36 -70 31 -322 157 -370 185 -22 13 -49
29 -60 34 -11 6 -27 15 -35 21 -15 9 -228 141 -264 163 -11 7 -29 20 -40 29
-11 10 -28 20 -38 24 -10 3 -18 10 -18 15 0 5 -4 9 -10 9 -5 0 -18 6 -27 14
-10 8 -64 49 -120 92 -57 42 -103 80 -103 85 0 5 -6 9 -14 9 -8 0 -16 7 -20
15 -3 8 -12 15 -20 15 -8 0 -16 4 -18 9 -1 4 -43 43 -92 86 -103 89 -344 329
-431 429 -33 38 -67 77 -76 86 -8 9 -18 24 -22 33 -3 9 -10 17 -15 17 -5 0
-31 30 -58 67 -27 37 -56 74 -64 83 -15 15 -48 60 -123 168 -87 124 -104 148
-110 162 -4 8 -16 29 -27 45 -11 17 -24 39 -30 50 -6 11 -19 34 -30 50 -11 17
-27 44 -36 60 -8 17 -33 62 -54 100 -21 39 -55 104 -75 145 -20 41 -41 83 -46
93 -14 27 -25 49 -41 87 -9 19 -22 51 -31 70 -31 69 -117 293 -117 306 0 7 -6
28 -14 46 -29 70 -71 203 -86 273 -5 22 -14 60 -20 85 -63 240 -100 453 -121
685 -6 72 -13 135 -14 140 -2 6 -4 -1046 -4 -2337 l-1 -2348 5000 0 5000 0 0
2400 c0 1320 -1 2400 -3 2400 -1 0 -9 -64 -16 -142z"/>
<path d="M5631 4690 c1 -52 4 -142 8 -200 5 -93 7 -102 17 -75 23 60 37 144
31 192 -10 79 -23 129 -40 154 -16 23 -17 20 -16 -71z"/>
<path d="M5086 4484 c-11 -28 -6 -71 9 -84 19 -15 19 -30 2 -30 -21 0 -44 31
-52 68 -4 18 -12 31 -18 29 -19 -6 -20 -53 -3 -86 20 -37 20 -41 1 -41 -8 0
-15 -9 -15 -20 0 -11 -7 -20 -15 -20 -22 0 -48 30 -75 86 l-24 49 -10 -27
c-12 -35 -34 -36 -42 -3 -8 31 -34 55 -34 30 0 -13 -6 -15 -30 -10 -26 6 -30
4 -30 -14 0 -13 -8 -21 -22 -24 -22 -3 -22 -4 -3 -12 11 -5 31 -22 45 -37 27
-31 40 -35 40 -13 0 20 30 19 47 -2 13 -16 14 -16 8 10 -7 33 1 34 30 3 12
-13 34 -29 50 -37 l28 -14 4 -150 c4 -119 8 -154 20 -167 23 -26 32 -22 49 19
12 29 14 45 6 73 -6 19 -10 77 -10 128 l0 92 44 11 c27 7 54 23 68 40 23 27
44 104 32 116 -3 4 -6 -4 -6 -16 0 -27 -17 -61 -30 -61 -6 0 -10 24 -10 53 0
52 -12 77 -36 77 -6 0 -15 -7 -18 -16z"/>
<path d="M4090 4399 c-79 -105 -100 -137 -100 -148 0 -5 -3 -11 -8 -13 -6 -3
-33 -68 -77 -188 -7 -19 -21 -62 -30 -95 -10 -33 -26 -87 -36 -120 -9 -33 -25
-87 -34 -120 -9 -33 -23 -73 -31 -88 -8 -16 -14 -34 -14 -41 0 -7 -9 -30 -19
-52 -10 -21 -26 -92 -34 -157 -9 -67 -22 -128 -31 -142 -9 -13 -16 -31 -16
-38 0 -8 -18 -33 -40 -56 -22 -22 -40 -49 -40 -58 0 -9 -6 -33 -12 -52 -21
-58 -49 -78 -62 -44 -5 13 -11 10 -31 -18 -13 -19 -29 -39 -35 -46 -5 -7 -10
-16 -10 -22 0 -5 -3 -11 -7 -13 -10 -4 -80 -98 -115 -153 -14 -22 -34 -49 -45
-60 -10 -11 -34 -40 -53 -65 -45 -58 -71 -89 -92 -112 -10 -10 -18 -22 -18
-26 0 -5 -9 -17 -20 -27 -20 -18 -28 -51 -10 -40 6 3 10 5 10 3 -1 -8 -29 -80
-54 -133 -51 -110 -56 -123 -56 -133 0 -5 -7 -15 -15 -22 -13 -10 -15 -9 -15
11 0 19 2 21 10 9 11 -18 12 -4 1 24 -6 16 -11 10 -25 -30 -17 -49 -22 -63
-50 -159 -8 -27 -33 -102 -56 -165 -23 -63 -45 -127 -50 -142 -5 -15 -15 -40
-23 -55 -8 -15 -29 -59 -47 -98 -32 -67 -77 -132 -128 -185 -24 -25 -25 -25
-206 -24 -141 0 -189 4 -217 16 -20 9 -56 19 -80 23 l-44 7 32 -24 c40 -28 37
-40 -10 -51 -20 -5 -37 -13 -37 -17 0 -9 36 -20 67 -20 16 0 25 -8 29 -24 10
-41 72 -76 135 -76 44 0 58 -5 78 -25 13 -14 35 -28 49 -32 14 -3 37 -12 51
-19 14 -8 31 -14 37 -14 6 0 34 -9 62 -21 36 -15 49 -25 46 -37 -5 -20 2 -31
40 -60 21 -16 42 -22 81 -22 55 0 71 10 93 63 18 42 27 137 14 137 -11 0 -17
-17 -24 -64 -5 -33 -23 -28 -42 11 l-18 37 37 30 c21 16 46 50 57 75 26 60 68
218 68 256 0 64 55 192 99 233 30 28 38 15 17 -27 -9 -16 -16 -36 -16 -44 0
-8 -8 -36 -19 -63 -19 -50 -51 -172 -51 -195 0 -7 16 4 35 25 19 21 35 42 35
47 0 5 4 9 8 9 5 0 23 19 40 43 17 23 45 58 61 77 37 42 38 44 76 95 17 22 33
42 38 43 4 2 7 9 7 15 0 6 6 18 14 26 7 9 25 36 38 61 14 25 34 61 46 80 19
33 124 241 143 285 18 40 49 138 45 142 -2 2 -21 -30 -42 -71 -21 -42 -41 -76
-46 -76 -14 0 -9 47 11 87 10 21 27 58 36 83 30 77 137 295 149 302 6 4 17 1
25 -7 12 -12 18 -12 43 1 15 8 28 18 28 22 0 4 22 23 48 42 62 45 119 109 128
144 l7 28 -52 -37 c-42 -28 -60 -35 -89 -33 -56 5 -54 31 5 53 57 21 123 80
123 111 0 12 7 28 16 35 14 11 18 10 30 -6 8 -10 14 -22 14 -27 0 -38 95 49
134 123 7 13 17 33 23 44 37 68 103 298 90 311 -3 3 -17 -7 -33 -21 -15 -14
-39 -28 -53 -32 -34 -8 -145 -67 -196 -103 -22 -16 -50 -29 -62 -30 -16 0 -31
-18 -62 -75 -23 -41 -41 -83 -41 -93 0 -13 -9 -21 -28 -25 -19 -4 -34 -17 -47
-41 -18 -33 -18 -36 -2 -54 34 -37 15 -82 -47 -110 l-29 -13 8 33 c4 18 10 63
14 99 3 36 13 73 21 82 18 20 26 30 64 82 17 22 32 42 35 45 4 3 13 18 21 34
21 42 84 106 103 106 20 0 87 39 87 51 0 5 6 9 13 9 14 0 51 74 61 120 7 35
31 64 44 56 7 -4 12 -31 12 -62 0 -30 4 -54 8 -54 11 0 92 60 92 68 5 83 5
849 1 897 l-6 68 -55 -74z m-546 -1470 c-1 -8 -9 -41 -18 -74 -9 -32 -16 -75
-16 -95 0 -37 -25 -84 -40 -75 -7 4 -4 156 5 200 9 44 73 85 69 44z m-84 -51
c0 -7 -5 -20 -10 -28 -12 -20 -33 0 -24 23 7 20 34 23 34 5z m210 -81 c0 -23
-16 -37 -48 -43 -27 -5 -32 -4 -32 12 0 11 14 26 33 35 33 17 47 16 47 -4z
m-294 -52 c9 -8 24 -15 35 -15 10 0 19 -4 19 -10 0 -14 -42 -50 -51 -44 -9 5
-39 63 -39 76 0 13 20 9 36 -7z m329 -5 c34 -13 25 -27 -28 -41 -23 -6 -59
-24 -79 -40 -52 -41 -70 -40 -45 3 26 46 64 73 124 88 1 0 14 -4 28 -10z
m-365 -94 c0 -7 -9 -25 -20 -39 -11 -14 -20 -30 -20 -36 0 -6 -4 -11 -9 -11
-4 0 -27 -39 -51 -87 -23 -49 -49 -99 -56 -113 -7 -14 -23 -55 -35 -90 -22
-66 -40 -100 -68 -133 -18 -22 -60 -92 -92 -157 -13 -25 -32 -52 -43 -60 -12
-8 -33 -28 -48 -44 -32 -35 -36 -22 -13 44 8 23 15 54 15 68 0 26 25 62 43 62
5 0 7 -14 5 -30 -6 -39 1 -31 47 55 20 39 44 77 51 86 8 8 14 18 14 22 0 3 13
27 30 53 16 26 35 63 41 83 13 40 70 163 80 171 3 3 18 31 32 63 28 62 63 107
85 107 6 0 12 -6 12 -14z m-110 -810 c0 -18 -51 -96 -62 -96 -4 0 -8 -6 -8
-12 0 -18 -42 -55 -74 -67 -21 -8 -26 -8 -26 4 0 8 9 20 20 27 11 7 20 19 20
26 0 7 7 15 15 18 8 4 15 10 15 16 0 12 80 98 92 98 4 0 8 -6 8 -14z m-586
-501 c-4 -9 0 -15 10 -15 9 0 16 -8 16 -19 0 -20 -49 -39 -70 -26 -14 9 -13
48 2 63 18 18 49 15 42 -3z m67 -88 c-12 -24 -21 -52 -21 -63 0 -28 -10 -36
-27 -23 -30 26 -9 104 35 132 35 21 39 7 13 -46z m-446 8 l50 -25 -55 5 c-47
5 -58 3 -73 -15 -10 -11 -22 -18 -27 -15 -11 7 -14 58 -3 68 13 14 59 6 108
-18z m155 -56 c0 -10 -7 -19 -15 -19 -15 0 -21 31 -9 43 11 10 24 -3 24 -24z
m261 -72 c-1 -4 -1 -21 -1 -38 0 -27 -2 -30 -15 -19 -15 13 -20 51 -8 64 8 8
25 3 24 -7z"/>
<path d="M5677 4319 l-37 -81 15 -80 c8 -44 15 -104 15 -134 0 -30 8 -70 17
-91 17 -36 87 -130 147 -198 15 -16 41 -51 58 -77 17 -27 35 -48 40 -48 4 0 8
-4 8 -9 0 -6 21 -46 47 -91 55 -93 61 -90 62 30 1 77 -20 226 -37 270 -5 14
-18 45 -27 70 -35 92 -85 178 -107 188 -5 2 -8 8 -8 14 0 11 -51 81 -62 86 -5
2 -8 10 -8 19 0 8 -6 27 -14 41 -7 15 -24 60 -36 100 -12 39 -25 72 -29 72 -4
0 -24 -36 -44 -81z"/>
<path d="M5095 4239 c-3 -9 -2 -26 4 -40 l9 -24 7 28 c8 31 -10 63 -20 36z"/>
<path d="M4912 4205 c0 -16 2 -22 5 -12 2 9 2 23 0 30 -3 6 -5 -1 -5 -18z"/>
<path d="M4878 4097 c-44 -84 -37 -124 25 -134 40 -6 43 -3 25 30 -6 12 -14
52 -17 90 l-6 67 -27 -53z"/>
<path d="M5095 4104 c4 -11 10 -44 14 -74 7 -55 7 -55 15 -19 9 42 -4 101 -24
107 -9 3 -11 0 -5 -14z"/>
<path d="M4773 3963 c-12 -27 -31 -58 -42 -70 -12 -12 -21 -25 -21 -28 0 -7
-96 -136 -134 -180 -35 -41 -168 -175 -174 -175 -2 0 -16 -11 -30 -24 -15 -13
-49 -44 -76 -68 l-48 -44 17 -54 c9 -30 20 -116 25 -190 6 -92 15 -154 29
-194 12 -33 21 -71 21 -85 0 -14 7 -39 15 -54 11 -22 12 -34 4 -49 -12 -23 -2
-40 11 -18 15 24 25 2 32 -73 3 -40 9 -93 13 -119 9 -59 -7 -64 -25 -8 -7 22
-19 45 -27 51 -7 7 -13 33 -14 63 l-1 51 -13 -45 c-31 -105 -38 -151 -42 -265
-3 -111 -3 -118 11 -88 10 21 13 50 9 91 -3 34 -3 68 1 77 10 28 36 -2 36 -42
0 -18 9 -51 20 -73 11 -22 20 -44 20 -51 0 -6 -9 -9 -20 -6 -15 4 -20 0 -20
-13 0 -11 5 -22 10 -25 18 -11 11 -31 -14 -43 -14 -6 -26 -21 -28 -33 -4 -30
-28 -36 -35 -10 -5 20 -6 21 -17 4 -39 -58 -76 -297 -76 -478 1 -108 20 -214
47 -260 11 -18 12 -16 13 18 0 20 4 37 9 37 19 0 29 -28 35 -102 7 -84 30
-212 44 -249 5 -13 18 -51 27 -84 10 -33 26 -76 35 -95 9 -19 25 -53 36 -75
10 -22 34 -59 52 -82 26 -35 34 -59 43 -120 6 -42 8 -103 4 -135 -5 -39 -3
-58 4 -58 6 0 11 8 11 19 0 27 26 46 34 25 10 -25 -4 -84 -20 -84 -17 0 -17
-10 -4 -46 7 -18 7 -31 1 -37 -14 -14 -41 10 -41 34 0 33 -17 21 -24 -16 -9
-47 0 -74 30 -85 18 -7 24 -17 24 -40 0 -20 5 -30 15 -30 19 0 19 20 -1 48
-16 23 -13 52 6 52 21 0 50 -41 50 -70 0 -20 5 -30 15 -30 18 0 20 42 3 70
-22 34 2 45 54 26 31 -12 51 -14 68 -8 27 10 85 -2 95 -18 14 -23 25 -6 25 40
0 37 -8 64 -30 103 -19 35 -30 68 -30 94 0 29 -8 51 -33 84 -47 63 -73 130
-91 239 -67 410 -63 378 -41 360 17 -14 18 -13 11 10 -17 55 -22 139 -13 210
11 82 10 126 -3 275 -13 151 -31 266 -47 307 -14 33 -14 41 1 78 21 53 20 56
-9 85 -33 33 -42 31 -49 -11 -12 -61 -55 -55 -56 8 0 31 -19 78 -32 78 -4 0
-8 8 -8 18 0 9 -7 26 -15 36 -18 24 -19 68 -3 84 19 19 48 -15 48 -58 0 -44
27 -73 87 -90 53 -16 69 -10 88 36 19 46 19 47 -5 34 -33 -18 -25 21 20 95 22
36 40 72 40 80 0 8 -13 34 -30 57 -24 33 -30 51 -30 94 0 89 51 72 60 -20 4
-36 9 -51 20 -51 11 0 16 14 18 54 2 30 10 64 18 75 19 28 19 301 -1 411 -14
76 -14 81 5 95 11 8 26 40 34 70 8 30 21 75 29 100 46 143 116 493 104 524 -4
11 -19 16 -44 16 -47 1 -71 18 -79 59 -4 17 -9 31 -13 31 -3 0 -16 -21 -28
-47z m-43 -839 c0 -8 -5 -35 -11 -60 -10 -37 -19 -49 -54 -69 -23 -14 -48 -36
-55 -50 -7 -14 -17 -25 -22 -25 -4 0 -8 -4 -8 -9 0 -6 -21 -40 -46 -77 -41
-61 -45 -71 -40 -108 17 -107 17 -133 6 -182 -16 -64 -9 -94 31 -131 39 -36
50 -56 39 -73 -7 -11 -22 -1 -66 44 l-57 58 6 118 c4 73 3 129 -4 148 -11 33
4 112 21 112 6 0 10 5 10 11 0 10 13 29 60 86 6 7 10 15 10 19 0 10 82 84 92
84 4 0 8 7 8 15 0 8 4 15 9 15 5 0 13 10 16 23 16 52 55 89 55 51z m-350
-1029 c20 -91 21 -112 11 -162 -6 -32 -18 -93 -26 -135 -10 -52 -15 -140 -15
-270 0 -199 8 -267 51 -407 20 -66 19 -77 -4 -68 -16 6 -36 60 -63 167 -17 65
-19 114 -19 376 0 286 1 303 20 324 24 27 25 129 0 166 -8 13 -15 32 -15 43 0
27 18 71 28 71 5 0 19 -47 32 -105z m-110 -118 c0 -13 -5 -48 -11 -78 -9 -46
-7 -76 10 -178 22 -129 27 -211 13 -211 -13 0 -32 47 -32 79 0 15 -7 52 -17
82 -24 81 -24 234 2 287 22 47 35 53 35 19z m450 -1402 c16 -29 30 -33 30 -7
1 15 2 15 15 -2 29 -38 -29 -64 -67 -29 -18 16 -24 44 -11 56 11 12 19 8 33
-18z m-44 -82 c-3 -3 -12 -3 -21 0 -10 4 -15 19 -15 44 l1 38 20 -38 c11 -22
18 -41 15 -44z"/>
<path d="M4986 3889 c-3 -17 -6 -63 -6 -101 0 -39 -6 -84 -13 -101 -47 -109
-52 -139 -52 -302 1 -122 6 -180 20 -245 17 -72 20 -123 20 -335 0 -245 1
-251 26 -320 15 -38 32 -101 39 -140 7 -38 17 -77 21 -85 36 -65 52 -156 27
-148 -25 9 -52 72 -74 177 -24 118 -32 141 -45 141 -16 0 -29 -47 -34 -123 -3
-40 -12 -117 -20 -172 -55 -388 -44 -607 38 -770 28 -57 35 -62 51 -39 8 10
17 17 19 14 5 -5 27 -200 34 -308 4 -51 2 -61 -10 -56 -16 6 -45 97 -51 159
-2 22 -2 -14 1 -80 3 -114 20 -217 48 -295 77 -219 86 -319 37 -417 -13 -26
-13 -34 -3 -47 7 -8 11 -28 9 -43 l-3 -28 73 -3 c65 -3 73 -1 70 14 -2 13 7
21 30 27 28 9 38 7 64 -13 29 -21 37 -22 127 -17 196 13 441 45 441 57 0 4
-21 13 -47 20 -27 7 -59 19 -73 26 -14 7 -47 23 -75 35 -61 27 -157 87 -168
105 -4 8 -12 14 -17 14 -20 0 -49 40 -84 113 -20 41 -36 80 -36 88 0 8 -6 43
-14 79 -41 181 -45 263 -48 805 -3 522 -3 531 19 597 12 36 26 75 31 85 52
101 53 108 51 284 -1 100 2 174 8 181 6 7 24 56 41 108 17 52 42 129 57 170
54 156 55 135 -11 199 -65 62 -164 183 -164 199 0 6 -4 12 -8 14 -31 13 -174
310 -207 430 l-18 67 -43 -6 c-27 -3 -49 -1 -58 6 -11 9 -15 5 -20 -20z m317
-521 c2 -7 0 -22 -6 -33 -6 -11 -14 -33 -18 -50 -27 -101 -97 -262 -124 -285
-8 -7 -15 -20 -15 -29 0 -9 -7 -25 -15 -35 -20 -26 -19 -128 0 -203 8 -31 15
-92 15 -135 0 -88 7 -94 66 -58 20 13 35 17 39 11 10 -17 -14 -50 -40 -57 -23
-6 -25 -11 -25 -64 0 -53 3 -61 31 -84 29 -25 32 -46 5 -46 -7 0 -28 13 -46
29 -29 25 -34 36 -37 87 -2 33 -8 68 -13 79 -5 11 -11 58 -13 105 -3 56 -11
100 -25 130 -43 96 -34 146 60 331 60 118 98 211 98 239 0 17 39 80 50 80 5 0
10 -6 13 -12z m90 -385 c7 -61 1 -69 -29 -41 -28 27 -31 63 -6 77 27 16 29 14
35 -36z m-58 -561 c-8 -32 -35 -72 -48 -72 -10 0 -4 101 8 120 13 20 47 -21
40 -48z m-125 -152 c6 -12 8 -29 5 -40 -4 -12 1 -26 14 -39 27 -27 35 -63 24
-98 -15 -44 -37 -35 -41 15 -2 33 -11 51 -38 78 -38 39 -43 70 -16 90 24 19
40 17 52 -6z m-90 -222 c11 -18 20 -42 20 -54 0 -11 9 -47 19 -80 38 -117 46
-201 46 -454 0 -256 -12 -399 -46 -531 -10 -41 -19 -91 -20 -110 0 -19 -7 -50
-14 -69 -13 -34 -14 -32 -14 51 -1 48 5 120 13 160 60 311 59 300 53 492 -3
100 -11 202 -17 227 -6 24 -15 74 -20 110 -5 36 -17 90 -26 120 -9 30 -22 75
-29 100 -20 73 0 95 35 38z m-90 -573 c0 -8 -7 -15 -15 -15 -16 0 -20 12 -8
23 11 12 23 8 23 -8z m0 -49 c0 -8 -4 -17 -8 -20 -13 -8 -35 11 -28 23 10 16
36 14 36 -3z m-10 -62 c0 -8 -9 -14 -20 -14 -22 0 -28 26 -7 33 16 6 27 -1 27
-19z m215 -544 c8 -24 -1 -40 -21 -40 -15 0 -18 18 -8 44 8 22 21 20 29 -4z
m-7 -87 c6 -10 13 -34 17 -53 l7 -35 -21 19 c-11 11 -21 27 -21 37 0 10 -4 21
-10 24 -15 9 -12 25 5 25 8 0 18 -8 23 -17z m-93 -177 c6 -81 10 -97 31 -117
25 -23 24 -39 -3 -39 -29 0 -53 31 -53 69 0 20 -4 53 -9 74 -9 37 4 107 19
107 4 0 11 -42 15 -94z m239 42 c3 -13 6 -32 6 -43 -1 -19 -2 -19 -20 4 -11
13 -20 32 -20 42 0 27 26 24 34 -3z m-64 -43 c3 -45 1 -49 -15 -35 -9 7 -15
29 -15 53 0 36 2 39 14 27 8 -8 15 -28 16 -45z m-66 23 c11 -42 7 -68 -9 -62
-17 7 -30 47 -21 69 8 22 23 18 30 -7z m16 -161 c0 -40 -20 -87 -37 -87 -17 0
-16 43 1 85 19 44 36 45 36 2z m406 -66 c5 -5 29 -16 54 -24 41 -13 69 -47 40
-47 -31 0 -120 53 -120 72 0 11 14 10 26 -1z"/>
<path d="M5667 3628 c-3 -123 -10 -241 -15 -263 -6 -22 -13 -79 -17 -127 -6
-76 -4 -89 12 -105 68 -69 121 -172 153 -300 14 -56 68 -157 107 -198 73 -76
93 -111 100 -164 6 -55 3 -60 -23 -34 -23 23 -25 34 53 -247 9 -30 21 -75 28
-100 16 -58 71 -175 90 -190 8 -7 15 -18 15 -24 1 -29 150 -162 196 -175 17
-4 34 -21 48 -46 42 -78 134 -207 168 -237 19 -17 19 -18 2 -18 -22 0 -84 41
-84 56 0 7 -6 14 -13 17 -7 3 -35 41 -63 86 -27 45 -52 81 -56 81 -5 0 -8 7
-8 15 0 8 -4 15 -10 15 -20 0 0 -72 33 -123 9 -14 17 -31 17 -36 0 -15 99
-143 168 -215 34 -36 62 -70 62 -75 0 -5 3 -11 8 -13 4 -1 29 -32 55 -68 l48
-65 -7 45 c-8 56 -61 250 -90 333 -8 20 -14 46 -14 57 0 18 -10 45 -50 135
-10 22 -32 76 -50 120 -17 44 -37 89 -42 100 -14 25 -21 40 -41 88 -48 110
-116 228 -154 264 -13 12 -23 27 -23 33 0 5 -5 10 -12 10 -12 0 -88 80 -88 93
0 13 38 7 54 -8 8 -8 18 -15 23 -15 12 0 40 -33 116 -133 37 -49 67 -93 67
-100 0 -6 23 -59 51 -117 28 -58 56 -118 63 -135 7 -16 22 -50 33 -75 11 -25
28 -65 38 -90 10 -25 21 -54 26 -65 26 -61 96 -315 120 -430 11 -58 36 -144
53 -185 8 -19 17 -46 20 -60 3 -14 27 -42 55 -64 l50 -40 -20 -28 c-27 -38
-58 -38 -57 1 1 15 -2 33 -6 40 -16 25 -26 8 -26 -44 0 -58 18 -106 51 -138
25 -23 89 -22 146 4 35 16 49 29 60 59 15 36 21 40 87 61 39 12 89 24 110 27
31 4 41 11 50 34 9 23 16 28 46 28 41 0 118 25 141 46 9 8 20 29 23 46 5 25 9
29 18 20 18 -18 53 -14 73 8 18 20 17 20 -28 20 -48 0 -71 15 -41 27 10 3 25
14 34 22 9 9 25 21 36 28 18 11 18 12 -4 12 -27 1 -127 -26 -157 -42 -27 -15
-93 -20 -250 -20 l-130 1 -50 55 c-42 47 -71 93 -142 232 -40 78 -61 138 -181
505 -49 151 -60 183 -80 235 -22 61 -78 172 -93 185 -3 3 -15 22 -28 43 -13
21 -28 43 -35 50 -23 24 -86 117 -86 127 0 6 -4 10 -8 10 -5 0 -17 16 -28 37
-10 20 -28 52 -38 72 -11 22 -24 79 -32 145 -9 81 -18 116 -33 135 -34 43 -91
170 -91 202 0 11 -8 41 -19 67 -50 127 -56 167 -23 140 12 -11 14 2 10 97 -3
61 -11 124 -18 140 -13 29 -14 28 -25 -53 -6 -46 -17 -87 -24 -91 -9 -6 -8
-18 5 -52 23 -60 30 -139 13 -150 -20 -12 -27 -3 -34 44 -16 104 -48 179 -136
319 -27 43 -49 81 -49 86 0 7 -90 111 -146 168 -12 12 -24 29 -27 38 -18 46
-25 -4 -30 -206z m145 -302 c6 -14 8 -32 4 -41 -10 -27 -46 0 -46 35 0 37 26
41 42 6z m-23 -148 c-3 -100 12 -147 64 -195 23 -21 51 -45 63 -53 11 -8 30
-42 41 -75 17 -52 23 -60 46 -63 21 -3 27 1 27 17 0 10 3 27 6 35 10 26 34 -1
34 -36 0 -44 35 -88 69 -88 32 0 59 -24 41 -35 -20 -12 -95 7 -118 30 -12 13
-38 26 -56 29 -18 4 -40 14 -48 24 -20 22 -58 97 -58 114 0 7 -23 33 -51 57
-28 24 -64 64 -80 90 -24 39 -29 56 -29 114 0 73 11 107 36 107 12 0 14 -14
13 -72z m314 -206 c-7 -56 -20 -85 -35 -76 -14 9 -2 116 14 125 21 13 28 -1
21 -49z m37 -347 c19 -19 39 -35 45 -35 5 0 22 -6 36 -14 14 -7 37 -16 52 -20
36 -9 35 -26 -2 -26 -64 0 -191 77 -191 116 0 23 23 15 60 -21z m100 21 c0 -8
-5 -18 -11 -22 -14 -8 -33 11 -25 25 10 16 36 13 36 -3z m-138 -196 c31 -35
42 -60 26 -60 -16 0 -78 61 -78 77 0 22 24 14 52 -17z m68 -150 c0 -11 -7 -20
-15 -20 -8 0 -15 9 -15 20 0 11 7 20 15 20 8 0 15 -9 15 -20z m64 -115 c7 -18
-2 -45 -15 -45 -5 0 -12 7 -15 15 -7 18 2 45 15 45 5 0 11 -7 15 -15z m43
-187 c29 -33 29 -34 58 -143 19 -69 23 -101 16 -108 -15 -15 -39 18 -46 63
-10 62 -37 144 -56 171 -17 24 -16 39 1 39 4 0 16 -10 27 -22z m759 -915 c32
-35 28 -67 -9 -71 -34 -4 -49 28 -33 70 6 15 12 28 14 28 1 0 14 -12 28 -27z
m-71 -67 c19 -35 20 -109 3 -104 -7 3 -16 24 -20 48 -4 23 -14 53 -22 65 -13
20 -13 22 5 21 11 -1 26 -14 34 -30z m525 -26 c0 -39 -17 -47 -42 -21 -16 19
-27 21 -63 16 -46 -7 -71 9 -33 21 31 9 121 21 131 17 4 -2 7 -17 7 -33z
m-230 -31 c0 -15 -4 -19 -16 -15 -9 3 -18 6 -20 6 -2 0 -4 7 -4 15 0 8 9 15
20 15 14 0 20 -7 20 -21z m-272 -107 c2 -23 -1 -32 -11 -32 -14 0 -29 54 -18
65 12 12 26 -4 29 -33z"/>
<path d="M4863 3304 c-7 -23 -13 -50 -13 -60 0 -11 -9 -34 -20 -52 -19 -31
-19 -36 -5 -160 21 -178 19 -287 -5 -337 -11 -22 -19 -54 -20 -70 0 -17 -9
-48 -20 -70 -11 -22 -20 -48 -20 -58 0 -10 -7 -31 -15 -47 -8 -16 -20 -64 -26
-107 -6 -43 -19 -86 -28 -96 -8 -10 -19 -46 -22 -80 -4 -34 -10 -79 -14 -99
-5 -27 -3 -47 9 -72 9 -19 16 -59 16 -90 0 -30 8 -75 17 -98 22 -56 25 -332 4
-393 -13 -38 -12 -46 9 -105 17 -47 23 -83 21 -130 -3 -86 16 -278 35 -360 28
-121 34 -139 57 -157 35 -29 49 -61 58 -133 4 -36 15 -79 23 -95 17 -33 73
-95 86 -95 8 0 27 55 45 132 4 16 1 48 -9 75 -35 107 -46 148 -46 166 0 11 -6
43 -14 71 -44 153 -56 234 -56 366 0 128 -1 138 -29 195 -72 150 -74 159 -74
400 0 219 12 324 55 495 6 25 15 146 19 270 4 124 12 261 17 305 7 52 7 112 0
170 -5 50 -13 151 -16 225 -7 128 -8 133 -19 94z"/>
<path d="M4190 3244 c0 -65 -138 -286 -206 -330 -13 -9 -33 -36 -43 -59 -23
-52 -82 -134 -96 -135 -6 0 -18 -8 -27 -17 -32 -36 -77 -73 -87 -73 -6 0 -11
-3 -11 -7 0 -5 -21 -30 -45 -56 -25 -26 -45 -50 -45 -53 0 -3 -9 -17 -20 -31
-11 -14 -20 -36 -20 -49 0 -12 -6 -35 -14 -51 -28 -56 -46 -104 -46 -122 0
-31 -101 -277 -120 -291 -7 -5 -31 -51 -66 -125 -17 -37 -52 -94 -64 -105 -3
-3 -19 -26 -35 -52 -17 -27 -33 -48 -37 -48 -5 0 -8 -7 -8 -15 0 -8 -4 -15 -9
-15 -5 0 -25 -22 -44 -48 -19 -27 -51 -66 -70 -88 -73 -79 -97 -108 -97 -114
0 -4 -14 -25 -31 -46 -43 -54 -79 -139 -79 -188 -1 -97 -53 -226 -100 -251
-51 -27 -113 -18 -215 31 -27 13 -63 33 -80 44 -16 11 -37 23 -45 26 -8 3 -46
21 -85 39 -38 18 -106 50 -150 71 -44 20 -83 42 -87 48 -4 6 -10 8 -13 5 -6
-7 39 -42 100 -79 22 -14 45 -28 50 -33 24 -19 174 -114 210 -132 22 -11 42
-23 45 -26 6 -7 50 -31 100 -54 19 -9 37 -19 40 -23 5 -7 27 -18 125 -65 28
-13 59 -28 70 -35 23 -13 103 -48 185 -82 30 -12 73 -30 95 -40 22 -10 67 -28
100 -40 33 -11 69 -24 80 -29 129 -53 486 -153 695 -194 119 -24 461 -77 467
-73 1 1 -3 35 -8 77 -8 65 -6 85 11 139 15 46 20 90 20 165 0 90 -3 106 -22
131 -12 16 -25 31 -28 34 -8 8 -39 62 -61 110 -12 25 -26 53 -31 63 -15 30
-48 141 -48 163 0 31 -45 165 -71 210 -12 22 -33 75 -47 119 -24 75 -25 92
-25 290 0 221 11 304 53 403 22 55 50 234 50 330 0 37 9 103 21 147 26 104 26
231 0 323 -25 87 -48 202 -56 275 -6 57 -25 80 -25 31z"/>
<path d="M5587 3053 c-9 -27 -18 -59 -20 -73 -9 -41 -62 -182 -82 -220 -18
-31 -20 -52 -17 -202 3 -165 3 -167 -26 -230 -55 -119 -63 -141 -78 -217 -18
-92 -18 -150 -5 -771 11 -486 12 -497 50 -635 16 -55 66 -142 102 -176 45 -42
57 -50 144 -93 96 -48 162 -69 298 -97 l115 -23 79 21 c77 21 135 36 203 53
19 5 58 16 85 24 28 9 73 22 100 30 28 8 82 26 120 41 39 14 97 35 130 46 33
12 78 29 100 39 22 10 56 25 75 34 l35 15 -55 -6 c-49 -5 -58 -2 -82 20 -16
15 -28 31 -28 37 0 5 -4 10 -9 10 -14 0 -28 48 -46 155 -18 107 -61 213 -101
250 -6 5 -26 32 -43 58 -18 26 -41 53 -52 60 -10 6 -19 15 -19 19 0 5 -8 16
-17 26 -49 51 -120 137 -135 164 -9 16 -23 37 -31 46 -25 27 -74 134 -81 176
-6 31 -24 55 -87 119 -43 43 -79 83 -79 87 0 5 -6 15 -13 22 -37 40 -147 313
-147 367 0 45 -107 369 -134 404 -28 38 -82 151 -91 193 -11 45 -55 174 -68
197 -12 21 -64 77 -72 77 -2 0 -10 -21 -18 -47z"/>
<path d="M1820 1402 c0 -11 49 -57 78 -71 32 -17 40 -8 33 36 -6 38 -6 38 -59
41 -28 2 -52 -1 -52 -6z"/>
<path d="M7782 1153 c-52 -5 -46 -23 9 -23 28 0 39 4 39 15 0 8 -1 14 -2 13
-2 -1 -22 -3 -46 -5z"/>
<path d="M7735 1090 c-18 -8 -17 -9 8 -9 15 -1 27 4 27 9 0 12 -8 12 -35 0z"/>
<path d="M6105 260 c-11 -4 -63 -15 -115 -24 -52 -8 -131 -22 -175 -30 -76
-14 -77 -14 -20 -10 33 2 76 4 95 4 19 0 45 5 57 12 18 9 27 8 47 -6 33 -21
86 -20 130 2 37 18 47 46 20 56 -9 3 -16 6 -17 5 -1 0 -11 -4 -22 -9z"/>
</g>
</svg>
