<?xml version="1.0" standalone="no"?>
<!DOCTYPE svg PUBLIC "-//W3C//DTD SVG 20010904//EN"
 "http://www.w3.org/TR/2001/REC-SVG-20010904/DTD/svg10.dtd">
<svg version="1.0" xmlns="http://www.w3.org/2000/svg"
 width="1000.000000pt" height="1000.000000pt" viewBox="0 0 1000.000000 1000.000000"
 preserveAspectRatio="xMidYMid meet">

<g transform="translate(0.000000,1000.000000) scale(0.100000,-0.100000)"
fill="#000000" stroke="none">
<path d="M4520 9874 c-171 -17 -346 -41 -431 -60 -37 -8 -77 -14 -90 -14 -13
0 -55 -9 -94 -19 -38 -11 -104 -27 -145 -36 -41 -9 -95 -23 -120 -30 -126 -37
-197 -59 -220 -68 -14 -5 -38 -13 -55 -18 -71 -18 -196 -66 -380 -144 -144
-61 -498 -238 -533 -267 -9 -7 -37 -24 -62 -38 -94 -50 -350 -220 -350 -232 0
-4 -5 -8 -10 -8 -6 0 -16 -4 -23 -10 -7 -5 -57 -44 -112 -86 -55 -42 -105 -83
-111 -90 -6 -8 -16 -14 -23 -14 -6 0 -14 -7 -17 -15 -4 -8 -9 -15 -13 -15 -9
0 -103 -85 -263 -238 -114 -109 -119 -113 -153 -106 -21 4 -48 1 -65 -6 -25
-10 -30 -18 -30 -45 0 -20 6 -35 15 -39 25 -9 17 -28 -38 -87 -67 -73 -99
-112 -169 -204 -5 -5 -24 -28 -43 -50 -19 -22 -37 -48 -41 -57 -3 -10 -10 -18
-15 -18 -5 0 -9 -7 -9 -15 0 -9 -7 -18 -15 -21 -8 -4 -15 -11 -15 -16 0 -9
-14 -28 -60 -85 -6 -7 -10 -15 -10 -18 0 -6 -41 -67 -51 -75 -10 -9 -109 -180
-109 -189 0 -5 -4 -11 -8 -13 -8 -3 -38 -54 -103 -173 -41 -75 -159 -321 -159
-331 0 -4 -11 -30 -24 -59 -14 -28 -32 -71 -41 -96 -64 -172 -88 -238 -94
-269 -4 -19 -15 -49 -24 -67 -9 -18 -17 -40 -17 -49 0 -9 -7 -37 -15 -63 -8
-25 -21 -73 -29 -106 -8 -33 -21 -87 -30 -120 -40 -160 -75 -382 -102 -637
-13 -125 -15 -229 -11 -500 4 -330 10 -409 43 -638 26 -175 48 -284 94 -460 6
-25 15 -63 20 -85 15 -70 57 -203 86 -273 8 -18 14 -39 14 -46 0 -13 84 -233
115 -304 8 -17 22 -49 31 -70 18 -40 29 -62 43 -89 5 -10 26 -52 46 -93 20
-41 54 -106 75 -145 21 -38 46 -83 54 -100 9 -16 25 -43 36 -60 11 -16 24 -39
30 -50 6 -11 19 -33 30 -50 11 -16 23 -37 27 -45 6 -14 23 -38 110 -162 75
-108 108 -153 123 -168 8 -9 37 -46 64 -82 26 -37 54 -69 62 -72 8 -3 14 -10
14 -16 0 -5 8 -18 18 -28 9 -11 44 -50 77 -88 87 -100 328 -340 431 -429 49
-43 90 -82 92 -86 2 -5 10 -9 18 -9 8 0 17 -7 20 -15 4 -8 12 -15 20 -15 8 0
14 -4 14 -9 0 -5 46 -43 102 -85 57 -43 111 -84 121 -92 9 -8 22 -14 27 -14 6
0 10 -4 10 -9 0 -5 8 -12 18 -15 10 -4 27 -14 38 -24 11 -9 29 -22 40 -29 36
-22 249 -154 264 -163 8 -6 24 -15 35 -21 11 -5 38 -21 60 -34 48 -28 300
-154 370 -185 128 -56 175 -76 225 -95 25 -9 63 -25 85 -34 41 -18 288 -98
405 -131 310 -89 667 -152 995 -176 45 -3 99 -14 122 -25 50 -22 89 -24 123
-4 17 10 60 14 140 15 63 0 207 5 320 11 254 14 232 14 315 -5 62 -15 95 -15
280 -6 226 12 274 23 294 66 7 15 7 33 2 48 -9 22 -6 24 52 40 226 63 467 139
537 169 19 8 53 22 75 30 71 27 149 59 215 89 106 49 194 90 215 102 11 6 47
25 80 43 33 18 71 37 84 43 13 6 44 24 68 40 24 17 46 30 48 30 7 0 104 59
183 112 40 26 77 48 82 48 6 0 10 4 10 8 0 5 16 17 35 28 19 10 35 22 35 26 0
5 6 8 14 8 8 0 16 4 18 10 2 5 22 22 45 37 73 49 183 135 183 144 0 5 7 9 15
9 8 0 15 5 15 10 0 6 8 14 17 17 10 4 27 16 38 27 11 12 54 50 95 86 126 109
385 373 480 489 19 24 42 50 51 60 9 9 38 45 65 81 27 36 57 74 67 85 27 30
217 301 217 310 0 2 12 21 26 42 14 21 30 47 35 58 5 11 17 32 27 47 28 43 66
109 96 170 16 32 33 58 38 58 4 0 8 7 8 15 0 12 23 62 71 158 17 32 26 52 41
87 9 19 22 51 31 70 8 19 23 55 33 80 10 25 25 63 34 85 10 22 25 65 35 95 17
53 27 83 55 160 17 49 50 158 59 200 17 70 33 136 52 205 11 39 19 79 19 90 0
11 6 49 14 85 20 89 38 199 46 295 4 44 15 157 25 250 39 385 -10 997 -111
1400 -9 33 -22 87 -30 120 -8 33 -21 81 -29 106 -8 26 -15 54 -15 63 0 9 -8
31 -17 49 -9 18 -20 48 -24 67 -6 31 -30 97 -94 269 -9 25 -27 68 -41 96 -13
29 -24 55 -24 59 0 10 -118 256 -159 331 -65 119 -95 170 -103 173 -4 2 -8 8
-8 13 0 9 -99 180 -109 189 -10 8 -51 69 -51 75 0 3 -4 11 -10 18 -46 57 -60
76 -60 85 0 5 -7 12 -15 16 -8 3 -15 12 -15 21 0 8 -4 15 -9 15 -5 0 -12 8
-15 18 -4 9 -22 35 -41 57 -19 22 -38 45 -43 50 -69 91 -101 130 -169 204 -40
43 -51 61 -46 79 7 30 -13 52 -47 52 -21 0 -46 19 -112 88 -75 78 -215 209
-292 273 -16 13 -36 32 -45 42 -8 9 -21 17 -28 17 -7 0 -13 4 -13 8 0 12 -250
202 -360 275 -47 31 -89 60 -95 65 -5 4 -30 19 -55 32 -25 14 -47 28 -50 31
-3 3 -25 16 -50 29 -25 14 -53 31 -62 38 -35 29 -389 206 -533 267 -181 77
-304 124 -380 145 -31 8 -64 19 -125 40 -19 7 -53 17 -75 22 -22 6 -56 16 -75
23 -19 7 -71 20 -115 30 -44 9 -111 25 -150 36 -38 10 -83 19 -98 19 -16 0
-56 7 -90 14 -79 19 -250 42 -447 61 -195 19 -737 18 -930 -1z m785 -74 c110
-5 225 -14 255 -20 30 -6 93 -15 140 -20 47 -4 112 -13 145 -20 33 -6 96 -18
140 -27 176 -33 518 -125 635 -171 14 -5 50 -17 80 -27 58 -18 96 -34 168 -66
23 -10 47 -19 52 -19 10 0 45 -16 233 -104 53 -26 107 -51 120 -57 12 -5 54
-28 92 -49 39 -22 81 -44 95 -50 13 -6 27 -14 30 -18 3 -4 25 -18 50 -31 46
-25 187 -113 205 -128 6 -5 28 -20 50 -33 51 -30 149 -103 153 -112 2 -5 10
-8 18 -8 8 0 14 -4 14 -8 0 -5 23 -23 50 -41 28 -18 50 -37 50 -42 0 -5 6 -9
14 -9 8 0 16 -7 20 -15 3 -8 12 -15 20 -15 8 0 16 -4 18 -9 2 -4 35 -35 74
-67 77 -65 97 -83 212 -194 42 -42 91 -87 109 -101 l32 -26 -46 -7 c-25 -3
-60 -6 -78 -6 -27 0 -96 -35 -115 -59 -11 -13 -87 -61 -98 -61 -6 0 -34 -13
-62 -30 -28 -16 -54 -30 -57 -30 -8 0 -74 -70 -93 -99 -29 -45 -36 -50 -85
-65 -80 -24 -136 -46 -188 -72 -27 -13 -58 -24 -70 -24 -12 0 -37 -9 -55 -20
-17 -11 -51 -22 -75 -26 -88 -12 -192 -35 -201 -45 -6 -5 -18 -9 -28 -9 -10 0
-79 -29 -153 -65 -75 -36 -144 -65 -154 -65 -24 0 -110 -58 -153 -102 -40 -41
-81 -68 -105 -68 -26 0 -171 -37 -213 -53 -19 -8 -62 -23 -95 -33 -33 -10 -99
-38 -148 -63 -87 -45 -88 -45 -120 -29 -77 40 -197 48 -312 20 -54 -13 -160
-64 -176 -84 -3 -5 -27 -11 -55 -14 -27 -3 -70 -14 -96 -25 -26 -10 -64 -19
-85 -19 l-38 0 46 45 c25 24 58 47 73 51 35 8 48 41 35 88 -8 31 -7 39 11 58
11 12 20 25 20 29 0 3 18 26 40 49 22 23 40 48 40 55 0 8 -12 22 -27 33 l-26
19 26 7 c32 8 57 53 56 98 -1 18 -3 25 -6 16 -6 -24 -83 -26 -83 -3 0 10 11
15 35 15 43 0 45 15 4 38 -32 18 -33 27 -14 105 9 33 -6 53 -47 62 l-30 7 31
19 c32 19 38 40 22 82 -17 44 -39 57 -97 57 l-54 0 -6 41 c-4 22 -13 43 -20
46 -8 3 -14 11 -14 19 0 8 -4 14 -8 14 -4 0 -30 21 -58 48 -50 49 -83 73 -144
105 -28 15 -53 18 -130 15 -52 -1 -148 -1 -213 1 -66 1 -123 -2 -130 -7 -7 -5
-37 -20 -67 -33 -30 -12 -73 -37 -95 -54 -22 -18 -63 -45 -92 -60 -48 -26 -52
-30 -55 -69 -3 -39 -5 -41 -32 -38 -54 6 -122 -83 -113 -148 5 -36 3 -39 -23
-45 -34 -7 -56 -64 -46 -121 4 -22 9 -54 13 -73 3 -21 1 -36 -7 -41 -17 -10
-28 -79 -18 -115 4 -18 20 -38 38 -48 34 -20 35 -25 18 -62 -9 -20 -9 -28 -1
-33 7 -4 13 -30 15 -57 3 -47 5 -51 36 -60 27 -8 32 -14 30 -35 -3 -22 -7 -25
-36 -22 -18 2 -59 13 -90 24 -51 19 -81 22 -277 23 l-220 2 -80 40 c-102 51
-165 77 -240 98 -33 9 -80 23 -105 30 -25 7 -58 16 -75 20 -38 8 -97 35 -110
51 -5 6 -28 24 -50 40 -22 16 -42 31 -45 35 -3 3 -12 9 -20 12 -8 4 -28 16
-45 27 -39 24 -177 92 -235 115 -25 9 -57 23 -72 31 -14 8 -36 14 -48 14 -12
0 -30 5 -41 11 -11 5 -77 15 -147 20 -84 7 -141 17 -167 29 -22 10 -84 39
-138 64 -54 25 -102 46 -107 46 -28 0 -79 46 -104 92 -44 80 -92 135 -127 142
-27 5 -99 63 -99 80 0 9 -32 38 -59 54 -17 10 -30 10 -59 1 -21 -6 -51 -9 -67
-7 l-30 3 48 45 c27 25 72 68 100 95 29 28 83 76 122 109 38 32 72 62 73 67 2
5 10 9 17 9 7 0 15 7 19 15 3 8 11 15 17 15 7 0 17 6 23 14 18 22 195 156 206
156 6 0 13 7 16 15 4 8 10 15 14 15 4 0 52 29 105 65 53 36 100 65 106 65 5 0
9 4 9 9 0 5 9 13 20 16 11 3 26 12 33 19 12 12 21 18 122 71 28 14 68 37 90
49 99 57 316 162 425 206 30 12 73 30 96 41 23 10 48 19 56 19 8 0 18 4 23 9
6 6 51 23 100 40 122 40 157 52 175 61 9 4 31 11 50 14 19 4 55 13 80 21 170
50 384 100 495 115 39 5 86 14 105 20 19 5 53 10 75 10 22 0 78 7 125 16 158
29 564 40 895 24z m-100 -1473 c17 -5 32 -13 35 -17 3 -4 25 -19 50 -35 45
-27 120 -100 120 -116 0 -5 4 -9 10 -9 5 0 13 -12 16 -27 9 -36 30 -60 70 -79
38 -18 66 -56 58 -78 -10 -27 -32 -18 -44 19 -6 19 -18 35 -25 35 -29 0 -81
47 -105 95 -19 38 -36 56 -71 75 -26 14 -60 40 -77 58 -16 17 -38 32 -47 32
-19 0 -54 38 -55 59 0 9 6 11 18 6 9 -4 31 -12 47 -18z m-275 0 c30 -10 35
-16 30 -35 l-5 -22 -37 20 c-21 11 -48 20 -60 20 -48 0 -194 -52 -210 -75 -13
-17 -20 3 -8 22 15 23 87 54 160 69 75 16 89 16 130 1z m140 -7 c12 -8 11 -10
-5 -10 -12 0 -27 -6 -33 -12 -10 -10 -15 -10 -22 2 -5 8 -6 18 -4 22 7 11 46
10 64 -2z m-3750 -9 c0 -18 -18 -21 -30 -6 -10 13 -9 15 9 15 11 0 21 -4 21
-9z m303 -13 c13 -13 39 -44 60 -69 27 -34 47 -49 80 -58 45 -13 43 -10 94
-119 23 -48 77 -102 101 -102 11 0 58 -16 105 -35 91 -36 99 -40 163 -72 42
-22 172 -53 222 -53 96 0 355 -97 547 -205 47 -26 105 -74 105 -85 0 -3 -21
-13 -45 -24 -25 -10 -44 -23 -42 -30 5 -15 84 -20 116 -7 34 14 100 1 331 -67
72 -21 173 -68 232 -109 26 -18 50 -33 53 -33 21 0 118 -134 113 -157 -2 -9
-23 -24 -48 -33 -25 -9 -58 -22 -73 -28 -38 -16 -38 -16 -83 16 -21 16 -59 38
-84 49 -82 37 -121 53 -131 53 -18 0 -96 39 -124 62 -16 13 -75 67 -131 121
-96 92 -122 107 -131 80 -5 -15 89 -116 167 -178 112 -89 173 -124 260 -150
124 -37 180 -67 180 -99 0 -7 -12 -18 -26 -24 -28 -13 -51 -5 -88 30 -39 36
-110 78 -151 89 -22 7 -54 18 -72 25 -17 8 -37 14 -45 14 -8 0 -18 4 -24 9 -5
5 -38 21 -74 36 -36 14 -78 32 -95 39 -16 8 -70 21 -120 31 -58 11 -122 33
-180 61 -49 23 -108 46 -130 50 -35 6 -142 53 -215 95 -70 41 -235 159 -285
206 -70 65 -165 114 -165 86 0 -3 24 -28 53 -55 42 -39 47 -48 27 -43 -51 13
-175 82 -228 126 -7 6 -35 14 -63 18 -48 8 -69 22 -69 47 0 7 -16 19 -35 28
-19 9 -35 21 -35 26 0 13 2 13 60 -10 59 -23 80 -25 103 -7 25 18 7 38 -41 44
-27 4 -51 16 -71 35 -33 32 -37 43 -21 53 6 3 10 15 10 26 0 17 -5 20 -28 15
-23 -6 -35 1 -86 53 -33 33 -57 64 -53 67 8 8 82 -13 112 -32 11 -7 34 -13 50
-12 17 0 45 -2 63 -6 25 -6 33 -4 39 10 10 26 -31 54 -81 54 -35 0 -44 5 -64
33 -22 32 -22 32 -3 48 19 16 20 17 2 33 -13 12 -38 16 -105 16 -66 0 -87 3
-84 13 4 11 57 21 131 25 17 1 37 -7 50 -20z m-223 -48 c5 0 10 -4 10 -9 0 -5
-13 -4 -29 2 -26 9 -28 14 -19 31 11 20 11 20 19 -2 5 -12 13 -22 19 -22z
m3740 -4 c0 -8 16 -16 41 -19 50 -7 59 -18 59 -79 0 -67 14 -98 45 -98 29 0
31 -11 8 -51 -15 -26 -16 -32 -4 -52 13 -20 12 -20 -20 4 -31 24 -34 31 -34
79 0 34 -5 55 -12 57 -8 3 -13 24 -13 58 0 43 -4 56 -19 65 -30 15 -55 12 -81
-10 -13 -11 -30 -20 -39 -20 -10 1 -5 7 12 16 31 17 37 54 10 54 -10 0 -31 -7
-47 -15 -34 -18 -39 -18 -34 -4 2 7 24 20 48 29 47 19 80 13 80 -14z m-241 13
c43 -15 57 -43 36 -75 -20 -31 -37 -30 -90 6 -61 42 -107 39 -190 -13 l-30
-19 30 27 c41 36 120 68 206 84 3 1 20 -4 38 -10z m3661 -24 c-60 -26 -85 -30
-95 -15 -11 19 -25 10 -44 -29 -22 -43 -41 -54 -77 -45 -17 4 -26 1 -30 -10
-3 -9 -11 -16 -18 -16 -6 0 -31 -9 -55 -21 -34 -15 -42 -22 -33 -31 9 -9 25
-8 64 1 83 21 207 38 219 30 10 -6 -59 -39 -84 -39 -33 0 -87 -23 -115 -48
-41 -37 -42 -53 -3 -42 26 7 30 5 34 -18 3 -15 1 -31 -4 -36 -13 -14 -11 -46
3 -46 20 0 78 71 78 95 0 41 11 55 42 55 35 0 98 35 98 55 0 17 71 45 117 45
l36 0 -68 -50 c-37 -27 -83 -52 -104 -56 -48 -9 -59 -19 -66 -63 -4 -20 -8
-47 -11 -60 l-5 -24 -15 22 c-21 30 -34 17 -34 -34 0 -72 -11 -89 -72 -108
-75 -23 -93 -22 -128 13 l-31 30 27 0 c36 0 97 38 90 57 -3 8 1 28 10 45 l16
30 -23 -16 c-37 -25 -84 -21 -104 10 l-17 26 -16 -24 c-9 -12 -19 -25 -23 -28
-3 -3 -9 -15 -13 -27 -6 -17 -1 -29 18 -47 19 -16 26 -34 26 -59 0 -31 -6 -39
-46 -67 -26 -17 -48 -29 -51 -26 -2 2 9 12 26 22 33 20 49 50 33 66 -12 12
-72 -56 -72 -81 0 -11 -14 -25 -35 -35 -19 -9 -37 -21 -40 -26 -3 -6 -30 -21
-58 -35 -29 -14 -61 -31 -71 -38 -92 -57 -126 -77 -130 -77 -3 0 -55 -29 -117
-65 -61 -36 -114 -65 -118 -65 -3 0 -37 -15 -76 -33 -108 -52 -201 -85 -270
-97 -83 -15 -201 -41 -230 -52 -40 -14 -259 -121 -265 -129 -3 -3 -32 -20 -65
-38 -33 -18 -64 -36 -70 -40 -5 -4 -77 -29 -160 -55 -82 -27 -192 -69 -244
-95 -52 -25 -99 -48 -104 -50 -14 -5 -5 255 10 270 18 18 152 -11 287 -62 63
-24 116 -24 161 1 20 11 44 20 54 20 10 0 26 8 35 19 23 25 3 33 -52 18 -35
-9 -48 -8 -78 7 -28 13 -39 14 -45 5 -4 -6 -14 -9 -23 -6 -9 4 -19 0 -24 -9
-7 -12 -28 -8 -142 29 l-134 44 57 41 c31 23 61 42 67 42 5 0 10 4 10 9 0 5
15 16 33 25 17 9 59 32 92 52 59 34 80 44 140 69 73 30 164 55 281 75 66 11
124 42 179 95 29 29 89 66 178 109 74 36 139 66 146 66 7 0 22 5 34 12 52 29
215 82 317 103 84 17 167 43 225 69 17 8 50 22 75 31 25 9 60 23 78 31 18 8
37 14 43 14 20 0 89 68 89 88 0 21 55 68 108 92 26 12 66 30 89 41 23 11 64
40 91 64 46 42 52 44 118 48 38 1 83 4 99 5 25 1 21 -3 -25 -23z m-7032 -32
c3 -17 -2 -23 -15 -23 -28 0 -47 16 -40 35 10 25 51 15 55 -12z m7170 -5 c8
-10 -2 -17 -39 -30 -56 -18 -64 -9 -16 20 39 25 42 25 55 10z m-132 -15 c-11
-3 -26 -11 -34 -19 -7 -8 -25 -14 -39 -14 -21 0 -23 3 -13 14 11 14 42 23 85
23 19 1 19 0 1 -4z m-7211 -26 c74 -25 85 -30 85 -38 0 -16 -19 -18 -74 -8
-56 12 -94 39 -81 59 4 6 14 8 24 4 9 -3 30 -11 46 -17z m3408 1 c-11 -13 -29
-34 -41 -47 l-22 -25 0 23 c0 26 42 71 66 71 16 0 15 -2 -3 -22z m417 -7 c0
-17 -5 -33 -11 -37 -7 -4 -1 -16 16 -34 26 -27 26 -29 11 -58 -22 -43 -20 -61
8 -72 34 -13 76 -51 76 -69 0 -8 -10 -25 -22 -38 -20 -21 -21 -26 -8 -76 11
-48 11 -57 -6 -81 -14 -23 -15 -32 -6 -47 10 -16 10 -21 -1 -25 -19 -7 -66 13
-73 31 -11 26 -24 16 -24 -18 0 -38 23 -77 34 -59 4 7 19 12 33 12 26 0 26 0
8 -20 -18 -20 -18 -21 5 -45 l23 -25 -31 0 c-26 0 -32 -4 -32 -22 -1 -29 -21
-56 -37 -51 -7 3 -34 -16 -60 -42 -39 -39 -51 -45 -72 -40 -35 9 -60 9 -96 1
-26 -7 -32 -4 -47 22 -10 17 -18 39 -18 50 0 17 8 19 68 21 52 1 74 -3 97 -18
30 -21 55 -14 55 14 0 12 -57 45 -79 45 -6 0 -11 5 -11 11 0 11 43 8 88 -6 18
-6 22 -4 22 13 0 36 -24 44 -112 41 -61 -3 -94 -10 -125 -26 l-43 -23 0 25 c0
27 -9 32 -28 13 -9 -9 -12 -7 -12 13 0 32 10 44 43 55 38 13 38 28 0 32 -20 2
-33 9 -35 20 -3 13 -10 10 -38 -15 -31 -28 -33 -33 -23 -54 6 -13 14 -48 18
-77 5 -43 3 -53 -11 -59 -28 -11 -44 24 -44 98 0 50 4 68 15 73 26 9 17 49
-15 71 -36 24 -42 51 -31 128 6 47 14 65 42 92 31 32 39 34 104 36 39 1 80 -1
93 -5 16 -6 22 -5 22 7 0 15 32 25 61 19 11 -2 15 -10 12 -21 -3 -13 -11 -17
-29 -13 -13 2 -24 0 -24 -4 1 -16 25 -41 47 -48 13 -4 30 -26 43 -54 12 -26
25 -54 29 -61 12 -24 58 -54 71 -46 8 5 6 11 -6 19 -16 12 -15 14 10 20 45 11
141 124 122 143 -5 5 -97 5 -191 0 -38 -2 -40 -1 -43 30 -3 28 0 33 25 39 31
8 75 38 67 47 -3 3 -20 1 -37 -3 -18 -5 -98 -11 -178 -15 l-147 -6 13 63 c20
94 55 116 125 78 35 -18 35 -18 69 3 30 18 39 19 78 9 70 -19 90 -16 105 18
17 40 48 41 48 1z m148 -13 c18 -18 15 -51 -4 -44 -9 3 -20 6 -25 6 -5 0 -9
11 -9 25 0 27 18 33 38 13z m-682 -17 c-3 -5 -20 -11 -38 -14 -18 -3 -43 -8
-55 -12 -17 -5 -23 -3 -23 8 0 8 6 18 13 20 21 9 108 7 103 -2z m-3381 -51
c-24 -26 -18 -45 28 -92 45 -47 157 -118 184 -118 21 0 103 -48 103 -60 0 -6
7 -10 15 -10 8 0 15 -4 15 -9 0 -5 14 -17 30 -25 17 -9 45 -24 62 -33 18 -9
53 -20 78 -24 26 -4 68 -22 100 -44 77 -52 162 -89 250 -110 41 -10 77 -20 80
-24 9 -11 78 -61 85 -61 3 0 11 -4 18 -10 109 -89 266 -169 377 -191 25 -5 83
-29 130 -52 65 -34 101 -45 152 -50 37 -3 75 -10 85 -15 17 -9 53 -24 126 -55
17 -8 53 -24 80 -35 26 -12 56 -22 66 -22 29 0 129 -41 134 -54 4 -9 -9 -11
-48 -8 -36 3 -76 -2 -122 -16 -92 -27 -234 -46 -288 -38 -24 4 -64 18 -89 31
-70 37 -204 48 -576 44 -389 -4 -580 13 -661 56 -33 18 -107 43 -161 55 -24 5
-70 19 -103 31 -43 15 -92 23 -170 26 -101 5 -111 4 -128 -15 -10 -11 -17 -29
-15 -39 4 -22 58 -50 111 -58 24 -4 37 -11 34 -18 -2 -7 -13 -11 -23 -9 -119
16 -137 14 -251 -29 -31 -12 -32 -71 -2 -93 l21 -14 -22 -22 c-17 -17 -19 -24
-9 -36 22 -27 67 -44 116 -44 45 0 47 -1 23 -13 -14 -7 -26 -19 -27 -27 -6
-34 14 -42 134 -51 134 -10 182 -19 268 -49 73 -25 153 -27 224 -6 45 13 72
14 185 5 123 -10 154 -15 296 -52 111 -29 240 -40 478 -43 193 -2 250 0 277
12 69 29 359 12 560 -32 40 -9 145 -18 245 -21 167 -6 178 -7 238 -35 43 -21
66 -38 73 -55 8 -23 60 -129 87 -179 21 -40 52 -114 52 -126 0 -16 26 -142 47
-223 25 -99 89 -280 105 -299 13 -15 9 -94 -6 -155 -29 -115 -38 -169 -43
-271 -4 -76 -10 -110 -22 -125 -37 -45 -65 -133 -77 -242 -4 -32 -15 -70 -25
-85 -11 -14 -19 -34 -19 -43 0 -10 -4 -34 -10 -54 -5 -20 -11 -47 -14 -61 -3
-14 -18 -39 -34 -57 -16 -17 -39 -48 -52 -67 -12 -20 -27 -42 -33 -49 -7 -6
-23 -32 -36 -57 -14 -25 -27 -47 -31 -50 -19 -14 -104 -222 -119 -290 -7 -34
-21 -80 -43 -145 -5 -16 -14 -43 -18 -60 -5 -16 -18 -55 -29 -85 -36 -100 -63
-214 -71 -301 -5 -48 -16 -102 -26 -120 -16 -33 -93 -138 -124 -170 -8 -8 -24
-31 -34 -50 -18 -31 -156 -216 -197 -264 -31 -36 -146 -191 -158 -212 -6 -12
-17 -27 -23 -35 -26 -27 -68 -87 -68 -96 0 -6 -4 -12 -8 -14 -10 -3 -17 -16
-86 -155 -26 -54 -52 -106 -57 -115 -5 -10 -9 -23 -9 -30 0 -7 -9 -35 -19 -63
-11 -27 -27 -77 -36 -110 -10 -33 -24 -75 -31 -93 -8 -18 -14 -39 -14 -48 0
-8 -9 -34 -20 -56 -11 -23 -20 -49 -20 -57 0 -9 -7 -25 -15 -35 -8 -11 -15
-26 -15 -34 0 -16 -68 -154 -80 -162 -4 -3 -31 -34 -60 -69 l-53 -64 -121 6
c-72 3 -157 14 -211 27 -97 23 -103 25 -242 70 -113 37 -136 38 -158 4 -16
-24 -15 -27 11 -62 26 -33 23 -32 -36 17 -36 30 -77 67 -91 82 -14 16 -28 29
-32 29 -7 0 -277 269 -277 276 0 3 -19 24 -43 47 -23 23 -62 67 -86 97 -25 30
-50 60 -56 65 -13 12 -215 274 -215 279 0 2 -18 30 -40 62 -87 126 -120 176
-120 180 0 2 -16 28 -35 58 -19 30 -35 57 -35 60 0 3 -13 25 -30 49 -16 25
-30 50 -30 57 0 7 -8 24 -19 38 -10 15 -36 63 -58 107 -21 44 -44 89 -50 100
-5 11 -17 36 -25 55 -9 19 -30 67 -48 105 -18 39 -36 81 -41 95 -4 14 -17 50
-29 80 -12 30 -31 82 -42 115 -11 33 -28 83 -38 110 -24 68 -43 137 -98 345
-37 138 -56 240 -97 510 -42 275 -45 896 -6 1172 37 254 69 433 102 558 51
189 79 288 92 320 5 14 22 63 37 110 16 47 33 96 38 110 5 14 18 45 27 70 10
25 26 65 38 90 11 25 26 59 33 75 19 45 153 316 172 350 10 17 37 66 62 110
39 72 76 131 97 160 5 6 17 26 27 45 10 19 25 42 32 50 16 20 84 121 84 126 0
4 10 16 48 60 10 11 21 28 25 37 3 9 11 17 17 17 5 0 10 4 10 10 0 10 20 37
53 72 9 10 17 23 17 28 0 6 7 13 15 16 8 4 15 10 15 14 0 5 20 30 45 57 25 26
45 52 45 57 0 5 9 1 20 -9 18 -16 19 -20 5 -35z m7571 -53 c19 -21 34 -43 34
-47 0 -5 6 -13 13 -17 8 -4 26 -27 42 -50 15 -24 32 -43 36 -43 5 0 9 -7 9
-15 0 -9 7 -18 15 -21 8 -4 15 -12 15 -20 0 -8 4 -14 8 -14 5 0 17 -16 28 -35
10 -19 22 -35 26 -35 5 0 8 -5 8 -10 0 -6 4 -16 10 -23 42 -52 60 -76 60 -80
0 -3 14 -26 30 -50 17 -25 30 -50 30 -56 0 -6 4 -11 9 -11 5 0 16 -15 26 -32
9 -18 24 -46 32 -63 9 -16 19 -32 22 -35 13 -11 183 -345 231 -455 76 -172 76
-173 99 -240 11 -33 32 -91 47 -130 14 -38 30 -85 34 -103 5 -19 13 -46 18
-60 5 -15 17 -56 27 -92 9 -36 25 -96 35 -135 10 -38 25 -104 34 -145 8 -41
22 -107 31 -146 8 -40 15 -82 15 -95 0 -13 9 -82 20 -154 53 -357 53 -815 -1
-1210 -28 -204 -65 -405 -98 -525 -10 -36 -26 -94 -35 -130 -10 -36 -22 -78
-27 -95 -6 -16 -14 -43 -19 -60 -9 -33 -63 -190 -84 -245 -35 -89 -59 -148
-76 -185 -10 -22 -30 -67 -45 -100 -36 -82 -108 -229 -115 -235 -3 -3 -13 -20
-22 -38 -47 -90 -104 -191 -127 -227 -36 -56 -48 -77 -62 -102 -7 -13 -16 -23
-21 -23 -4 0 -8 -4 -8 -10 0 -5 -18 -36 -41 -67 -22 -32 -50 -73 -61 -90 -11
-18 -24 -33 -29 -33 -5 0 -9 -5 -9 -11 0 -10 -75 -114 -109 -151 -9 -9 -20
-23 -26 -30 -26 -34 -91 -114 -110 -134 -169 -186 -172 -189 -407 -417 -27
-26 -51 -47 -54 -47 -2 0 -12 -8 -23 -18 -51 -48 -87 -77 -215 -176 -76 -60
-154 -117 -172 -128 -19 -11 -34 -24 -34 -28 0 -4 -8 -10 -17 -13 -10 -4 -29
-14 -43 -23 -14 -10 1 8 33 40 49 48 58 61 53 82 -4 14 -18 29 -32 34 -29 11
-57 5 -189 -38 -128 -43 -204 -60 -336 -73 -203 -21 -242 6 -361 251 -61 127
-77 171 -97 263 -5 21 -14 44 -20 50 -6 6 -11 18 -11 28 0 9 -8 38 -19 65 -30
81 -42 117 -52 159 -6 22 -14 44 -20 50 -5 5 -9 15 -9 22 0 24 -114 262 -143
299 -31 40 -87 126 -87 133 0 5 -9 16 -20 26 -11 10 -20 24 -20 32 0 7 -4 13
-10 13 -5 0 -14 19 -21 42 -6 24 -24 69 -40 100 -16 31 -29 67 -29 80 0 65
-44 196 -96 288 -25 43 -44 94 -65 170 -5 19 -13 103 -18 185 -8 148 -12 165
-62 280 -27 63 -42 117 -49 175 -7 70 -17 100 -31 100 -5 0 -9 5 -9 12 0 11
-36 92 -87 196 -15 28 -30 52 -35 52 -4 0 -8 7 -8 15 0 8 -4 15 -9 15 -5 0
-20 21 -32 48 -12 26 -37 79 -55 117 -18 39 -35 95 -39 125 -18 151 -72 342
-106 370 -34 29 -47 155 -23 235 9 33 19 88 21 123 4 55 2 67 -20 96 -23 30
-26 45 -33 163 -6 118 -5 134 13 174 19 41 31 79 53 169 4 19 13 49 18 65 6
17 20 64 32 105 12 41 27 86 32 100 6 14 14 39 18 55 20 74 82 235 92 235 4 0
8 4 8 10 0 23 86 108 118 117 23 6 37 5 249 -18 110 -11 126 -11 160 4 125 55
569 50 681 -7 34 -17 164 -36 240 -36 77 1 234 23 302 43 187 54 188 54 705
72 304 10 400 17 434 29 24 9 54 16 66 16 26 0 65 31 65 52 0 28 -24 38 -99
39 -73 1 -74 2 -31 10 144 28 200 53 200 89 0 9 11 22 24 28 29 13 44 65 26
87 -7 8 -28 15 -46 15 -32 0 -33 1 -23 27 8 22 6 30 -13 50 -38 38 -150 49
-370 36 -159 -9 -189 -14 -228 -34 -25 -13 -46 -27 -48 -31 -2 -4 -8 -8 -14
-8 -5 0 -24 -10 -41 -22 -31 -22 -38 -23 -277 -22 -135 0 -312 7 -395 14 -173
14 -445 0 -528 -28 -40 -13 -54 -14 -90 -4 -64 19 -184 36 -259 36 -52 1 -64
4 -56 14 6 6 17 12 24 12 8 0 14 3 14 8 0 4 24 18 53 30 28 13 79 37 112 54
90 45 170 68 239 68 80 0 126 16 336 118 96 46 191 91 210 100 19 9 58 30 85
48 28 17 66 40 85 50 19 11 39 25 43 32 4 6 19 12 32 12 14 0 25 4 25 9 0 5
15 16 33 25 17 9 52 28 76 42 25 13 62 29 83 36 21 6 38 15 38 20 0 4 7 8 15
8 7 0 18 7 23 16 6 10 41 20 113 31 98 14 106 17 139 52 19 20 75 56 123 80
104 52 207 143 207 182 -1 28 -22 59 -40 59 -8 0 -22 -7 -32 -17 -12 -10 -18
-12 -18 -4 0 7 28 25 63 41 l62 29 18 -22 c10 -12 34 -39 53 -60z m-4186 43
c0 -10 -38 -20 -75 -19 l-30 1 39 18 c37 17 66 17 66 0z m-217 -4 c23 -18 22
-23 -8 -30 -13 -3 -32 -20 -40 -36 -18 -34 -35 -39 -35 -11 0 26 39 91 53 91
7 0 20 -7 30 -14z m-2964 -5 c9 -6 10 -11 2 -15 -6 -4 -21 0 -33 8 -21 15 -21
16 -3 16 11 0 26 -4 34 -9z m3923 -28 c10 -9 18 -28 18 -43 0 -35 22 -56 38
-37 6 7 9 24 6 38 l-6 24 21 -24 c23 -26 26 -37 11 -46 -5 -3 -10 -21 -10 -40
0 -38 12 -45 76 -45 31 0 44 -4 44 -14 0 -9 -17 -15 -52 -19 -29 -3 -63 -8
-74 -12 -18 -5 -23 -1 -33 26 -6 17 -11 45 -11 60 0 23 -8 32 -40 49 -42 22
-47 34 -28 75 13 30 16 30 40 8z m-4013 -17 c7 -8 25 -17 40 -21 33 -7 71 -40
71 -61 0 -12 -5 -12 -37 2 -21 9 -45 19 -53 22 -20 8 -70 53 -70 64 0 13 37 9
49 -6z m7246 4 c-7 -11 -96 -52 -102 -47 -3 4 86 54 100 56 5 0 5 -3 2 -9z
m-4005 -10 c0 -5 -15 -10 -32 -10 -25 0 -29 3 -18 10 20 13 50 13 50 0z m4011
-60 c-22 -22 -49 -40 -58 -40 -10 0 -27 -12 -40 -27 l-22 -28 -1 28 c0 30 41
63 92 74 15 3 33 12 39 19 6 8 16 14 21 14 6 0 -8 -18 -31 -40z m-7026 -1 c4
-12 2 -26 -4 -32 -6 -6 -11 -20 -11 -31 0 -18 -1 -19 -20 -1 -12 11 -20 31
-20 52 0 28 3 33 24 33 16 0 27 -7 31 -21z m2856 -36 c-8 -15 -10 -15 -11 -2
0 17 10 32 18 25 2 -3 -1 -13 -7 -23z m123 17 c-7 -7 -19 -7 -35 -1 -23 9 -22
10 11 10 23 1 31 -2 24 -9z m756 -15 c14 -16 10 -18 -14 -9 -9 3 -16 10 -16
15 0 14 16 11 30 -6z m206 0 l29 -15 -32 0 c-23 0 -33 5 -33 15 0 18 1 18 36
0z m-1154 -17 c-7 -7 -12 -8 -12 -2 0 14 12 26 19 19 2 -3 -1 -11 -7 -17z
m-52 -6 c0 -5 -13 -21 -30 -37 -30 -29 -36 -24 -24 23 4 15 14 22 30 22 13 0
24 -4 24 -8z m141 -56 c-12 -31 -9 -30 -56 -10 -21 8 -46 13 -57 11 -10 -3
-18 -1 -18 3 0 14 33 16 74 5 33 -8 41 -7 50 7 15 24 18 16 7 -16z m909 -19
c0 -9 13 -25 30 -36 32 -19 30 -31 -5 -31 -32 0 -45 20 -45 70 0 33 3 41 10
30 5 -8 10 -23 10 -33z m-870 -37 c0 -5 -5 -10 -11 -10 -5 0 -7 5 -4 10 3 6 8
10 11 10 2 0 4 -4 4 -10z m1020 -10 c0 -10 -32 -30 -49 -30 -15 0 -14 27 2 33
21 9 47 7 47 -3z m-1115 -20 c-10 -11 -25 -20 -34 -20 -12 1 -10 5 8 20 30 26
49 26 26 0z m85 -24 c0 -2 -7 -9 -15 -16 -12 -10 -15 -10 -15 4 0 9 7 16 15
16 8 0 15 -2 15 -4z m805 -72 c-14 -19 -31 -32 -36 -29 -14 10 -11 18 24 58
41 48 52 23 12 -29z m125 46 c0 -24 -8 -25 -44 -7 -30 16 -24 27 16 27 21 0
28 -5 28 -20z m141 0 c25 -14 24 -44 -3 -80 -24 -33 -21 -40 25 -55 17 -5 33
-18 35 -27 5 -23 -17 -22 -48 2 -14 11 -31 20 -39 20 -15 0 -12 23 10 78 11
26 11 36 1 52 -14 22 -9 25 19 10z m-67 -48 c0 -25 -8 -50 -16 -59 -15 -14
-16 -10 -15 46 1 49 5 61 17 58 11 -2 15 -15 14 -45z m-1094 -12 c0 -40 -13
-53 -24 -25 -5 15 9 65 19 65 3 0 5 -18 5 -40z m107 -22 c-2 -13 -4 -5 -4 17
-1 22 1 32 4 23 2 -10 2 -28 0 -40z m57 19 c4 -19 3 -26 -4 -22 -5 3 -10 18
-10 32 0 32 5 28 14 -10z m820 7 c18 -17 19 -24 10 -49 -6 -14 -10 -12 -25 12
-31 46 -20 72 15 37z m-1023 -55 c16 -22 19 -33 10 -42 -14 -14 -40 18 -41 51
0 29 4 28 31 -9z m955 -16 c-14 -14 -23 4 -13 27 l10 25 5 -23 c2 -13 1 -26
-2 -29z m-806 -23 c14 -10 21 -22 17 -26 -9 -9 -54 14 -61 32 -8 20 15 17 44
-6z m90 7 c0 -7 -12 -29 -26 -48 -16 -21 -24 -27 -21 -14 4 11 9 32 13 48 6
27 34 39 34 14z m864 -22 c18 -14 47 -28 64 -31 18 -4 32 -11 32 -16 0 -16
-31 -21 -48 -6 -33 28 -73 40 -89 27 -22 -19 -36 3 -17 29 19 27 18 27 58 -3z
m-984 -47 c0 -22 -12 -58 -19 -58 -3 0 -12 4 -20 9 -12 8 -13 14 -3 35 12 27
42 36 42 14z m440 -3 c-7 -8 -24 -15 -37 -15 -22 0 -24 2 -13 15 7 8 24 15 37
15 22 0 24 -2 13 -15z m469 -10 c12 -12 11 -19 -11 -47 -13 -18 -28 -42 -33
-53 -8 -19 -9 -19 -13 4 -2 13 2 27 8 31 15 9 5 60 -10 60 -6 0 -10 7 -10 16
0 13 6 15 28 9 15 -3 33 -13 41 -20z m101 -65 c0 -10 -48 -26 -55 -18 -2 2 -2
21 2 43 l6 38 24 -27 c12 -15 23 -31 23 -36z m-915 -10 c-4 -12 -9 -19 -12
-17 -3 3 -2 15 2 27 4 12 9 19 12 17 3 -3 2 -15 -2 -27z m203 6 c3 -12 -1 -17
-10 -14 -7 3 -15 13 -16 22 -3 12 1 17 10 14 7 -3 15 -13 16 -22z m-58 -21 c0
-8 -9 -15 -20 -15 -20 0 -26 11 -13 23 12 13 33 7 33 -8z m774 -20 c-7 -16
-24 -21 -24 -6 0 8 7 13 27 20 1 1 0 -6 -3 -14z m-78 -36 c9 -16 -44 -59 -73
-59 -32 0 -27 13 17 44 41 28 46 30 56 15z m-875 -60 l-10 -24 0 26 c-1 14 2
29 6 33 12 12 14 -9 4 -35z m87 -15 l3 -49 -21 20 c-16 16 -19 28 -14 53 10
48 29 33 32 -24z m155 11 c48 -47 54 -59 38 -84 -9 -13 10 -56 31 -71 4 -3 10
-25 14 -48 6 -38 5 -42 -14 -42 -20 0 -92 64 -92 82 0 4 -9 8 -19 8 -17 0 -18
-4 -11 -31 5 -17 15 -38 22 -47 11 -13 11 -14 -1 -11 -17 6 -54 96 -45 111 4
5 19 8 35 6 31 -5 36 3 16 24 -35 36 -63 105 -58 141 3 20 41 2 84 -38z m727
35 c-8 -5 -24 -9 -35 -9 l-20 0 20 9 c11 5 27 9 35 9 13 1 13 0 0 -9z m-1090
-53 c0 -16 -4 -26 -10 -22 -5 3 -10 23 -10 43 0 28 3 33 10 22 5 -8 10 -28 10
-43z m821 1 c-12 -4 -21 -10 -21 -14 0 -14 52 -54 115 -89 36 -20 68 -41 71
-46 11 -18 -27 -48 -81 -64 -53 -15 -237 -21 -269 -9 -10 4 -16 18 -16 39 0
19 -5 46 -10 61 -10 25 -11 26 -29 10 -13 -11 -20 -13 -23 -6 -2 6 -19 15 -38
19 -29 5 -36 12 -38 35 -3 24 -1 27 18 21 12 -4 27 -1 36 6 11 9 20 9 40 0 25
-11 64 -7 64 7 1 4 12 21 26 37 l26 30 -6 -57 c-3 -32 -3 -58 0 -58 11 0 43
45 44 62 0 29 11 47 25 42 8 -3 22 -1 32 4 13 8 23 6 36 -6 17 -16 17 -16 -2
-24z m857 23 c23 -5 46 -12 50 -16 7 -7 -19 -32 -74 -70 -15 -11 -53 -40 -84
-65 l-55 -45 -162 3 c-145 3 -166 2 -200 -16 -51 -26 -143 -56 -150 -48 -13
12 21 37 43 32 46 -12 74 22 37 43 -14 8 -16 14 -7 28 11 18 92 41 224 63 36
6 81 16 100 22 l35 11 -28 12 c-24 10 -26 13 -13 24 31 26 197 39 284 22z
m-2094 -21 c33 -5 83 -10 112 -10 62 0 157 -29 215 -66 l43 -27 -39 -34 c-38
-33 -42 -34 -95 -27 -76 11 -127 9 -181 -6 -46 -13 -119 -7 -119 9 0 5 -32 40
-72 79 -39 40 -69 74 -66 77 9 9 100 23 123 19 11 -2 47 -8 79 -14z m1416 6
c0 -16 -18 -31 -27 -22 -8 8 5 36 17 36 5 0 10 -6 10 -14z m-912 -73 c4 -38
-10 -43 -32 -11 -23 32 -20 50 7 46 17 -2 23 -11 25 -35z m-66 -33 c16 -38 16
-40 -1 -40 -21 0 -46 42 -38 64 10 25 21 19 39 -24z m-3112 -31 c25 -5 65 -19
89 -31 36 -18 41 -22 26 -30 -26 -15 -84 0 -111 29 -21 23 -25 24 -58 12 -27
-10 -41 -10 -61 -1 -14 7 -40 13 -58 14 -27 1 -25 2 13 8 69 11 111 10 160 -1z
m3230 -21 c0 -7 -12 -23 -27 -35 -22 -19 -38 -23 -100 -23 -71 0 -73 1 -73 24
0 37 17 41 55 12 18 -14 38 -26 42 -26 5 0 24 13 43 30 37 31 60 38 60 18z
m408 -18 c20 0 22 -4 17 -22 -11 -34 -21 -41 -49 -34 -20 5 -26 13 -26 35 0
33 10 45 24 31 5 -5 21 -10 34 -10z m-302 -26 c13 -14 24 -27 24 -30 0 -2 -35
-4 -77 -3 -75 1 -77 1 -47 14 17 8 34 21 37 30 9 23 37 18 63 -11z m-3015 -46
c68 -36 79 -54 79 -131 0 -91 -5 -97 -66 -97 -52 0 -82 11 -179 64 -27 14 -27
16 -8 16 25 0 73 20 73 30 0 13 -24 26 -69 39 -25 7 -54 19 -66 27 -14 9 -45
14 -84 13 -66 -2 -95 11 -73 33 9 9 16 8 30 -5 17 -16 20 -16 32 -2 10 12 35
15 111 15 74 0 101 4 111 15 19 22 42 18 109 -17z m2658 16 c78 -22 86 -27 89
-58 4 -31 18 -33 52 -6 22 17 41 20 167 20 78 0 148 -3 157 -6 33 -13 7 -94
-29 -94 -7 0 -34 -9 -60 -21 -34 -15 -44 -24 -36 -32 7 -7 28 -6 71 6 91 26
128 23 166 -14 l32 -31 48 17 c52 18 148 14 187 -7 26 -14 31 -4 12 25 -15 24
-32 33 -85 46 -23 6 -25 11 -23 55 1 26 3 50 6 52 2 2 46 0 98 -6 52 -5 149
-10 217 -10 67 0 122 -3 122 -7 0 -15 -15 -28 -30 -28 -8 0 -16 -11 -18 -25
-5 -37 -19 -45 -26 -16 -8 33 -20 33 -34 1 -6 -14 -16 -25 -21 -25 -12 0 -41
-29 -41 -41 0 -13 37 -11 46 2 4 8 9 8 17 0 6 -6 20 -11 32 -11 11 0 33 -14
49 -30 16 -17 33 -30 39 -30 5 0 20 -9 34 -20 14 -11 37 -20 51 -20 24 0 23 1
-16 44 -23 25 -44 56 -48 71 -8 32 16 143 36 166 17 20 148 39 273 39 63 0 77
-3 77 -16 0 -23 -67 -159 -95 -192 -12 -15 -30 -44 -38 -65 -19 -44 -35 -62
-65 -71 -32 -11 -72 -68 -72 -104 0 -47 21 -39 48 18 13 28 30 50 39 50 15 0
83 67 83 81 0 5 14 28 30 52 17 25 30 49 30 54 0 6 9 18 20 28 20 18 20 17 20
-83 l0 -100 -77 -53 c-82 -55 -123 -89 -123 -101 0 -13 35 -9 56 7 28 21 38
18 22 -7 -8 -13 -23 -60 -34 -105 -10 -46 -24 -83 -29 -83 -26 0 -35 27 -35
102 0 45 -4 78 -10 78 -5 0 -10 -4 -10 -9 0 -6 -13 -30 -30 -54 -16 -25 -30
-49 -30 -55 0 -5 -7 -12 -15 -16 -8 -3 -15 -12 -15 -20 0 -8 -24 -36 -54 -63
-66 -60 -130 -79 -215 -63 -30 5 -69 10 -88 10 -43 0 -128 43 -144 72 -7 13
-18 46 -25 75 -13 57 -60 127 -78 116 -6 -4 -20 -7 -31 -8 -17 0 -21 -8 -25
-62 -4 -54 -10 -67 -40 -98 -145 -149 -426 -166 -572 -35 -29 26 -50 51 -47
54 3 3 32 -12 65 -34 97 -66 115 -46 34 38 -27 28 -61 69 -75 92 -14 22 -32
40 -41 40 -24 0 -37 18 -83 113 -24 49 -49 91 -57 94 -8 3 -14 10 -14 15 0 6
-15 29 -32 51 -43 53 -98 162 -98 191 0 14 8 26 18 29 9 4 40 15 67 26 63 24
178 27 254 5z m-449 -75 c0 -39 -3 -69 -7 -67 -34 14 -113 72 -113 81 0 12 84
56 108 57 8 0 12 -21 12 -71z m4944 65 c35 -5 46 -11 46 -24 0 -33 -64 -34
-190 -1 l-115 30 106 0 c58 1 127 -2 153 -5z m-314 -18 c-51 -19 -39 -31 35
-34 51 -2 67 -7 72 -20 3 -9 15 -27 27 -40 l21 -24 -143 4 -142 3 0 -32 c0
-40 30 -61 54 -38 16 17 72 20 81 5 3 -5 0 -10 -7 -10 -7 0 -35 -11 -63 -25
-28 -13 -68 -25 -91 -25 -43 0 -58 11 -84 62 -7 15 -22 30 -32 34 -24 7 -20
35 7 49 11 6 39 23 63 38 66 43 132 66 187 66 l50 -1 -35 -12z m-7329 -8 c31
-10 48 -24 49 -39 0 -3 -24 -7 -53 -8 -38 -1 -58 3 -67 14 -16 19 -30 19 -30
0 0 -18 -47 -32 -61 -18 -12 12 24 38 72 51 46 14 51 14 90 0z m3739 -48 c30
-32 84 -42 93 -17 3 6 6 0 6 -15 1 -29 -30 -58 -61 -58 -10 0 -36 12 -57 28
-33 22 -40 33 -41 60 0 42 22 42 60 2z m-3016 10 c32 -5 60 -11 62 -13 2 -2
-4 -26 -14 -53 -16 -47 -18 -49 -52 -46 -19 1 -41 -2 -49 -7 -23 -15 -1 -32
40 -29 21 1 42 -1 45 -5 4 -4 -9 -7 -29 -7 -19 0 -42 -3 -51 -6 -24 -9 -19
-32 8 -36 21 -3 23 -5 12 -20 -7 -9 -24 -20 -39 -23 l-27 -7 0 131 c0 149 -8
138 94 121z m956 -26 c47 -19 55 -40 65 -174 12 -148 -15 -173 -152 -146 -70
15 -93 15 -167 4 -105 -15 -149 -9 -438 57 -37 8 -78 15 -92 15 -33 0 -42 19
-56 120 -6 47 -13 97 -16 113 l-6 27 411 0 c354 0 416 -2 451 -16z m1093 -11
c6 -16 14 -30 18 -33 3 -3 16 -25 30 -50 13 -25 27 -47 30 -50 3 -3 14 -20 24
-37 11 -18 22 -33 26 -33 4 0 9 -8 13 -17 3 -10 15 -31 25 -48 11 -16 27 -43
35 -59 14 -26 14 -27 -2 -15 -9 8 -26 23 -38 34 -12 11 -44 41 -72 67 -29 26
-52 52 -52 58 0 6 -7 13 -15 16 -8 4 -15 10 -15 15 0 5 -9 18 -20 29 -16 16
-20 33 -20 85 0 69 12 84 33 38z m-206 1 c41 -16 57 -34 31 -34 -22 0 -108 34
-108 42 0 13 31 9 77 -8z m-217 -3 c36 -5 86 -18 110 -31 67 -32 119 -51 180
-64 l55 -12 0 -109 0 -110 -33 -3 c-31 -3 -120 22 -252 71 -36 13 -99 27 -140
31 -114 11 -203 27 -220 40 -42 34 -145 86 -173 89 -47 3 -41 -22 13 -50 25
-12 55 -31 67 -42 12 -10 53 -30 90 -44 61 -22 109 -33 278 -58 50 -8 5 -7
-341 7 -161 7 -161 7 -176 33 -17 29 -31 140 -20 157 4 6 16 14 27 19 45 19
240 72 290 78 56 7 180 6 245 -2z m5444 -11 c21 -20 -10 -29 -99 -28 -52 0
-95 3 -95 5 0 2 4 12 9 21 8 15 22 17 93 14 45 -2 87 -8 92 -12z m-2129 -8
c107 -27 115 -34 115 -113 0 -95 -9 -126 -45 -165 l-32 -34 -200 0 c-138 0
-207 4 -226 13 -36 16 -34 27 6 27 41 0 62 13 54 34 -12 32 -49 22 -217 -56
l-75 -35 -109 6 c-90 6 -111 10 -122 26 -29 39 -17 57 72 106 194 106 326 161
459 189 33 7 65 14 70 15 33 11 190 2 250 -13z m755 3 c74 -8 231 -15 348 -15
l212 0 0 -27 c0 -66 -34 -103 -92 -103 -13 0 -56 -11 -97 -24 -94 -30 -71 -41
55 -26 88 10 117 8 69 -4 -44 -11 -17 -25 35 -19 42 5 50 3 50 -10 0 -28 -30
-34 -185 -42 -138 -6 -236 -21 -385 -60 -133 -34 -172 -40 -280 -39 -111 0
-239 20 -294 46 -26 11 -26 12 -26 140 0 71 4 137 9 147 6 11 33 23 68 30 32
7 63 15 68 16 30 10 329 3 445 -10z m-6411 -38 c6 -8 8 -17 4 -20 -10 -11 -48
-8 -61 5 -9 9 -18 9 -37 0 -31 -14 -75 -16 -75 -3 0 10 77 28 126 30 17 0 37
-5 43 -12z m7681 -35 l44 -7 -24 -16 c-24 -16 -151 -39 -210 -39 -23 0 -31 5
-36 26 -11 44 -35 24 -53 -43 -9 -33 -27 -75 -40 -92 -43 -56 -56 -31 -20 39
11 22 23 58 26 81 4 29 12 43 27 49 25 10 222 11 286 2z m-7404 -52 c6 0 17 6
23 14 10 11 22 8 73 -18 50 -24 75 -31 125 -31 35 0 63 -3 63 -7 0 -4 -19 -17
-41 -29 -33 -17 -54 -20 -108 -16 -36 2 -84 9 -106 15 -75 20 -210 42 -257 42
-70 0 -67 16 5 29 87 15 96 14 118 -11 11 -13 19 -18 18 -13 -1 6 -1 22 0 38
l1 27 37 -20 c21 -11 43 -20 49 -20z m7044 -35 c0 -8 -23 -37 -50 -65 l-51
-50 -72 0 c-47 1 -79 6 -91 15 -19 15 -19 16 9 45 26 27 35 30 94 30 46 1 77
7 101 20 42 23 60 25 60 5z m-4540 -91 c25 -59 27 -97 3 -92 -10 2 -23 14 -30
28 -19 37 -16 110 3 110 2 0 12 -21 24 -46z m4865 26 c-18 -7 -53 -14 -187
-35 -30 -5 -38 -3 -38 9 0 27 33 35 140 35 65 0 97 -3 85 -9z m-4785 -62 c0
-6 12 -22 26 -35 17 -16 23 -28 17 -34 -15 -15 -37 -1 -55 37 -22 43 -23 55
-3 48 8 -4 15 -11 15 -16z m97 -133 c9 -25 -2 -27 -22 -5 -17 18 -17 20 -1 20
9 0 19 -7 23 -15z m23 -127 c0 -41 -15 -51 -25 -18 -3 11 -10 20 -15 20 -4 0
-10 12 -13 28 -3 15 -9 38 -13 52 -7 23 -5 23 29 -10 30 -28 37 -42 37 -72z
m871 20 c12 -46 46 -106 73 -130 14 -14 36 -18 87 -18 38 0 86 -6 106 -14 52
-19 136 -28 190 -20 36 5 54 16 95 57 46 46 51 48 44 24 -6 -26 -5 -27 14 -15
11 7 20 16 20 20 0 4 8 12 18 17 15 8 18 4 19 -32 1 -23 2 -49 3 -57 2 -8 -8
-55 -20 -105 -49 -195 -59 -223 -93 -256 -30 -30 -32 -37 -29 -90 2 -58 -17
-127 -45 -160 -26 -31 -12 -147 28 -222 17 -32 40 -108 41 -136 1 -15 -5 -49
-12 -76 -10 -41 -19 -53 -46 -66 -19 -9 -34 -15 -34 -14 0 14 24 65 31 65 5 0
9 5 9 11 0 7 8 18 18 25 15 12 15 13 1 14 -9 0 -32 -12 -52 -27 -36 -29 -53
-69 -35 -90 7 -8 3 -17 -11 -30 -12 -9 -21 -23 -21 -30 0 -7 -4 -13 -9 -13 -9
0 -26 -34 -72 -137 -11 -27 -36 -79 -54 -118 -38 -77 -31 -96 17 -44 58 65 92
124 138 238 12 29 30 63 40 73 18 20 18 19 13 -21 -6 -45 8 -56 27 -21 6 11
14 20 19 20 4 0 8 -116 9 -257 2 -234 13 -480 27 -605 7 -60 -6 -62 -59 -8
-38 39 -56 49 -56 32 0 -5 27 -46 60 -92 33 -46 63 -94 66 -107 12 -47 -3
-468 -21 -583 -9 -63 -19 -117 -22 -120 -4 -5 -153 145 -153 154 0 3 -10 16
-23 30 -12 13 -29 37 -37 53 -8 15 -18 30 -21 33 -9 7 -75 133 -87 167 -6 15
-20 53 -32 83 -58 151 -63 172 -51 205 6 17 11 56 11 86 l1 54 13 -35 c7 -19
19 -48 28 -65 9 -16 24 -45 33 -62 10 -18 21 -33 26 -33 5 0 9 -5 9 -11 0 -14
51 -81 58 -75 5 6 -55 134 -74 156 -28 33 -55 131 -57 203 -2 67 0 75 32 120
18 26 39 70 46 97 11 43 11 50 -4 63 -24 22 -41 10 -42 -31 -1 -26 -3 -30 -6
-12 -9 56 -32 85 -98 121 -26 14 -33 15 -55 3 -14 -7 -42 -20 -63 -29 -22 -8
-41 -23 -44 -35 -5 -20 -23 -28 -23 -11 0 4 -10 21 -21 35 l-22 28 -30 -33
-30 -33 -18 23 c-11 13 -19 38 -19 56 0 19 -5 46 -11 62 l-11 28 -19 -24 c-12
-14 -19 -39 -19 -63 0 -36 -1 -38 -16 -23 -27 27 -39 12 -36 -42 3 -36 -1 -53
-12 -62 -21 -17 -20 -23 4 -51 11 -13 20 -28 20 -35 0 -21 60 -63 106 -74 24
-6 44 -15 44 -19 0 -7 -64 -135 -104 -207 -51 -92 -212 -311 -275 -376 -20
-20 -45 -47 -57 -60 -32 -37 -132 -122 -160 -137 -22 -12 -25 -11 -34 13 -6
16 -10 201 -10 468 0 348 -3 460 -15 527 -28 158 -15 220 36 174 19 -18 20
-17 13 93 -6 101 -5 117 17 180 31 92 55 126 82 117 12 -4 27 -13 35 -20 16
-16 62 -19 62 -4 0 6 -12 22 -26 35 -54 50 -74 87 -74 134 0 52 23 170 50 251
10 30 22 76 25 101 6 39 3 50 -17 75 -27 34 -60 101 -78 159 -7 22 -19 55 -26
73 -8 18 -14 40 -14 49 0 9 -9 46 -19 82 -20 68 -51 194 -51 206 0 4 7 4 16 1
31 -12 54 3 54 35 0 23 4 30 17 27 14 -2 17 -13 14 -56 -2 -40 2 -58 17 -77
24 -30 27 -26 36 38 8 54 10 55 98 27 104 -33 154 -35 228 -10 96 32 210 92
210 110 0 5 8 11 19 15 22 7 71 93 71 126 1 23 1 24 16 4 8 -11 19 -36 25 -57z
m631 -1662 c24 -111 20 -189 -16 -281 -10 -27 -12 -18 -17 75 -4 58 -7 148 -8
200 -1 91 0 94 16 71 9 -13 20 -42 25 -65z m-544 -208 c7 -7 12 -36 12 -65 0
-29 4 -53 10 -53 13 0 30 34 30 61 0 12 3 20 6 16 12 -12 -9 -89 -32 -116 -14
-17 -41 -33 -68 -40 l-44 -11 0 -92 c0 -51 4 -109 10 -128 8 -28 6 -44 -6 -73
-17 -41 -26 -45 -49 -19 -12 13 -16 48 -20 167 l-4 150 -28 14 c-16 8 -38 24
-50 37 -29 31 -37 30 -30 -3 6 -26 5 -26 -8 -10 -17 21 -47 22 -47 2 0 -22
-13 -18 -40 13 -14 15 -34 32 -45 37 -19 8 -19 9 3 12 14 3 22 11 22 24 0 18
4 20 30 14 24 -5 30 -3 30 10 0 25 26 1 34 -30 8 -33 30 -32 42 3 l10 27 24
-49 c27 -56 53 -86 75 -86 8 0 15 9 15 20 0 11 7 20 15 20 19 0 19 4 -1 41
-17 33 -16 80 3 86 6 2 14 -11 18 -29 8 -37 31 -68 52 -68 17 0 17 15 -2 30
-25 20 -17 100 9 100 7 0 17 -5 24 -12z m-974 -562 c-2 -226 -3 -414 -4 -418
0 -8 -81 -68 -92 -68 -4 0 -8 24 -8 54 0 31 -5 58 -12 62 -13 8 -37 -21 -44
-56 -10 -46 -47 -120 -61 -120 -7 0 -13 -4 -13 -9 0 -12 -67 -51 -87 -51 -19
0 -82 -64 -103 -106 -8 -16 -17 -31 -21 -34 -3 -3 -18 -23 -35 -45 -38 -52
-46 -62 -64 -82 -8 -9 -18 -46 -21 -82 -4 -36 -10 -81 -14 -99 l-8 -33 29 13
c62 28 81 73 47 110 -16 18 -16 21 2 54 13 24 28 37 47 41 19 4 28 12 28 25 0
10 18 52 41 93 31 57 46 75 62 75 12 1 40 14 62 30 51 36 162 95 196 103 14 4
38 18 53 32 16 14 30 24 33 21 13 -13 -53 -243 -90 -311 -6 -11 -16 -31 -23
-44 -39 -74 -134 -161 -134 -123 0 5 -6 17 -14 27 -12 16 -16 17 -30 6 -9 -7
-16 -23 -16 -35 0 -31 -66 -90 -123 -111 -59 -22 -61 -48 -5 -53 29 -2 47 5
89 33 l52 37 -7 -28 c-9 -35 -66 -99 -128 -144 -26 -19 -48 -38 -48 -42 0 -4
-13 -14 -28 -22 -25 -13 -31 -13 -43 -1 -8 8 -19 11 -25 7 -12 -7 -119 -225
-149 -302 -9 -25 -26 -62 -36 -83 -20 -40 -25 -87 -11 -87 5 0 25 34 46 76 21
41 40 73 42 71 4 -4 -27 -102 -45 -142 -19 -44 -124 -252 -143 -285 -12 -19
-32 -55 -46 -80 -13 -25 -31 -52 -38 -61 -8 -8 -14 -20 -14 -26 0 -6 -3 -13
-7 -15 -5 -1 -21 -21 -38 -43 -38 -51 -39 -53 -76 -95 -16 -19 -44 -54 -61
-77 -17 -24 -35 -43 -40 -43 -4 0 -8 -4 -8 -9 0 -5 -16 -26 -35 -47 -19 -21
-35 -32 -35 -25 0 23 32 145 51 195 11 27 19 55 19 63 0 8 7 28 16 44 21 42
13 55 -17 27 -44 -41 -99 -169 -99 -233 0 -38 -42 -196 -68 -256 -11 -25 -36
-59 -57 -75 l-37 -30 18 -37 c19 -39 37 -44 42 -11 7 47 13 64 24 64 13 0 4
-95 -14 -137 -22 -53 -38 -63 -93 -63 -39 0 -60 6 -81 22 -38 29 -45 40 -40
60 3 12 -10 22 -46 37 -28 12 -56 21 -62 21 -6 0 -23 6 -37 14 -14 7 -37 16
-51 19 -14 4 -36 18 -49 32 -20 20 -34 25 -78 25 -63 0 -125 35 -135 76 -4 16
-13 24 -29 24 -31 0 -67 11 -67 20 0 4 17 12 37 17 47 11 50 23 10 51 l-32 24
44 -7 c24 -4 60 -14 80 -23 28 -12 76 -16 217 -16 181 -1 182 -1 206 24 51 53
96 118 128 185 18 39 39 83 47 98 8 15 18 40 23 55 5 15 27 79 50 142 23 63
48 138 56 165 28 96 33 110 50 159 14 40 19 46 25 30 11 -28 10 -42 -1 -24 -8
12 -10 10 -10 -9 0 -20 2 -21 15 -11 8 7 15 17 15 22 0 10 5 23 56 133 25 53
53 125 54 133 0 2 -4 0 -10 -3 -18 -11 -10 22 10 40 11 10 20 22 20 27 0 4 8
16 18 26 21 23 47 54 92 112 19 25 43 54 53 65 11 11 31 38 45 60 35 55 105
149 115 153 4 2 7 8 7 13 0 6 5 15 10 22 6 7 22 27 35 46 20 28 26 31 31 18
13 -34 41 -14 62 44 6 19 12 43 12 52 0 9 18 36 40 58 22 23 40 48 40 56 0 7
7 25 16 38 9 14 22 75 31 142 8 65 24 136 34 157 10 22 19 45 19 52 0 7 6 25
14 41 8 15 22 55 31 88 9 33 25 87 34 120 10 33 26 87 36 120 9 33 23 76 30
95 44 120 71 185 77 188 5 2 8 8 8 13 0 11 21 43 100 148 l55 74 6 -68 c3 -37
4 -253 3 -479z m1596 402 c12 -40 29 -85 36 -100 8 -14 14 -33 14 -41 0 -9 3
-17 8 -19 11 -5 62 -75 62 -86 0 -6 3 -12 8 -14 22 -10 72 -96 107 -188 9 -25
22 -56 27 -70 17 -44 38 -193 37 -270 -1 -120 -7 -123 -62 -30 -26 45 -47 85
-47 91 0 5 -4 9 -8 9 -5 0 -23 21 -40 48 -17 26 -43 61 -58 77 -60 68 -130
162 -147 198 -9 21 -17 61 -17 91 0 30 -7 90 -15 134 l-15 80 37 81 c20 45 40
81 44 81 4 0 17 -33 29 -72z m-635 -125 l-7 -28 -9 24 c-12 31 -3 59 13 43 6
-6 8 -22 3 -39z m-198 -10 c-3 -10 -5 -4 -5 12 0 17 2 24 5 18 2 -7 2 -21 0
-30z m11 -200 c18 -33 15 -36 -25 -30 -62 10 -69 50 -25 134 l27 53 6 -67 c3
-38 11 -78 17 -90z m195 87 c5 -19 5 -50 1 -69 -8 -36 -8 -36 -15 19 -4 30
-10 63 -14 74 -6 14 -4 17 5 14 8 -2 18 -20 23 -38z m-309 -101 c8 -41 32 -58
79 -59 25 0 40 -5 44 -16 12 -31 -58 -381 -104 -524 -8 -25 -21 -70 -29 -100
-8 -30 -23 -62 -34 -70 -19 -14 -19 -19 -5 -95 20 -110 20 -383 1 -411 -8 -11
-16 -45 -18 -75 -2 -40 -7 -54 -18 -54 -11 0 -16 15 -20 51 -9 92 -60 109 -60
20 0 -43 6 -61 30 -94 17 -23 30 -49 30 -57 0 -8 -18 -44 -40 -80 -45 -74 -53
-113 -20 -95 24 13 24 12 5 -34 -19 -46 -35 -52 -88 -36 -60 17 -87 46 -87 90
0 43 -29 77 -48 58 -16 -16 -15 -60 3 -84 8 -10 15 -27 15 -36 0 -10 4 -18 8
-18 13 0 32 -47 32 -78 1 -63 44 -69 56 -8 7 42 16 44 49 11 29 -29 30 -32 9
-85 -15 -37 -15 -45 -1 -78 16 -41 34 -156 47 -307 13 -149 14 -193 3 -275 -9
-71 -4 -155 13 -210 7 -23 6 -24 -11 -10 -22 18 -26 50 41 -360 18 -109 44
-176 91 -239 25 -33 33 -55 33 -84 0 -26 11 -59 30 -94 22 -39 30 -66 30 -103
0 -46 -11 -63 -25 -40 -10 16 -68 28 -95 18 -17 -6 -37 -4 -68 8 -52 19 -76 8
-54 -26 17 -28 15 -70 -3 -70 -10 0 -15 10 -15 30 0 29 -29 70 -50 70 -19 0
-22 -29 -6 -52 20 -28 20 -48 1 -48 -10 0 -15 10 -15 30 0 23 -6 33 -24 40
-30 11 -39 38 -30 85 7 37 24 49 24 16 0 -24 27 -48 41 -34 6 6 6 19 -1 37
-13 36 -13 46 4 46 16 0 30 59 20 84 -8 21 -34 2 -34 -25 0 -11 -5 -19 -11
-19 -7 0 -9 19 -4 58 4 32 2 93 -4 135 -9 61 -17 85 -43 120 -18 23 -42 60
-52 82 -11 22 -27 56 -36 75 -9 19 -25 62 -35 95 -9 33 -22 71 -27 84 -14 37
-37 165 -44 249 -6 74 -16 102 -35 102 -5 0 -9 -17 -9 -37 -1 -34 -2 -36 -13
-18 -27 46 -46 152 -47 260 0 181 37 420 76 478 11 17 12 16 17 -4 7 -26 31
-20 35 10 2 12 14 27 28 33 25 12 32 32 14 43 -5 3 -10 14 -10 25 0 13 5 17
20 13 11 -3 20 0 20 6 0 7 -9 29 -20 51 -11 22 -20 55 -20 73 0 40 -26 70 -36
42 -4 -9 -4 -43 -1 -77 4 -41 1 -70 -9 -91 -14 -30 -14 -23 -11 88 4 114 11
160 42 265 l13 45 1 -51 c1 -30 7 -56 14 -63 8 -6 20 -29 27 -51 18 -56 34
-51 25 8 -4 26 -10 79 -13 119 -7 75 -17 97 -32 73 -13 -22 -23 -5 -11 18 8
15 7 27 -4 49 -8 15 -15 40 -15 54 0 14 -9 52 -21 85 -14 40 -23 102 -29 194
-5 74 -16 160 -25 190 l-17 54 48 44 c27 24 61 55 76 68 14 13 28 24 30 24 6
0 139 134 174 175 38 44 134 173 134 180 0 3 9 16 21 28 11 12 30 43 42 70 12
26 25 47 28 47 4 0 9 -14 13 -31z m250 -76 l43 6 18 -67 c17 -62 36 -108 102
-252 30 -66 94 -174 105 -178 4 -2 8 -8 8 -14 0 -16 99 -137 164 -199 66 -64
65 -43 11 -199 -15 -41 -40 -118 -57 -170 -17 -52 -35 -101 -41 -108 -6 -7 -9
-81 -8 -181 2 -176 1 -183 -51 -284 -5 -10 -19 -49 -31 -85 -22 -66 -22 -75
-19 -597 3 -542 7 -624 48 -805 8 -36 14 -71 14 -79 0 -8 16 -47 36 -88 35
-73 64 -113 84 -113 5 0 13 -6 17 -14 11 -18 107 -78 168 -105 28 -12 61 -28
75 -35 14 -7 46 -19 73 -26 26 -7 47 -16 47 -20 0 -12 -245 -44 -441 -57 -90
-5 -98 -4 -127 17 -26 20 -36 22 -64 13 -23 -6 -32 -14 -30 -27 3 -15 -5 -17
-70 -14 l-73 3 3 28 c2 15 -2 35 -9 43 -10 13 -10 21 3 47 49 98 40 198 -37
417 -28 78 -45 181 -48 295 -3 66 -3 102 -1 80 6 -62 35 -153 51 -159 12 -5
14 5 10 56 -7 108 -29 303 -34 308 -2 3 -11 -4 -19 -14 -16 -23 -23 -18 -51
39 -82 163 -93 382 -38 770 8 55 17 132 20 172 5 76 18 123 34 123 13 0 21
-23 45 -141 22 -105 49 -168 74 -177 25 -8 9 83 -27 148 -4 8 -14 47 -21 85
-7 39 -24 102 -39 140 -25 69 -26 75 -26 320 0 212 -3 263 -20 335 -14 65 -19
123 -20 245 0 163 5 193 52 302 7 17 13 62 13 101 0 97 8 136 26 121 9 -7 31
-9 58 -6z m633 -69 c3 -9 15 -26 27 -38 56 -57 146 -161 146 -168 0 -5 22 -43
49 -86 88 -140 120 -215 136 -319 7 -47 14 -56 34 -44 17 11 10 90 -13 150
-13 34 -14 46 -5 52 7 4 18 45 24 91 11 81 12 82 25 53 7 -16 15 -79 18 -140
4 -95 2 -108 -10 -97 -33 27 -27 -13 23 -140 11 -26 19 -56 19 -67 0 -32 57
-159 91 -202 15 -19 24 -54 33 -135 8 -66 21 -123 32 -145 10 -20 28 -52 38
-72 11 -21 23 -37 28 -37 4 0 8 -4 8 -10 0 -10 63 -103 86 -127 7 -7 22 -29
35 -50 13 -21 25 -40 28 -43 15 -13 71 -124 93 -185 20 -52 31 -84 80 -235
120 -367 141 -427 181 -505 71 -139 100 -185 142 -232 l50 -55 130 -1 c157 0
223 5 250 20 30 16 130 43 157 42 22 0 22 -1 4 -12 -11 -7 -27 -19 -36 -28 -9
-8 -24 -19 -34 -22 -30 -12 -7 -27 41 -27 45 0 46 0 28 -20 -20 -22 -55 -26
-73 -8 -9 9 -13 5 -18 -20 -3 -17 -14 -38 -23 -46 -23 -21 -100 -46 -141 -46
-30 0 -37 -5 -46 -28 -9 -23 -19 -30 -50 -34 -21 -3 -71 -15 -110 -27 -66 -21
-72 -25 -87 -61 -11 -30 -25 -43 -60 -59 -118 -54 -197 0 -197 134 0 52 10 69
26 44 4 -7 7 -25 6 -40 -1 -39 30 -39 57 -1 l20 28 -50 40 c-28 22 -52 50 -55
64 -3 14 -12 41 -20 60 -17 41 -42 127 -53 185 -24 115 -94 369 -120 430 -5
11 -16 40 -26 65 -10 25 -27 65 -38 90 -11 25 -26 59 -33 75 -7 17 -35 77 -63
135 -28 58 -51 111 -51 117 0 7 -30 51 -67 100 -76 100 -104 133 -116 133 -5
0 -15 7 -23 15 -16 15 -54 21 -54 8 0 -13 76 -93 88 -93 7 0 12 -5 12 -10 0
-6 10 -21 23 -33 38 -36 106 -154 154 -264 20 -48 27 -63 41 -88 5 -11 25 -56
42 -100 18 -44 40 -98 50 -120 40 -90 50 -117 50 -135 0 -11 6 -37 14 -57 29
-83 82 -277 90 -333 l7 -45 -48 65 c-26 36 -51 67 -55 68 -5 2 -8 8 -8 13 0 5
-28 39 -62 75 -69 72 -168 200 -168 215 0 5 -8 22 -17 36 -33 51 -53 123 -33
123 6 0 10 -7 10 -15 0 -8 3 -15 8 -15 4 0 29 -36 56 -81 28 -45 56 -83 63
-86 7 -3 13 -10 13 -17 0 -15 62 -56 84 -56 17 0 17 1 -2 18 -34 30 -126 159
-168 237 -14 25 -31 42 -48 46 -46 13 -195 146 -196 175 0 6 -7 17 -15 24 -19
15 -74 132 -90 190 -7 25 -19 70 -28 100 -48 174 -60 217 -65 240 -5 23 -4 24
12 7 26 -26 29 -21 23 34 -7 53 -27 88 -100 164 -39 41 -93 142 -107 198 -32
128 -85 231 -153 300 -16 16 -18 29 -12 105 4 48 11 105 17 127 5 22 12 140
15 263 5 202 12 252 30 206z m-799 -849 c7 -58 7 -118 0 -170 -5 -44 -13 -181
-17 -305 -4 -124 -13 -245 -19 -270 -43 -171 -55 -276 -55 -495 0 -241 2 -250
74 -400 28 -57 29 -67 29 -195 0 -132 12 -213 56 -366 8 -28 14 -60 14 -71 0
-18 11 -59 46 -166 10 -27 13 -59 9 -75 -18 -77 -37 -132 -45 -132 -13 0 -69
62 -86 95 -8 16 -19 59 -23 95 -9 72 -23 104 -58 133 -23 18 -29 36 -57 157
-19 82 -38 274 -35 360 2 47 -4 83 -21 130 -21 59 -22 67 -9 105 21 61 18 337
-4 393 -9 23 -17 68 -17 98 0 31 -7 71 -16 90 -12 25 -14 45 -9 72 4 20 10 65
14 99 3 34 14 70 22 80 9 10 22 53 28 96 6 43 18 91 26 107 8 16 15 37 15 47
0 10 9 36 20 58 11 22 20 53 20 70 1 16 9 48 20 70 24 50 26 159 5 337 -14
124 -14 129 5 160 11 18 20 41 20 52 0 10 6 37 13 60 11 39 12 34 19 -94 3
-74 11 -175 16 -225z m-683 228 c8 -73 31 -188 56 -275 26 -92 26 -219 0 -323
-12 -44 -21 -110 -21 -147 0 -96 -28 -275 -50 -330 -42 -99 -53 -182 -53 -403
0 -198 1 -215 25 -290 14 -44 35 -97 47 -119 26 -45 71 -179 71 -210 0 -22 33
-133 48 -163 5 -10 19 -38 31 -63 22 -48 53 -102 61 -110 3 -3 16 -18 28 -34
19 -25 22 -41 22 -131 0 -75 -5 -119 -20 -165 -17 -54 -19 -74 -11 -139 5 -42
9 -76 8 -77 -6 -4 -348 49 -467 73 -209 41 -566 141 -695 194 -11 5 -47 18
-80 29 -33 12 -78 30 -100 40 -22 10 -65 28 -95 40 -82 34 -162 69 -185 82
-11 7 -42 22 -70 35 -98 47 -120 58 -125 65 -3 4 -21 14 -40 23 -50 23 -94 47
-100 54 -3 3 -23 15 -45 26 -36 18 -186 113 -210 132 -5 5 -28 19 -50 33 -61
37 -106 72 -100 79 3 3 9 1 13 -5 4 -6 43 -28 87 -48 44 -21 112 -53 150 -71
39 -18 77 -36 85 -39 8 -3 29 -15 45 -26 17 -11 53 -31 80 -44 102 -49 164
-58 215 -31 47 25 99 154 100 251 0 49 36 134 79 188 17 21 31 42 31 46 0 6
24 35 97 114 19 22 51 61 70 88 19 26 39 48 44 48 5 0 9 7 9 15 0 8 3 15 8 15
4 0 20 21 37 48 16 26 32 49 35 52 12 11 47 68 64 105 35 74 59 120 66 125 19
14 120 260 120 291 0 18 18 66 46 122 8 16 14 39 14 51 0 13 9 35 20 49 11 14
20 28 20 31 0 3 20 27 45 53 24 26 45 51 45 56 0 4 5 7 11 7 10 0 55 37 87 73
9 9 21 17 27 17 14 1 73 83 96 135 10 23 30 50 43 59 68 44 206 265 206 330 0
49 19 26 25 -31z m1422 -141 c15 -16 33 -38 40 -49 13 -23 57 -152 68 -197 9
-42 63 -155 91 -193 27 -35 134 -359 134 -404 0 -54 110 -327 147 -367 7 -7
13 -17 13 -22 0 -4 36 -44 79 -87 63 -64 81 -88 87 -119 7 -42 56 -149 81
-176 8 -9 22 -30 31 -46 15 -27 86 -113 135 -164 9 -10 17 -21 17 -26 0 -4 9
-13 19 -19 11 -7 34 -34 52 -60 17 -26 37 -53 43 -58 40 -37 83 -143 101 -250
18 -107 32 -155 46 -155 5 0 9 -5 9 -10 0 -6 12 -22 28 -37 24 -22 33 -25 82
-20 l55 6 -35 -15 c-19 -9 -53 -24 -75 -34 -22 -10 -67 -27 -100 -39 -33 -11
-91 -32 -130 -46 -38 -15 -92 -33 -120 -41 -27 -8 -72 -21 -100 -30 -27 -8
-66 -19 -85 -24 -68 -17 -126 -32 -203 -53 l-79 -21 -115 23 c-136 28 -202 49
-298 97 -87 43 -99 51 -144 93 -36 34 -86 121 -102 176 -38 138 -39 149 -50
635 -13 621 -13 679 5 771 15 76 23 98 78 217 29 63 29 65 26 230 -3 150 -1
171 17 202 20 38 73 179 82 220 7 38 34 120 38 120 3 0 17 -13 32 -28z m-3706
-1705 c7 -44 -1 -53 -33 -36 -29 14 -78 60 -78 71 0 5 24 8 52 6 53 -3 53 -3
59 -41z m5899 -222 c0 -11 -11 -15 -39 -15 -55 0 -61 18 -9 23 24 2 44 4 46 5
1 1 2 -5 2 -13z m-60 -55 c0 -5 -12 -10 -27 -9 -25 0 -26 1 -8 9 27 12 35 12
35 0z m-1626 -826 c27 -10 17 -38 -20 -56 -44 -22 -97 -23 -130 -2 -20 14 -29
15 -47 6 -12 -7 -38 -12 -57 -12 -19 0 -62 -2 -95 -4 -57 -4 -56 -4 20 10 44
8 123 22 175 30 52 9 104 20 115 24 11 5 21 9 22 9 1 1 8 -2 17 -5z"/>
<path d="M1895 7840 c10 -11 24 -20 31 -20 7 0 28 -6 46 -14 18 -8 49 -21 70
-30 20 -9 42 -16 50 -16 7 0 22 -6 33 -14 11 -7 31 -16 45 -20 l25 -7 -24 20
c-12 12 -27 18 -32 15 -5 -3 -9 -1 -9 4 0 8 -39 29 -153 80 -26 12 -59 22 -74
22 -25 0 -26 0 -8 -20z"/>
<path d="M2400 7678 c0 -6 10 -22 22 -35 l22 -24 -22 -6 c-30 -7 -28 -19 6
-27 15 -3 58 -15 97 -25 38 -11 71 -18 74 -16 8 8 -21 34 -90 81 -38 25 -72
51 -75 55 -8 13 -34 11 -34 -3z"/>
<path d="M7992 7808 c-17 -17 -15 -48 4 -48 27 0 54 20 54 40 0 23 -38 28 -58
8z"/>
<path d="M7690 7777 c0 -7 5 -18 12 -25 15 -15 39 3 31 24 -7 18 -43 19 -43 1z"/>
<path d="M7999 7732 c-28 -25 -34 -52 -11 -52 11 0 72 60 72 71 0 18 -30 9
-61 -19z"/>
<path d="M7565 7689 c-59 -30 -102 -65 -92 -76 16 -16 177 70 177 94 0 19 -19
15 -85 -18z"/>
<path d="M7525 7606 c-78 -29 -135 -58 -135 -68 0 -16 38 -8 111 23 107 45
119 51 119 61 0 13 -31 8 -95 -16z"/>
<path d="M6908 7463 c-10 -2 -18 -11 -18 -19 0 -23 57 -18 70 6 9 17 8 20 -12
19 -13 -1 -31 -3 -40 -6z"/>
<path d="M6835 7320 c-3 -5 -21 -17 -40 -26 -19 -9 -35 -20 -35 -25 0 -5 -5
-9 -10 -9 -6 0 -16 -5 -23 -10 -43 -37 -110 -80 -157 -104 -114 -56 -159 -87
-160 -108 0 -18 33 -5 115 42 48 28 90 50 94 50 4 0 29 15 55 34 27 19 63 37
82 40 43 9 104 67 104 101 0 25 -14 34 -25 15z"/>
<path d="M5123 7957 c-12 -5 -24 -16 -27 -24 -5 -11 3 -13 36 -11 45 3 60 21
31 36 -11 6 -26 6 -40 -1z"/>
<path d="M4754 7906 c-3 -9 -11 -16 -18 -16 -6 0 -22 -9 -36 -20 -20 -15 -23
-21 -12 -31 6 -7 12 -21 12 -32 0 -24 59 -77 85 -77 11 0 37 14 58 31 l37 30
0 -52 c0 -33 -6 -59 -15 -69 -12 -13 -13 -26 -7 -56 7 -32 12 -39 31 -37 12 2
33 -4 46 -13 26 -17 45 -12 45 12 0 20 88 20 96 -1 8 -19 54 -20 54 -1 0 8
-10 23 -23 33 -13 10 -27 31 -31 46 -8 32 -22 35 -31 7 -5 -15 -12 -19 -30
-14 -12 3 -26 1 -29 -5 -9 -14 -73 -14 -81 -1 -3 5 -1 19 5 30 6 12 13 49 14
83 2 34 6 71 10 82 12 35 -14 56 -79 64 -33 5 -68 11 -77 16 -12 5 -20 2 -24
-9z m71 -75 c3 -5 1 -12 -4 -15 -13 -8 -42 4 -35 15 7 12 31 12 39 0z"/>
<path d="M4974 7815 c10 -41 26 -56 26 -23 0 14 -7 32 -17 39 -15 13 -16 11
-9 -16z"/>
<path d="M4984 7705 c-8 -19 2 -45 16 -45 5 0 10 14 10 30 0 31 -16 41 -26 15z"/>
<path d="M5187 7213 c-4 -3 -7 -16 -7 -27 0 -12 -9 -38 -19 -58 l-20 -36 28
-31 c38 -42 55 -41 47 4 -8 38 10 49 34 20 7 -8 19 -15 26 -15 12 0 12 5 -1
30 -9 17 -19 30 -23 30 -4 0 -16 20 -26 45 -19 44 -26 52 -39 38z"/>
<path d="M4297 6943 c-17 -16 -4 -31 34 -37 69 -11 100 -72 63 -124 -9 -13
-41 -34 -71 -47 -59 -26 -62 -45 -8 -45 40 0 76 12 97 34 9 8 32 16 53 18 41
2 52 13 35 33 -8 10 -8 15 1 21 6 4 15 1 20 -7 4 -8 15 -23 24 -34 15 -19 16
-18 9 15 -12 66 -70 147 -90 127 -4 -3 -2 -12 3 -19 25 -31 24 -56 -2 -82
l-25 -25 0 50 c0 29 -7 60 -16 75 -25 37 -107 68 -127 47z"/>
<path d="M4947 6753 c-10 -9 -8 -116 2 -132 17 -26 31 1 31 58 0 55 -16 91
-33 74z"/>
<path d="M4420 6675 c-17 -20 -4 -35 31 -35 36 0 39 22 5 38 -19 8 -27 8 -36
-3z"/>
<path d="M4382 6588 c2 -13 9 -23 17 -23 23 0 24 23 1 35 -19 10 -21 9 -18
-12z"/>
<path d="M5110 6364 c0 -22 31 -72 49 -80 21 -9 161 -13 161 -4 0 12 -24 30
-39 30 -24 0 -135 48 -139 59 -6 17 -32 13 -32 -5z"/>
<path d="M4503 6337 c-13 -13 -23 -29 -23 -36 0 -17 40 -50 61 -51 34 0 58 46
43 84 -9 22 -34 20 -34 -3 0 -10 -7 -22 -16 -25 -13 -5 -14 -1 -9 24 8 35 7
36 -22 7z"/>
<path d="M5358 6346 c-21 -15 -24 -56 -6 -74 7 -7 22 -12 34 -12 28 0 97 29
70 30 -11 0 -35 5 -53 12 -28 10 -33 16 -28 35 6 27 6 27 -17 9z"/>
<path d="M7347 6754 c-43 -23 -28 -39 41 -42 66 -3 67 -4 52 -32 -8 -16 -7
-17 14 -12 32 10 134 74 140 90 8 19 -210 16 -247 -4z"/>
<path d="M7140 6725 c0 -28 86 -47 119 -26 12 8 12 12 2 25 -19 22 -121 23
-121 1z"/>
<path d="M4991 6246 c-8 -10 -23 -15 -33 -13 -21 6 -22 0 -3 -33 31 -54 10
-114 -48 -140 -35 -16 -37 -19 -22 -31 10 -8 33 -29 53 -47 l35 -33 -6 -79
c-3 -49 -1 -80 5 -80 5 0 6 9 3 20 -3 11 -2 20 3 20 5 0 15 15 22 33 7 17 19
46 26 64 8 17 14 35 15 40 0 4 21 25 45 46 39 32 52 37 95 37 27 0 49 4 49 9
0 26 -99 29 -138 4 -15 -9 -40 -29 -56 -45 -28 -28 -56 -37 -56 -18 0 6 -7 10
-15 10 -21 0 -19 9 8 34 13 12 28 30 34 39 8 16 12 16 38 3 16 -8 31 -13 33
-11 2 2 -10 22 -28 43 -23 29 -34 55 -38 93 -6 47 -8 50 -21 35z"/>
<path d="M5123 6144 c-7 -18 20 -44 44 -44 20 0 15 38 -6 50 -26 14 -31 13
-38 -6z"/>
<path d="M5340 6128 c0 -12 8 -30 17 -40 14 -16 15 -23 5 -38 -16 -25 -15 -50
0 -50 7 0 35 11 63 24 27 13 76 31 109 41 49 14 56 19 45 30 -14 13 -85 8
-146 -11 -19 -5 -23 -2 -23 14 0 26 -26 52 -51 52 -13 0 -19 -7 -19 -22z"/>
<path d="M4284 6018 c7 -37 10 -41 28 -36 21 4 3 68 -19 68 -12 0 -14 -7 -9
-32z"/>
<path d="M4350 6016 c0 -14 5 -28 11 -32 17 -10 32 12 24 35 -9 29 -35 27 -35
-3z"/>
<path d="M5226 5996 c7 -17 52 -38 59 -26 3 4 -2 16 -11 24 -19 20 -55 22 -48
2z"/>
<path d="M5591 5929 c-30 -27 -41 -43 -34 -50 15 -15 40 0 63 38 31 52 21 56
-29 12z"/>
<path d="M5304 5935 c-4 -8 -3 -31 0 -50 5 -27 4 -35 -8 -35 -32 0 -26 -23 15
-61 23 -21 46 -39 51 -39 4 0 8 23 8 50 0 38 -4 50 -15 50 -11 0 -15 12 -15
50 0 38 -4 50 -15 50 -9 0 -18 -7 -21 -15z"/>
<path d="M5420 5911 c0 -31 44 -90 54 -73 3 5 -1 30 -10 56 -18 52 -44 62 -44
17z"/>
<path d="M4320 5897 c0 -14 31 -47 43 -47 12 0 8 35 -5 48 -16 16 -38 15 -38
-1z"/>
<path d="M4523 5854 c-8 -21 14 -34 58 -34 39 0 62 26 37 42 -24 14 -88 9 -95
-8z"/>
<path d="M5467 5774 c-4 -4 -7 -26 -7 -50 0 -38 -3 -43 -31 -53 -40 -14 -86
-14 -94 -1 -8 14 -45 13 -45 -1 0 -7 10 -20 22 -30 40 -35 127 -20 171 29 30
33 14 136 -16 106z"/>
<path d="M4862 5698 c-26 -33 -41 -75 -30 -86 20 -20 85 63 66 85 -13 16 -23
16 -36 1z"/>
<path d="M4604 5680 c-68 -10 -77 -16 -61 -40 18 -30 58 -25 103 15 41 36 39
37 -42 25z"/>
<path d="M4735 5650 c-29 -12 -66 -50 -60 -61 15 -23 104 27 105 59 0 14 -16
15 -45 2z"/>
<path d="M5470 5593 c0 -25 1 -26 20 -8 21 19 18 35 -6 35 -9 0 -14 -10 -14
-27z"/>
<path d="M5306 5515 c-59 -72 -64 -117 -7 -64 30 28 40 16 42 -54 2 -48 4 -54
14 -40 21 31 24 75 7 110 -13 28 -14 36 -2 58 10 18 10 29 3 36 -7 7 -24 -6
-57 -46z"/>
<path d="M4981 5541 c-6 -10 -24 -24 -41 -29 -16 -6 -30 -15 -30 -19 1 -4 20
-29 43 -54 l43 -47 32 32 c17 17 38 37 47 44 20 17 13 28 -25 35 -20 5 -34 15
-40 32 -11 30 -16 31 -29 6z"/>
<path d="M4617 5516 l-58 -22 23 -21 c13 -11 33 -26 45 -32 12 -6 25 -20 28
-31 11 -36 28 -22 21 18 -9 50 -9 63 -3 90 3 12 5 21 4 21 -1 -1 -28 -11 -60
-23z"/>
<path d="M4936 5294 c-51 -63 -59 -89 -23 -79 12 4 27 13 33 21 14 18 22 18
40 -1 17 -16 54 -21 54 -6 0 5 -6 14 -14 20 -8 6 -19 32 -25 56 -6 25 -13 45
-15 45 -2 0 -24 -25 -50 -56z"/>
<path d="M5340 5257 c0 -22 -12 -50 -35 -82 -30 -42 -33 -54 -28 -90 4 -31 0
-52 -16 -83 -37 -72 -23 -98 21 -39 29 37 41 76 39 130 0 21 8 51 19 70 21 34
28 127 10 127 -5 0 -10 -15 -10 -33z"/>
<path d="M4611 5216 c-14 -56 -14 -119 -1 -132 6 -6 14 -41 18 -78 7 -55 14
-72 37 -94 23 -22 26 -23 20 -7 -4 11 -11 49 -15 85 -5 36 -13 83 -19 105 -6
22 -11 68 -11 103 0 73 -13 81 -29 18z"/>
<path d="M4964 5160 c-33 -13 -37 -27 -18 -59 16 -27 16 -31 1 -55 -19 -29 -7
-43 22 -24 17 10 23 9 39 -6 15 -13 22 -14 27 -5 5 7 1 16 -9 21 -12 7 -16 24
-16 73 0 68 -4 72 -46 55z"/>
<path d="M4457 5072 c-12 -2 -16 -9 -13 -19 3 -8 6 -17 6 -19 0 -2 6 -4 13 -4
17 0 57 -73 57 -104 0 -25 13 -66 48 -151 20 -47 75 -111 103 -118 28 -7 24
11 -16 73 -19 30 -35 62 -35 71 0 8 -4 19 -9 25 -5 5 -14 27 -20 49 -45 153
-54 172 -96 192 -11 5 -28 8 -38 5z"/>
<path d="M5258 4897 c-22 -17 -8 -40 23 -35 16 2 24 10 24 23 0 24 -24 30 -47
12z"/>
<path d="M5148 4632 c-7 -2 -22 -8 -33 -13 -11 -5 -56 -10 -100 -11 l-80 -3
32 -17 c40 -22 130 -23 157 -3 11 9 41 15 68 15 34 0 48 4 48 14 0 14 -62 26
-92 18z"/>
<path d="M5246 4584 c-11 -28 -6 -51 14 -69 21 -19 50 -14 50 9 0 8 15 23 33
35 l32 21 -27 0 c-15 0 -30 5 -33 10 -10 16 -62 12 -69 -6z"/>
<path d="M4640 4545 c-10 -12 -9 -16 3 -21 21 -8 37 3 30 21 -7 19 -17 19 -33
0z"/>
<path d="M5454 4466 c-8 -21 35 -101 48 -88 16 16 0 80 -23 92 -15 8 -21 7
-25 -4z"/>
<path d="M4638 4065 c-10 -13 -18 -26 -18 -29 0 -19 -150 -213 -227 -294 -58
-61 -103 -113 -103 -118 0 -2 -9 -13 -20 -24 -21 -21 -26 -40 -11 -40 16 0
262 267 308 334 15 22 31 43 36 44 14 7 58 112 55 131 -3 18 -4 17 -20 -4z"/>
<path d="M4275 3549 c-24 -25 -27 -32 -15 -39 22 -14 27 -12 44 12 17 23 22
58 9 58 -5 0 -21 -14 -38 -31z"/>
<path d="M3501 2928 c-12 -12 -24 -32 -26 -43 -9 -44 -12 -196 -5 -200 15 -9
40 38 40 75 0 20 7 63 16 95 9 33 17 66 18 74 2 24 -21 23 -43 -1z"/>
<path d="M3426 2873 c-9 -23 12 -43 24 -23 5 8 10 21 10 28 0 18 -27 15 -34
-5z"/>
<path d="M3623 2801 c-19 -9 -33 -24 -33 -35 0 -16 5 -17 32 -12 32 6 48 20
48 43 0 20 -14 21 -47 4z"/>
<path d="M3340 2752 c0 -13 30 -71 39 -76 9 -6 51 30 51 44 0 6 -9 10 -19 10
-11 0 -26 7 -35 15 -16 16 -36 20 -36 7z"/>
<path d="M3637 2735 c-39 -13 -62 -33 -84 -73 -25 -43 -7 -44 45 -3 20 16 56
34 79 40 53 14 62 28 28 41 -14 6 -27 10 -28 10 -1 -1 -19 -7 -40 -15z"/>
<path d="M3292 2636 c-12 -13 -34 -50 -49 -83 -14 -32 -29 -60 -32 -63 -10 -8
-67 -131 -80 -171 -6 -20 -25 -57 -41 -83 -17 -26 -30 -50 -30 -53 0 -4 -6
-14 -14 -22 -7 -9 -31 -47 -51 -86 -46 -86 -53 -94 -47 -55 2 16 0 30 -5 30
-18 0 -43 -36 -43 -62 0 -14 -7 -45 -15 -68 -23 -66 -19 -79 13 -44 15 16 36
36 48 44 11 8 30 35 43 60 32 65 74 135 92 157 28 33 46 67 68 133 12 35 28
76 35 90 7 14 33 64 56 113 24 48 47 87 51 87 5 0 9 5 9 11 0 6 9 22 20 36 39
49 15 74 -28 29z"/>
<path d="M3172 1806 c-23 -25 -42 -49 -42 -54 0 -6 -7 -12 -15 -16 -8 -3 -15
-11 -15 -18 0 -7 -9 -19 -20 -26 -11 -7 -20 -19 -20 -27 0 -12 5 -12 26 -4 32
12 74 49 74 67 0 6 4 12 8 12 11 0 62 78 62 96 0 24 -15 16 -58 -30z"/>
<path d="M2602 1338 c-15 -15 -16 -54 -2 -63 21 -13 70 6 70 26 0 11 -7 19
-16 19 -10 0 -14 6 -10 15 7 18 -24 21 -42 3z"/>
<path d="M2698 1293 c-44 -28 -65 -106 -35 -132 17 -13 27 -5 27 23 0 11 9 39
21 63 26 53 22 67 -13 46z"/>
<path d="M2157 1273 c-11 -10 -8 -61 3 -68 5 -3 17 4 27 15 15 18 26 20 73 15
l55 -5 -50 25 c-49 24 -95 32 -108 18z"/>
<path d="M2396 1223 c-12 -12 -6 -43 9 -43 8 0 15 9 15 19 0 21 -13 34 -24 24z"/>
<path d="M2657 1134 c-12 -13 -7 -51 8 -64 13 -11 15 -8 15 19 0 17 0 34 1 38
1 10 -16 15 -24 7z"/>
<path d="M4696 3118 c-8 -13 -17 -33 -21 -45 -3 -13 -11 -23 -16 -23 -5 0 -9
-7 -9 -15 0 -8 -4 -15 -8 -15 -10 0 -92 -74 -92 -84 0 -4 -4 -12 -10 -19 -47
-57 -60 -76 -60 -86 0 -6 -4 -11 -10 -11 -17 0 -32 -79 -21 -112 7 -19 8 -75
4 -148 l-6 -118 57 -58 c44 -45 59 -55 66 -44 11 17 0 37 -39 73 -40 37 -47
67 -31 131 11 49 11 75 -6 182 -5 37 -1 47 40 108 25 37 46 71 46 77 0 5 4 9
8 9 5 0 15 11 22 25 7 14 32 36 55 50 35 20 44 32 54 69 14 55 14 76 1 76 -5
0 -16 -10 -24 -22z"/>
<path d="M4330 2174 c-14 -36 -12 -61 5 -88 25 -37 24 -139 0 -166 -19 -21
-20 -38 -20 -324 0 -262 2 -311 19 -376 27 -107 47 -161 63 -167 23 -9 24 2 4
68 -43 140 -51 208 -51 407 0 130 5 218 15 270 8 42 20 103 26 135 10 50 9 71
-11 162 -13 58 -27 105 -32 105 -5 0 -13 -12 -18 -26z"/>
<path d="M4235 1958 c-26 -53 -26 -206 -2 -287 10 -30 17 -67 17 -82 0 -32 19
-79 32 -79 14 0 9 82 -13 211 -17 102 -19 132 -10 178 21 105 10 131 -24 59z"/>
<path d="M4687 593 c-13 -12 -7 -40 11 -56 38 -35 96 -9 67 29 -13 17 -14 17
-15 2 0 -26 -14 -22 -30 7 -14 26 -22 30 -33 18z"/>
<path d="M4640 537 c0 -25 5 -40 15 -44 26 -9 28 3 6 44 l-20 38 -1 -38z"/>
<path d="M5261 3346 c-12 -18 -21 -39 -21 -46 0 -28 -38 -121 -98 -239 -94
-185 -103 -235 -60 -331 14 -30 22 -74 25 -130 2 -47 8 -94 13 -105 5 -11 11
-46 13 -79 3 -51 8 -62 37 -87 18 -16 39 -29 46 -29 27 0 24 21 -5 46 -28 23
-31 31 -31 84 0 53 2 58 25 64 26 7 50 40 40 57 -4 6 -19 2 -39 -11 -59 -36
-66 -30 -66 58 0 43 -7 104 -15 135 -19 75 -20 177 0 203 8 10 15 26 15 35 0
9 7 22 15 29 27 23 97 184 124 285 4 17 12 39 18 50 11 21 7 45 -7 45 -5 0
-18 -15 -29 -34z"/>
<path d="M5358 3019 c-25 -14 -22 -50 6 -77 30 -28 36 -20 29 41 -6 50 -8 52
-35 36z"/>
<path d="M5295 2470 c-12 -19 -18 -120 -8 -120 13 0 40 40 48 72 7 27 -27 68
-40 48z"/>
<path d="M5158 2276 c-27 -20 -22 -51 16 -90 27 -27 36 -45 38 -78 4 -50 26
-59 41 -15 11 35 3 71 -24 98 -13 13 -18 27 -14 39 7 23 -10 60 -28 60 -7 0
-20 -7 -29 -14z"/>
<path d="M5077 2068 c-4 -13 3 -43 37 -158 9 -30 21 -84 26 -120 5 -36 14 -86
20 -110 6 -25 14 -127 17 -227 6 -192 7 -181 -53 -492 -8 -40 -14 -112 -13
-160 0 -83 1 -85 14 -51 7 19 14 50 14 69 1 19 10 69 20 110 34 132 46 275 46
531 0 253 -8 337 -46 454 -10 33 -19 69 -19 80 0 24 -35 86 -49 86 -5 0 -11
-6 -14 -12z"/>
<path d="M5007 1483 c-12 -11 -8 -23 8 -23 8 0 15 7 15 15 0 16 -12 20 -23 8z"/>
<path d="M4994 1429 c-7 -12 15 -31 28 -23 4 3 8 12 8 20 0 17 -26 19 -36 3z"/>
<path d="M4993 1383 c-21 -7 -15 -33 7 -33 11 0 20 6 20 14 0 18 -11 25 -27
19z"/>
<path d="M5206 824 c-10 -26 -7 -44 8 -44 20 0 29 16 21 40 -8 24 -21 26 -29
4z"/>
<path d="M5190 741 c0 -6 5 -13 10 -16 6 -3 10 -14 10 -24 0 -10 10 -26 21
-37 l21 -19 -7 35 c-4 19 -11 43 -17 53 -9 18 -38 24 -38 8z"/>
<path d="M5103 615 c-7 -22 -8 -48 -2 -72 5 -21 9 -54 9 -74 0 -38 24 -69 53
-69 27 0 28 16 3 39 -21 20 -25 36 -31 117 -4 52 -11 94 -15 94 -3 0 -11 -16
-17 -35z"/>
<path d="M5340 601 c0 -10 9 -29 20 -42 18 -23 19 -23 20 -4 0 35 -12 65 -26
65 -8 0 -14 -9 -14 -19z"/>
<path d="M5280 573 c0 -24 6 -46 15 -53 16 -14 18 -10 15 35 -1 17 -8 37 -16
45 -12 12 -14 9 -14 -27z"/>
<path d="M5214 585 c-9 -22 4 -62 21 -69 11 -4 15 1 15 17 0 54 -23 87 -36 52z"/>
<path d="M5224 415 c-17 -42 -18 -85 -1 -85 17 0 37 47 37 87 0 43 -17 42 -36
-2z"/>
<path d="M5640 352 c0 -19 89 -72 120 -72 29 0 1 34 -40 47 -25 8 -49 19 -54
24 -12 11 -26 12 -26 1z"/>
<path d="M5770 3320 c0 -35 36 -62 46 -35 9 22 -12 65 -31 65 -10 0 -15 -10
-15 -30z"/>
<path d="M5750 3231 c-5 -11 -10 -50 -10 -88 0 -58 5 -75 29 -114 16 -26 52
-66 80 -90 28 -24 51 -50 51 -57 0 -17 38 -92 58 -114 8 -10 30 -20 48 -24 18
-3 44 -16 56 -29 23 -23 98 -42 118 -30 18 11 -9 35 -41 35 -34 0 -69 44 -69
88 0 35 -24 62 -34 36 -3 -8 -6 -25 -6 -35 0 -16 -6 -20 -27 -17 -23 3 -29 11
-46 63 -11 33 -30 67 -41 75 -12 8 -40 32 -63 53 -52 48 -67 95 -64 195 1 58
-1 72 -13 72 -9 0 -20 -9 -26 -19z"/>
<path d="M6082 3021 c-16 -9 -28 -116 -14 -125 15 -9 28 20 35 76 7 48 0 62
-21 49z"/>
<path d="M6080 2646 c0 -39 127 -116 191 -116 37 0 38 17 2 26 -15 4 -38 13
-52 20 -14 8 -31 14 -36 14 -6 0 -26 16 -45 35 -37 36 -60 44 -60 21z"/>
<path d="M6204 2649 c-8 -14 11 -33 25 -25 6 4 11 14 11 22 0 16 -26 19 -36 3z"/>
<path d="M6050 2467 c0 -16 62 -77 78 -77 16 0 5 25 -26 60 -28 31 -52 39 -52
17z"/>
<path d="M6140 2300 c0 -11 7 -20 15 -20 8 0 15 9 15 20 0 11 -7 20 -15 20 -8
0 -15 -9 -15 -20z"/>
<path d="M6204 2185 c-7 -18 2 -45 15 -45 5 0 11 7 15 15 7 18 -2 45 -15 45
-5 0 -12 -7 -15 -15z"/>
<path d="M6237 2014 c-4 -4 2 -19 12 -33 19 -27 46 -109 56 -171 7 -45 31 -78
46 -63 7 7 3 39 -16 108 -29 109 -29 110 -58 143 -21 23 -29 26 -40 16z"/>
<path d="M6994 1082 c-16 -42 -1 -74 33 -70 37 4 41 36 9 71 -14 15 -27 27
-28 27 -2 0 -8 -13 -14 -28z"/>
<path d="M6926 1025 c8 -12 18 -42 22 -65 10 -57 32 -65 32 -12 0 50 -24 97
-49 98 -18 1 -18 -1 -5 -21z"/>
<path d="M7425 1019 c-69 -9 -97 -18 -89 -31 4 -6 24 -7 49 -3 36 5 47 3 63
-16 25 -26 42 -18 42 21 0 36 -4 38 -65 29z"/>
<path d="M7220 965 c0 -8 2 -15 4 -15 2 0 11 -3 20 -6 12 -4 16 0 16 15 0 14
-6 21 -20 21 -11 0 -20 -7 -20 -15z"/>
<path d="M6959 885 c-11 -11 4 -65 18 -65 10 0 13 9 11 32 -3 29 -17 45 -29
33z"/>
</g>
</svg>
